<svg id="social__instagram" xmlns="http://www.w3.org/2000/svg" viewBox="0 0 39.42 39.42"><defs><style>.cls-1,.cls-2{fill:#da92c7;}.cls-1{fill-rule:evenodd;}</style></defs><g id="Layer_2" data-name="Layer 2"><g id="FOOTER"><path class="cls-1" d="M19.71,0A19.71,19.71,0,1,0,39.42,19.71,19.72,19.72,0,0,0,19.71,0ZM15.38,9.26c1.12,0,1.48-.06,4.33-.06h0c2.86,0,3.21,0,4.33.06a7.74,7.74,0,0,1,2.56.49,5.34,5.34,0,0,1,3.07,3.08,7.62,7.62,0,0,1,.49,2.55c.05,1.12.07,1.48.07,4.33s0,3.21-.07,4.34a7.67,7.67,0,0,1-.49,2.55,5.19,5.19,0,0,1-1.21,1.86,5.06,5.06,0,0,1-1.86,1.21,7.67,7.67,0,0,1-2.55.49c-1.13.05-1.48.07-4.34.07s-3.21,0-4.33-.07a7.62,7.62,0,0,1-2.55-.49A5.09,5.09,0,0,1,11,28.46,5.19,5.19,0,0,1,9.75,26.6a7.67,7.67,0,0,1-.49-2.55c0-1.13-.06-1.48-.06-4.34s0-3.21.06-4.33a7.62,7.62,0,0,1,.49-2.55A5.22,5.22,0,0,1,11,11a5.31,5.31,0,0,1,1.87-1.21A7.67,7.67,0,0,1,15.38,9.26Z"/><path class="cls-1" d="M18.77,11.09h.94c2.81,0,3.14,0,4.25.06a5.64,5.64,0,0,1,1.95.37,3.46,3.46,0,0,1,2,2,6,6,0,0,1,.36,2c.05,1.11.06,1.44.06,4.25s0,3.14-.06,4.25a6,6,0,0,1-.36,1.95,3.26,3.26,0,0,1-.79,1.21,3.36,3.36,0,0,1-1.21.78,5.47,5.47,0,0,1-1.95.36c-1.11.06-1.44.07-4.25.07s-3.14,0-4.25-.07a5.52,5.52,0,0,1-2-.36,3.41,3.41,0,0,1-2-2A5.7,5.7,0,0,1,11.15,24c-.05-1.11-.06-1.45-.06-4.25s0-3.14.06-4.25a5.7,5.7,0,0,1,.37-2,3.36,3.36,0,0,1,.78-1.21,3.26,3.26,0,0,1,1.21-.79,6,6,0,0,1,2-.36c1,0,1.35-.06,3.31-.06Zm6.56,1.75a1.26,1.26,0,1,0,1.26,1.26,1.26,1.26,0,0,0-1.26-1.26Zm-11,6.87a5.4,5.4,0,1,1,5.4,5.4A5.4,5.4,0,0,1,14.31,19.71Z"/><path class="cls-2" d="M19.71,16.21a3.51,3.51,0,1,1-3.5,3.5A3.51,3.51,0,0,1,19.71,16.21Z"/></g></g></svg>
