<?xml version="1.0" encoding="utf-8"?>
<!-- Generator: Adobe Illustrator 26.1.0, SVG Export Plug-In . SVG Version: 6.00 Build 0)  -->
<svg version="1.1" id="social__instagram" xmlns="http://www.w3.org/2000/svg" xmlns:xlink="http://www.w3.org/1999/xlink" x="0px"
	 y="0px" viewBox="0 0 21 21" style="enable-background:new 0 0 21 21;" xml:space="preserve">
<style type="text/css">
	.st0{fill-rule:evenodd;clip-rule:evenodd;fill:#DA92C7;}
</style>
<g>
	<circle class="st0" cx="16.1" cy="4.9" r="1.3"/>
	<path class="st0" d="M17.4,0.5c-0.8-0.3-1.7-0.5-2.6-0.5C13.7,0,13.4,0,10.5,0C7.7,0,7.3,0.1,6.2,0.1c-0.9,0-1.7,0.2-2.5,0.5
		C3,0.9,2.3,1.3,1.8,1.8c-0.5,0.5-1,1.1-1.2,1.8C0.2,4.4,0.1,5.3,0.1,6.2C0,7.3,0,7.6,0,10.5c0,2.9,0.1,3.2,0.1,4.3
		c0,0.9,0.2,1.7,0.5,2.5c0.3,0.7,0.7,1.3,1.2,1.9c0.5,0.5,1.1,0.9,1.8,1.2c0.8,0.3,1.7,0.5,2.5,0.5C7.3,21,7.6,21,10.5,21
		c2.9,0,3.2,0,4.3-0.1c0.9,0,1.7-0.2,2.5-0.5c0.7-0.3,1.3-0.7,1.9-1.2c0.5-0.5,0.9-1.2,1.2-1.9c0.3-0.8,0.5-1.7,0.5-2.5
		c0.1-1.1,0.1-1.5,0.1-4.3c0-2.8,0-3.2-0.1-4.3c0-0.9-0.2-1.7-0.5-2.6C19.9,2.2,18.8,1.1,17.4,0.5z M19.1,14.8c0,0.7-0.1,1.3-0.4,2
		c-0.2,0.5-0.4,0.9-0.8,1.2c-0.3,0.3-0.8,0.6-1.2,0.8c-0.6,0.2-1.3,0.4-1.9,0.4c-1.1,0.1-1.4,0.1-4.2,0.1s-3.1,0-4.2-0.1
		c-0.7,0-1.4-0.1-2-0.4c-0.9-0.3-1.7-1.1-2-2c-0.2-0.6-0.3-1.3-0.3-2c-0.1-1.1-0.1-1.5-0.1-4.2s0-3.1,0.1-4.2c0-0.7,0.1-1.4,0.4-2
		c0.2-0.5,0.4-0.9,0.8-1.2c0.3-0.4,0.8-0.6,1.2-0.8c0.6-0.2,1.3-0.4,2-0.4c1,0,1.3-0.1,3.3-0.1l0,0h0.9c2.8,0,3.1,0,4.2,0.1
		c0.7,0,1.3,0.1,1.9,0.4c0.9,0.4,1.6,1.1,2,2c0.2,0.6,0.4,1.3,0.4,2c0,1.1,0.1,1.4,0.1,4.2S19.1,13.7,19.1,14.8z"/>
	<path class="st0" d="M10.5,5.1c-3,0-5.4,2.4-5.4,5.4h0c0,0,0,0,0,0c0,3,2.4,5.4,5.4,5.4c3,0,5.4-2.4,5.4-5.4
		C15.9,7.5,13.5,5.1,10.5,5.1z M10.5,14C8.6,14,7,12.5,7,10.5c0,0,0,0,0,0C7,8.6,8.6,7,10.5,7c1.9,0,3.5,1.6,3.5,3.5
		C14,12.4,12.5,14,10.5,14z"/>
</g>
</svg>
