<?xml version="1.0" encoding="utf-8"?>
<!-- Generator: Adobe Illustrator 21.0.2, SVG Export Plug-In . SVG Version: 6.00 Build 0)  -->
<svg version="1.1" id="Ebene_1" xmlns="http://www.w3.org/2000/svg" xmlns:xlink="http://www.w3.org/1999/xlink" x="0px" y="0px"
	 viewBox="0 0 320.1 21.1" style="enable-background:new 0 0 320.1 21.1;" xml:space="preserve">
<style type="text/css">
	.st0{fill:#1D1D1B;}
</style>
<g>
	<path class="st0" d="M0,4.4h10.8V7H2.9v4h7.5v2.6H2.9V18h8.3v2.6H0V4.4z"/>
	<path class="st0" d="M15.4,4.4H21c3.1,0,6.1,1,6.1,4.7c0,2.3-1.4,4.1-3.8,4.4l4.3,7.2h-3.5l-3.8-6.9h-2.1v6.9h-2.9V4.4z M20.5,11.3
		c1.6,0,3.5-0.1,3.5-2.2c0-1.9-1.8-2.2-3.3-2.2h-2.5v4.4H20.5z"/>
	<path class="st0" d="M31.2,4.4h3.8l7.9,12.1l0,0h0l0,0V4.4h2.9v16.2h-3.7l-8-12.5h0v12.5h-2.9V4.4z"/>
	<path class="st0" d="M58.8,7.9C58.2,7,57.1,6.6,56,6.6c-1.3,0-2.7,0.6-2.7,2.1c0,3.3,7.7,1.4,7.7,7.2c0,3.5-2.8,5.2-5.9,5.2
		c-2,0-4-0.6-5.3-2.2l2.2-2.1c0.7,1.1,1.9,1.7,3.2,1.7c1.3,0,2.8-0.7,2.8-2.2c0-3.6-7.7-1.5-7.7-7.3c0-3.4,3-4.9,6-4.9
		C58,4,59.7,4.5,61,5.7L58.8,7.9z"/>
	<path class="st0" d="M68.8,7h-5V4.4h12.9V7h-5v13.6h-2.9V7z"/>
	<path class="st0" d="M102.6,19.5c-2,1.1-4.2,1.6-6.7,1.6c-5,0-8.6-3.4-8.6-8.5c0-5.2,3.6-8.6,8.6-8.6c2.5,0,4.7,0.5,6.4,2l-2.1,2.2
		c-1-1-2.6-1.6-4.2-1.6c-3.4,0-5.6,2.6-5.6,5.8c0,3.5,2.2,6,5.6,6c1.5,0,2.8-0.3,3.8-0.8v-3.8h-3.3v-2.6h6.2V19.5z"/>
	<path class="st0" d="M115.1,4c5.1-0.1,8.7,3.3,8.7,8.5c0,5.1-3.6,8.5-8.7,8.6c-5,0-8.6-3.4-8.6-8.5C106.5,7.4,110.1,4,115.1,4z
		 M115.1,18.5c3.4,0,5.6-2.6,5.6-6c0-3.2-2.2-5.8-5.6-5.8c-3.4,0-5.6,2.6-5.6,5.8C109.5,15.9,111.8,18.5,115.1,18.5z M112.7,0
		c1,0,1.8,0.7,1.8,1.7c0,0.9-0.8,1.7-1.8,1.7c-1,0-1.7-0.8-1.7-1.7C111,0.8,111.7,0,112.7,0z M117.5,0c1,0,1.8,0.7,1.8,1.7
		c0,0.9-0.8,1.7-1.8,1.7c-1,0-1.7-0.8-1.7-1.7C115.7,0.8,116.5,0,117.5,0z"/>
	<path class="st0" d="M127.9,4.4h2.9v6.5h7.6V4.4h2.9v16.2h-2.9v-7.2h-7.6v7.2h-2.9V4.4z"/>
	<path class="st0" d="M146.2,4.4h3.8l7.9,12.1l0,0h0l0,0V4.4h2.9v16.2h-3.7l-8-12.5h0v12.5h-2.9V4.4z"/>
	<path class="st0" d="M165.9,4.4h10.8V7h-7.9v4h7.5v2.6h-7.5V18h8.3v2.6h-11.2V4.4z"/>
	<path class="st0" d="M181.3,4.4h5.6c3.1,0,6.1,1,6.1,4.7c0,2.3-1.4,4.1-3.8,4.4l4.3,7.2h-3.5l-3.8-6.9h-2.1v6.9h-2.9V4.4z
		 M186.4,11.3c1.6,0,3.5-0.1,3.5-2.2c0-1.9-1.8-2.2-3.3-2.2h-2.5v4.4H186.4z"/>
	<path class="st0" d="M206.1,17.6c0.8,1.4,2.1,2,3.7,2c2,0,3.6-1.2,3.6-3.2c0-4.5-8.4-1.9-8.4-8.1c0-2.9,2.5-4.5,5.2-4.5
		c1.8,0,3.3,0.6,4.4,2L213.5,7c-0.8-1.1-1.8-1.6-3.2-1.6c-2,0-3.6,1-3.6,3.1c0,4.9,8.4,2,8.4,8.1c0,2.9-2.4,4.6-5,4.6
		c-2.1,0-4-0.7-5.3-2.5L206.1,17.6z"/>
	<path class="st0" d="M223.4,5.8h-5.6V4.4h12.6v1.4H225v14.9h-1.5V5.8z"/>
	<path class="st0" d="M234.4,4.4h1.5v16.2h-1.5V4.4z"/>
	<path class="st0" d="M241.7,4.4h9.7v1.4h-8.2v5.8h7.6v1.4h-7.6v7.7h-1.5V4.4z"/>
	<path class="st0" d="M259.5,5.8h-5.6V4.4h12.6v1.4H261v14.9h-1.5V5.8z"/>
	<path class="st0" d="M282,14.4c0,3.5-1.5,6.6-5.9,6.6c-4.4,0-5.9-3.2-5.9-6.6v-10h1.5V14c0,2.3,0.6,5.6,4.4,5.6
		c3.8,0,4.4-3.3,4.4-5.6V4.4h1.5V14.4z"/>
	<path class="st0" d="M287.5,4.4h2l9.9,14.2h0V4.4h1.5v16.2h-2l-9.9-14.2h0v14.2h-1.5V4.4z"/>
	<path class="st0" d="M320.1,19.6c-1.9,1.1-3.9,1.5-6.1,1.5c-5,0-8.4-3.6-8.4-8.5c0-5,3.4-8.5,8.4-8.5c2.4,0,4.4,0.7,5.9,2.2
		l-1.1,1.1c-1-1.2-3-2-4.8-2c-4.2,0-6.9,3.1-6.9,7.2c0,4,2.6,7.2,6.9,7.2c1.7,0,3.3-0.2,4.5-1v-5.5h-3.9v-1.4h5.4V19.6z"/>
</g>
</svg>
