<svg xmlns="http://www.w3.org/2000/svg" id="logosvg" viewBox="0 0 74.99 74.99"><g id="Layer_2" data-name="Layer 2"><g id="HEADER"><path d="M37.49,40.59a3.1,3.1,0,1,1,3.1-3.1A3.11,3.11,0,0,1,37.49,40.59Zm0-6a2.87,2.87,0,1,0,2.87,2.87A2.88,2.88,0,0,0,37.49,34.62Z"/><path d="M37.49,42.16a4.67,4.67,0,1,1,4.67-4.67A4.67,4.67,0,0,1,37.49,42.16Zm0-9.1a4.44,4.44,0,1,0,4.44,4.43A4.44,4.44,0,0,0,37.49,33.06Z"/><path d="M37.49,43.72a6.23,6.23,0,1,1,6.23-6.23A6.23,6.23,0,0,1,37.49,43.72Zm0-12.22a6,6,0,1,0,6,6A6,6,0,0,0,37.49,31.5Z"/><path d="M37.49,45.28a7.79,7.79,0,1,1,7.79-7.79A7.8,7.8,0,0,1,37.49,45.28Zm0-15.35a7.56,7.56,0,1,0,7.56,7.56A7.58,7.58,0,0,0,37.49,29.93Z"/><path d="M37.49,46.85a9.36,9.36,0,1,1,9.36-9.36A9.37,9.37,0,0,1,37.49,46.85Zm0-18.48a9.13,9.13,0,1,0,9.13,9.12A9.13,9.13,0,0,0,37.49,28.37Z"/><path d="M37.49,48.41a10.85,10.85,0,0,1-6.29-2l-.12-.09L31,46.23l-.12-.1L30.71,46l-.13-.1-.12-.1a1.14,1.14,0,0,0-.11-.11l-.12-.1a1.14,1.14,0,0,1-.11-.11l-.12-.1-.11-.11-.11-.11-.11-.11L29.56,45l-.1-.11-.11-.12-.1-.11-.1-.12-.1-.12-.1-.12-.09-.12-.1-.12a10.92,10.92,0,1,1,8.73,4.37Zm0-21.6a10.68,10.68,0,0,0-8.37,17.31l.09.12.1.12.1.12.11.12.1.11a.57.57,0,0,0,.11.11l.1.11.11.11.11.11.11.11.12.11.11.1.12.1.12.1.12.1.12.1L31,46a10.68,10.68,0,1,0,6.5-19.16Z"/><path d="M37.49,50a12.43,12.43,0,0,1-6.2-1.65l-.14-.08L31,48.16l-.13-.09L30.75,48l-.12-.09-.13-.1-.12-.1-.12-.11-.11-.11L30,47.36l-.11-.11-.11-.12L29.7,47l-.11-.12-.12-.11a.57.57,0,0,0-.11-.11l-.11-.12-.11-.11L29,46.34l-.12-.11-.11-.1L28.68,46l-.11-.1-.12-.1-.11-.11-.12-.1-.11-.1L28,45.4l-.11-.1-.11-.1a.57.57,0,0,0-.11-.11l-.1-.11-.1-.12-.1-.11a.64.64,0,0,1-.1-.13l-.09-.12-.09-.13L27,44.24A12.47,12.47,0,0,1,44.25,27l.17.11.17.12.17.11.17.12.16.13.16.12.16.13.16.13.15.14.15.13.15.14.15.14.14.14.15.15.14.15.14.15.13.15.14.15a1,1,0,0,0,.13.16l.12.16a1.83,1.83,0,0,1,.13.16l.12.16.12.17.12.16.12.17c0,.06.07.12.11.17l.11.18.11.17A12.48,12.48,0,0,1,37.49,50Zm0-24.73A12.24,12.24,0,0,0,27.17,44.08l.08.13.09.13.09.13.09.12.1.12.1.12.1.11.1.11.11.11.11.11.11.1.12.11.11.1.11.1.12.11.11.1.11.11.12.11.11.11.11.11.12.11.11.11.11.11.11.11.11.12L30,47l.11.11.11.11.12.11.12.1.12.1.13.1.12.1.13.09.14.08.13.09.14.08a12.25,12.25,0,0,0,16.61-17c0-.06-.07-.12-.11-.17a1.74,1.74,0,0,1-.11-.18l-.12-.17-.12-.16-.12-.17-.12-.16a1,1,0,0,0-.13-.16L47,29.75l-.14-.16a1.83,1.83,0,0,0-.13-.16l-.13-.15-.14-.15L46.3,29l-.15-.14L46,28.69l-.15-.14-.15-.14-.16-.13-.15-.14L45.24,28l-.16-.13-.16-.12-.16-.12-.17-.13-.17-.11A12.17,12.17,0,0,0,37.49,25.24Z"/><path d="M37.49,51.54a13.93,13.93,0,0,1-6.81-1.77l-.13-.07-.14-.08-.13-.09-.13-.09-.12-.1-.12-.11-.11-.12L29.75,49,29.7,49l-.05-.07,0-.07-.05-.07-.05-.07-.05-.08-.05-.07,0-.07,0-.08,0-.07-.05-.08-.05-.07,0-.07L29.07,48,29,48l-.09-.14a1.47,1.47,0,0,1-.1-.13l-.1-.12a9553287441421.85,9553287441421.85,0,0,1-.2-.22l-.11-.11-.11-.09a.87.87,0,0,0-.11-.09L28.08,47,28,46.9l-.13-.07-.13-.07-.13-.07-.14-.07-.07,0-.07,0-.07,0-.07,0-.07,0-.06,0-.07,0-.07,0-.07,0-.06,0-.12-.1a.4.4,0,0,1-.12-.1l-.12-.1-.11-.1-.1-.11-.11-.11L26,45.5l-.1-.13-.08-.13a13.91,13.91,0,0,1-2.34-7.75,14,14,0,0,1,21-12.19l.18.11.18.1.17.12.18.11.17.12.08.06.09.06.08.07.08.07.08.06.08.07.08.07.08.07.08.08.08.07.07.07.08.08.08.07.07.07.08.08.07.07.08.08.07.07.15.15.15.15.15.14.14.15.15.14.15.15.14.14.15.14.14.14.14.15.14.14.14.14.14.15.13.15.13.16.12.16.12.17.12.17a1.74,1.74,0,0,1,.11.18,1,1,0,0,1,.11.17,1.74,1.74,0,0,1,.11.18l.11.18.1.18.1.19a14,14,0,0,1-12.4,20.64Zm0-27.86A13.8,13.8,0,0,0,26,45.08a.57.57,0,0,0,.08.13,1.13,1.13,0,0,0,.1.13l.09.11.1.12.11.11.11.1a.52.52,0,0,0,.11.1l.12.1.11.1.13.09.12.09.13.08.13.08.13.07.14.08.13.07.13.08.12.08.12.09.12.08.12.1.11.1.11.1.1.11.11.12a18370522800988,18370522800988,0,0,0,.2.26l.05.06.05.07.05.07,0,.07.05.07,0,.07.05.07.05.07.05.07.05.07,0,.07.05.07.05.07.05.06.11.13L30,49l.12.11.12.1.12.09.13.09.13.08.14.08.14.08a13.69,13.69,0,0,0,6.64,1.71A13.81,13.81,0,0,0,49.69,31a1.74,1.74,0,0,1-.1-.19l-.1-.17-.11-.18-.1-.18-.11-.17L49.06,30l-.12-.17a1,1,0,0,0-.11-.17l-.12-.17-.13-.15a1.83,1.83,0,0,0-.13-.16L48.32,29l-.13-.14-.14-.15-.14-.14-.14-.14-.14-.14-.14-.14L47.35,28l-.15-.14-.14-.14-.15-.15-.15-.14-.14-.15-.15-.14L46.32,27l-.15-.15L46,26.69l-.16-.14-.16-.13-.16-.13-.16-.13L45.21,26,45,25.93l-.17-.11-.17-.11-.18-.11-.18-.1A13.71,13.71,0,0,0,37.49,23.68Z"/><path d="M37.49,53.1A15.6,15.6,0,0,1,30,51.18l-.14-.08L29.72,51l-.07,0-.06,0-.07-.06-.06,0-.06-.06-.06-.06-.06-.07a.18.18,0,0,1-.05-.07l-.06-.07-.05-.07a.56.56,0,0,0-.05-.08.56.56,0,0,0-.05-.08.56.56,0,0,0-.05-.08l0-.09a.59.59,0,0,1,0-.08l0-.08,0-.09,0-.08,0-.08,0-.09,0-.08,0-.08,0-.08,0-.08-.06-.16L28.46,49a.58.58,0,0,0-.05-.14l-.06-.14a.69.69,0,0,0-.05-.13l-.06-.13-.06-.11a.75.75,0,0,0-.07-.12.61.61,0,0,0-.07-.1A.39.39,0,0,0,28,48l-.08-.09-.09-.08-.11-.07a.41.41,0,0,0-.11-.07l-.13-.06-.14,0-.07,0-.08,0-.08,0-.08,0-.09,0h-.09l-.09,0h-.1l-.09,0h-.1l-.1,0h-.1l-.1,0-.09,0-.1,0-.1,0-.09,0-.1,0-.09,0-.09,0-.08-.06-.08,0L25.23,47l-.07-.06-.07-.07L25,46.76,25,46.69l-.06-.07-.06-.07-.06-.07-.05-.06,0-.07-.05-.07-.05-.06-.05-.07-.05-.07L24.38,46l-.08-.13a15.6,15.6,0,0,1,20.76-22l.18.1.18.11.18.11.17.13.08.06.08.07a.6.6,0,0,1,.08.08l.08.07.08.08.07.08.07.08.07.09.08.09.07.09.06.09.07.09.07.09.07.09.07.09.06.09.07.1.07.09.07.09.06.09a.27.27,0,0,1,.07.08l.07.09.07.08.07.09.07.08.07.08.07.08.08.08a.93.93,0,0,0,.14.14l.15.14.15.14.16.12.15.12.16.12.16.11.16.11.16.11.16.1a.91.91,0,0,0,.16.11l.15.12.15.11.15.13.14.13.13.14.14.14.13.15.12.15.12.16.11.17a1.74,1.74,0,0,1,.11.18l.11.18a1.62,1.62,0,0,0,.1.18l.1.19a1.62,1.62,0,0,0,.1.18A15.61,15.61,0,0,1,37.49,53.1Zm0-31A15.37,15.37,0,0,0,24.55,45.79l.09.13.09.13.05.07,0,.07.05.06.05.07.05.07.06.06.06.07.06.07.06.06a.46.46,0,0,1,.07.07l.07.06.08.06.07.06.08.05.09,0,.08,0,.09,0,.09,0,.09,0,.1,0,.09,0,.1,0,.09,0,.09,0,.1,0h.09l.09,0,.09,0H27l.09,0,.08,0,.08,0,.07,0,.08,0,.14.05.13.06.12.07.1.07.1.08.09.09a.39.39,0,0,1,.08.1l.08.1.07.11.07.12.06.12.06.13.06.13a1,1,0,0,0,.07.15l.06.15,0,.07,0,.08,0,.08,0,.08,0,.09,0,.08,0,.08,0,.09a.59.59,0,0,1,0,.08.2.2,0,0,0,0,.08l0,.09,0,.08.05.08.05.09,0,.07a.56.56,0,0,0,.05.08l.05.07.06.07.05.07.06.06.06.06.06.06.07.05.06,0,.14.09.13.08A15.38,15.38,0,0,0,52.87,37.49a15.22,15.22,0,0,0-1.8-7.2,1.14,1.14,0,0,0-.1-.19,1.62,1.62,0,0,0-.1-.18l-.1-.18-.11-.18-.11-.18-.12-.16-.12-.16a.93.93,0,0,0-.13-.15l-.13-.15-.13-.14a1.85,1.85,0,0,1-.14-.14.86.86,0,0,1-.14-.13l-.15-.12-.15-.12L49.18,28,49,27.87l-.16-.11-.15-.11-.16-.12-.16-.12-.15-.13-.16-.13L47.94,27l-.15-.15a.93.93,0,0,1-.14-.14l-.08-.08-.07-.08-.07-.08-.07-.08-.07-.08-.07-.09-.07-.08-.07-.09L47,26l-.07-.09-.07-.08-.07-.09-.06-.09-.07-.09-.07-.09-.07-.09-.07-.08-.08-.09a.27.27,0,0,0-.07-.08L46.24,25l-.08-.08-.07-.08L46,24.79l-.08-.07-.08-.07-.08-.07-.08-.07-.09-.06-.17-.12-.18-.11-.18-.1L44.89,24A15.41,15.41,0,0,0,37.49,22.12Z"/><path d="M37.49,54.66a17,17,0,0,1-8.38-2.19L29,52.39l-.13-.08-.07-.05-.06,0-.07-.05-.06,0-.06-.06L28.46,52l-.06-.06-.06-.06-.06-.06-.06-.07-.06-.06-.05-.08-.05-.07a.35.35,0,0,1,0-.08.56.56,0,0,0-.05-.08l0-.09a16599017344282.43,16599017344282.43,0,0,1-.08-.18l0-.1a.42.42,0,0,1,0-.1.36.36,0,0,0,0-.1l0-.1a.36.36,0,0,0,0-.1s0-.07,0-.1,0-.07,0-.1a.34.34,0,0,0,0-.1v-.7a.78.78,0,0,0,0-.16.59.59,0,0,0,0-.14l0-.13a.5.5,0,0,0,0-.13.49.49,0,0,0,0-.11l-.05-.1a.27.27,0,0,0-.07-.08l-.07-.08-.09-.06-.1,0a.27.27,0,0,0-.12,0l-.13,0H25.25l-.11,0-.11,0-.11,0-.11,0-.11,0-.11,0-.1-.07-.1-.07-.09-.08-.09-.07L24.12,48,24,47.93,24,47.86l-.08-.08-.07-.07-.07-.08a.23.23,0,0,1-.07-.07l-.06-.07-.06-.06-.05-.07-.06-.07-.05-.06-.05-.07,0-.07L23.23,47,23.18,47l-.09-.14L23,46.69A17.16,17.16,0,0,1,45.85,22.5l.18.1.18.12.08.06.08.07.08.08.08.08.07.08.08.09.07.09.06.1.07.1.06.1.06.11.06.11.06.12.05.11.06.12.05.11.06.12,0,.12,0,.11.06.12,0,.12.06.11,0,.11.06.11.06.11.06.1.06.1.06.1.06.1.07.09.06.09.07.08.07.08.07.08.15.15.16.13a.91.91,0,0,0,.16.11l.17.11.17.09.18.08.18.07.18.07.18.06.19.06.18.06.18.07.18.07.17.07.16.08.16.1.16.1.15.11.14.12a1.85,1.85,0,0,0,.14.14l.12.15.13.16.11.16a1.74,1.74,0,0,1,.11.18,1.74,1.74,0,0,1,.11.18s.07.11.11.17a17.18,17.18,0,0,1-14.9,25.71Zm0-34.11a16.93,16.93,0,0,0-14.32,26l.09.13.09.14,0,.06.05.07.06.07.05.06.05.07.06.07.05.07.06.06.06.07a.23.23,0,0,0,.07.07l.06.07.08.08.08.07.08.07.08.08.09.08.09.07.09.08.1.06.1.06.11.06.11,0,.11,0,.12,0,.11,0,.12,0h1.38l.14,0,.12,0,.11,0,.1.05.09.06.07.08.06.09.06.1s0,.07,0,.11a.56.56,0,0,1,0,.12l0,.13,0,.15a.68.68,0,0,1,0,.15V50l0,.1v.09s0,.07,0,.1,0,.07,0,.1,0,.07,0,.1,0,.07,0,.1l0,.1,0,.09,0,.1L28,51l0,.09s0,.05,0,.08a.59.59,0,0,1,0,.08.35.35,0,0,1,.05.08l0,.07.05.07.06.07.05.06.06.07.06.06.06.07.06.06.06.06.06,0,.07.06.06,0,.06.05.07,0,.13.08.14.08a16.94,16.94,0,0,0,23-23.17l-.1-.18L52,28.77a1,1,0,0,0-.11-.17l-.12-.17-.12-.16-.12-.15L51.4,28l-.14-.13-.14-.12-.16-.1-.16-.1-.16-.09-.17-.08-.17-.07-.18-.08L50,27.15l-.18-.07L49.59,27l-.18-.08-.18-.08-.18-.09-.17-.09-.16-.11-.16-.12-.15-.14-.15-.14-.07-.08L48.12,26a.27.27,0,0,1-.07-.08L48,25.82l-.06-.09-.07-.1-.06-.1-.06-.1-.06-.1-.06-.11-.06-.1,0-.11-.06-.11-.06-.12-.05-.11-.06-.11-.06-.12-.05-.11-.06-.11L47,24.11,47,24l-.06-.11-.06-.11-.07-.1-.06-.1-.07-.09-.07-.09-.07-.09-.08-.09-.07-.08-.08-.07L46.21,23,46,22.87l-.18-.1-.18-.11A16.91,16.91,0,0,0,37.49,20.55Z"/><path d="M37.49,56.23a18.65,18.65,0,0,1-9.76-2.75l-.14-.09-.06,0-.07-.06-.07-.05-.06-.06-.07-.07a.46.46,0,0,0-.07-.07L27.13,53l-.06-.08L27,52.78l-.07-.09-.05-.09-.06-.1,0-.1-.05-.1,0-.09,0-.1,0-.1,0-.09,0-.09,0-.09a.29.29,0,0,0,0-.09s0-.06,0-.08l0-.09,0-.08,0-.08v-.08l0-.08v-.07l0-.07v-.08l0-.13,0-.14s0-.08,0-.12,0-.08,0-.12l-.05-.11a.61.61,0,0,0-.07-.1L26,50.14l-.09-.07-.11,0-.12,0-.14,0H24.37l-.1,0h-.1l-.09,0-.1,0-.09,0-.09,0-.09,0-.09,0-.08,0-.09,0-.08-.05-.08-.06-.08-.05-.08-.07-.07-.06L23,49.23l-.07-.07-.06-.07L22.78,49l-.07-.07-.06-.07-.06-.07-.06-.07-.06-.07-.06-.07-.05-.07-.05-.07,0-.07-.05-.06-.09-.13A18.73,18.73,0,0,1,46.46,21.05l.18.1.18.11a.66.66,0,0,1,.17.12.27.27,0,0,1,.08.07l.08.07.08.08.07.08.07.09.07.1.06.1.06.1.06.12.05.11a.61.61,0,0,1,0,.12.69.69,0,0,1,.05.13s0,.08,0,.13,0,.08,0,.13l0,.13s0,.09,0,.14,0,.09,0,.14l0,.14,0,.13,0,.14,0,.14a.74.74,0,0,1,0,.14s0,.09,0,.13,0,.09,0,.13,0,.09.05.13,0,.09,0,.13a.61.61,0,0,1,0,.12l0,.12a.61.61,0,0,1,.05.12l.06.11.06.1.06.1.06.1.06.09.07.08.07.08.15.14.17.12.17.1.18.07.19.06.2,0,.2,0,.21,0,.21,0,.21,0,.21,0,.21,0,.2,0,.2,0,.19,0,.19.06.17.07.17.08.15.11.15.12.13.14L53,27l.12.16a1.74,1.74,0,0,1,.11.18,18.56,18.56,0,0,1,3,10.2A18.77,18.77,0,0,1,37.49,56.23Zm0-37.24A18.5,18.5,0,0,0,22.2,47.9l.09.13.09.13.05.06.05.07.05.07.06.07.06.07.06.07.06.07.06.07.07.08.07.07.07.07.07.08.07.07.08.08.08.06.09.07.08.06.09,0,.09.05.09,0,.09,0,.09,0,.09,0,.1,0,.1,0,.1,0h1.51l.14,0,.12,0,.1,0,.08.07.07.09.06.1s0,.08,0,.12l0,.12,0,.13a.59.59,0,0,0,0,.14s0,.1,0,.15v.15l0,.08v.24l0,.09a.19.19,0,0,0,0,.08s0,.06,0,.09l0,.09a.44.44,0,0,0,0,.1.29.29,0,0,1,0,.09l0,.1,0,.09a1953683778731.81,1953683778731.81,0,0,0,.08.2s0,.07,0,.11l.05.1,0,.1.06.09.06.09.06.09.06.09.06.07.06.08.07.06.06.07.07,0a.18.18,0,0,0,.07.05l.06,0,.14.08A18.49,18.49,0,0,0,53.14,27.63a1.63,1.63,0,0,0-.11-.17,1,1,0,0,0-.11-.17l-.12-.17L52.67,27l-.14-.13-.14-.12a.91.91,0,0,0-.16-.11l-.16-.09-.18-.07-.18-.05-.19,0-.2,0-.2,0-.21,0-.2,0-.21,0-.21,0-.2,0-.2,0-.19-.05L49.51,26l-.18-.08-.17-.1L49,25.69l-.15-.14-.07-.08-.07-.09-.06-.09-.07-.09-.06-.11a.31.31,0,0,1-.05-.1l-.06-.11a.61.61,0,0,1,0-.12.37.37,0,0,1,0-.11.69.69,0,0,1-.05-.13l0-.12s0-.09-.05-.13l0-.13c0-.05,0-.09,0-.13s0-.09,0-.14l0-.13-.05-.14,0-.14,0-.13,0-.14,0-.13s0-.09-.05-.13,0-.09,0-.13a1.12,1.12,0,0,1,0-.13l-.06-.12a.61.61,0,0,0,0-.12l-.06-.12-.05-.11-.07-.1-.06-.1-.07-.09-.07-.09a.6.6,0,0,1-.08-.08L47,21.67l-.17-.14-.17-.11-.18-.11-.19-.1A18.46,18.46,0,0,0,37.49,19Z"/><path d="M37.49,57.79a20.2,20.2,0,0,1-10.77-3.1l-.14-.09-.13-.09-.07,0-.06-.05-.07,0-.06-.06-.07-.06-.06-.06L26,54.11l-.06-.06L25.86,54l-.06-.06-.07-.07-.06-.07-.07-.07-.06-.08-.06-.07-.06-.07-.07-.07-.05-.06-.06-.07-.06-.07-.06-.06-.06-.07L25,53,25,53l-.11-.12-.1-.11-.11-.11-.1-.11-.11-.1-.1-.1-.1-.09-.11-.09-.1-.08L23.9,52l-.11-.08-.11-.07-.12-.08-.11-.06-.06,0-.06,0-.06,0-.06,0-.06,0-.06,0-.06,0-.06,0-.07,0-.06,0-.06,0-.06,0-.06,0-.06,0-.06,0-.06-.05-.06,0L22.36,51l-.06-.06-.06-.06-.06-.06-.05-.07-.06-.06L22,50.59,22,50.53l-.06-.07-.06-.06-.05-.07-.05-.06-.06-.07-.05-.06-.05-.06a1.47,1.47,0,0,0-.1-.13l-.1-.12a20.29,20.29,0,0,1,25.8-30.17l.19.1.18.11.18.11.17.12.16.14.08.07.07.08.07.09a.27.27,0,0,1,.07.08l.07.09a.86.86,0,0,0,.07.1l.06.1.06.1.06.11.06.1.06.12a.54.54,0,0,1,.05.11.5.5,0,0,1,0,.13.61.61,0,0,1,0,.12.69.69,0,0,1,.05.13s0,.09,0,.13,0,.09,0,.14,0,.09.05.13l0,.14,0,.14,0,.13,0,.14a.74.74,0,0,0,0,.14s0,.08,0,.13,0,.09,0,.13,0,.08,0,.13a3067462915842.73,3067462915842.73,0,0,1,.1.24l.05.11.06.11.06.1.06.1.07.09.07.08.15.14.17.11a.76.76,0,0,0,.18.09l.19.07.2.05.21,0h.1l.11,0h.86l.21,0,.21,0,.2,0,.19.06.18.07.17.09.17.1.15.13.14.14.13.15.12.17a20.29,20.29,0,0,1-16.5,32.11Zm0-40.36a20.06,20.06,0,0,0-16,32.11.64.64,0,0,1,.1.13l.1.12.05.07.05.06.05.07.06.06.05.07.06.06.05.07.06.07.06.06.05.07.06.07.06.06.06.06.06.06.06,0,.06,0a.18.18,0,0,0,.07.05l.06,0,.06,0,.06,0,.07,0,.06,0,.06,0,.07,0,.06,0,.06,0,.07,0,.06,0,.06,0,.07,0,.06,0,.06,0,.06,0,.06,0,.13.07.11.07.12.07.11.08.1.08.11.09.09.09.1.09.09.1.1.1.09.1a.52.52,0,0,0,.1.11l.09.12.05.06.06.06.05.07.06.06.05.07.06.06,0,.07.06.07.06.07.06.07.06.07.06.08.07.07.06.08.06.07.07.07.06.07.07.07.06.07.07.07.06.06.07.06.06.06.07.06.07.06.06.05.07,0,.06,0,.14.09A20.05,20.05,0,0,0,53.92,26c0-.06-.07-.12-.11-.17l-.13-.17-.13-.15-.14-.13-.16-.11-.17-.09-.17-.07a.7.7,0,0,0-.19-.06L52.53,25l-.21,0-.2,0-.21,0H51l-.21,0-.2,0-.2,0-.19-.07a.56.56,0,0,1-.17-.09l-.17-.11-.15-.14-.07-.09-.06-.08a.86.86,0,0,0-.07-.1.47.47,0,0,1,0-.1l-.06-.11a.54.54,0,0,1,0-.11.61.61,0,0,1,0-.12.5.5,0,0,1-.05-.13l0-.12c0-.05,0-.09,0-.13l-.05-.14a.65.65,0,0,0,0-.13.57.57,0,0,0,0-.14l0-.14,0-.14,0-.14c0-.05,0-.09,0-.14s0-.09,0-.14a.65.65,0,0,1,0-.13c0-.05,0-.09,0-.13s0-.09,0-.13a1.12,1.12,0,0,1-.05-.13l0-.12a.61.61,0,0,1,0-.12l-.06-.11-.06-.11-.06-.1-.06-.1-.06-.1-.07-.09-.07-.09-.07-.09L48,20.52l-.07-.08-.16-.14-.17-.12-.18-.11a1,1,0,0,0-.17-.1l-.19-.11A20,20,0,0,0,37.49,17.43Z"/><path d="M37.49,59.35a21.76,21.76,0,0,1-13.3-4.52l-.13-.1-.12-.1-.13-.1-.12-.1-.12-.1-.13-.1-.12-.11L23.2,54l-.12-.1L23,53.81l-.12-.1-.12-.11-.12-.11-.11-.1-.12-.11-.11-.11-.11-.11L22,52.94l-.11-.11-.11-.11-.11-.12A21.85,21.85,0,0,1,48.34,18.52l.18.1.18.11.17.11.18.12.16.12.16.14a1.07,1.07,0,0,1,.16.14l.16.14.07.08.08.07.07.08.07.08.07.09.07.08.07.09.07.09.07.09.06.09.07.09.06.09.07.09.07.1.06.09.07.09.07.09.06.09.07.08.07.09.07.08.07.09.07.08.07.08.15.15.16.14.15.13.17.12.16.11.18.11.17.1.17.09.18.1.18.09.17.09.18.1.17.1.17.11.16.11.16.12.15.13.15.14.14.14.14.15c0,.06.09.11.13.16l.13.17A21.85,21.85,0,0,1,37.49,59.35Zm0-43.49A21.62,21.62,0,0,0,21.55,52.1l.11.11.11.12.1.11.12.12.11.11.11.11.11.11.12.12.11.1.11.11.12.1.12.1a.52.52,0,0,0,.11.1l.12.1.12.1.12.11.12.1.12.1.12.1.12.11.12.1.13.1.06.06.06,0,.13.1.12.1.13.1.13.1.13.09a21.62,21.62,0,0,0,30-30.48l-.12-.17a1.83,1.83,0,0,1-.13-.16l-.14-.15a1,1,0,0,0-.14-.15.93.93,0,0,0-.14-.14L54,23.66l-.16-.12-.17-.11-.17-.11-.17-.09-.18-.09L53,23.05,52.79,23l-.18-.08-.18-.09-.18-.08-.18-.09-.18-.1-.17-.11-.16-.12-.16-.13L51.25,22,51.17,22l-.07-.08a.27.27,0,0,0-.07-.08L51,21.7l-.07-.09-.06-.09-.07-.09-.06-.09-.07-.09-.06-.1-.07-.09-.06-.1-.06-.1-.07-.1-.06-.09-.06-.1-.07-.1-.06-.09L50,20.29l-.06-.1-.07-.09L49.79,20l-.07-.08-.07-.09-.07-.08-.08-.08-.07-.08-.08-.07-.15-.14L49,19.25l-.17-.13L48.7,19l-.18-.11-.18-.1A21.48,21.48,0,0,0,37.49,15.86Z"/><path d="M37.49,60.92A23.41,23.41,0,0,1,20.4,21.5l.1-.12a.57.57,0,0,0,.11-.11l.11-.11.11-.11.11-.11a9630181223062.83,9630181223062.83,0,0,1,.22-.22l.11-.11.11-.1.12-.11.11-.11.12-.11.11-.1L22,20l.12-.1.12-.11.12-.1.12-.1.12-.1.12-.09.13-.1.12-.1.12-.09.13-.1.12-.1.13-.09.13-.1.13-.1.13-.09.12-.1.14-.09.13-.1.13-.09.13-.09.13-.09.14-.08.13-.09.13-.08a23.37,23.37,0,0,1,25.19.13l.18.11.17.12.17.11.17.12.17.13.16.13.16.13.16.13.16.13.16.14.16.14.15.13.16.14.15.14.16.14.15.14.16.13.15.14.16.14.15.13.16.14.15.13.16.14L54,21l.15.14.15.14.15.14.15.14.14.15.14.15L55,22l.14.16c0,.05.09.1.13.16A23.41,23.41,0,0,1,37.49,60.92Zm0-46.62A23,23,0,0,0,24.9,18l-.13.08-.14.09-.13.09-.13.09-.13.09-.13.09-.13.09-.13.1-.13.09-.12.1-.13.09-.13.1-.12.1-.13.09-.12.1-.12.1-.12.1-.12.1-.12.1-.12.1-.12.1-.12.11-.12.1-.11.11-.12.11-.11.1-.12.11-.11.11-.11.11-.11.11-.12.11-.11.11-.1.11a23.19,23.19,0,1,0,34.4,1.31l-.14-.16s-.09-.1-.13-.16l-.14-.15L54.74,22l-.15-.14-.15-.15-.15-.14-.15-.13L54,21.31l-.15-.13L53.68,21l-.16-.13-.15-.13-.16-.14-.15-.13-.16-.14-.15-.14-.16-.13L52.44,20l-.16-.14-.15-.14L52,19.54l-.15-.14-.16-.14-.15-.14L51.35,19l-.16-.13L51,18.71l-.16-.13-.17-.13-.16-.12-.17-.12-.18-.12L50,18l-.18-.11A23,23,0,0,0,37.49,14.3Z"/><path d="M37.49,62.48a25,25,0,0,1-19.12-41l.1-.12.1-.11.1-.12.1-.11.1-.12.09-.11.1-.1.09-.11.09-.1.09-.09.1-.1.09-.09.09-.08.1-.09.09-.09.1-.08.1-.09.11-.08.1-.09.11-.08.11-.08.11-.09.12-.08.12-.08.12-.09L21,19l.13-.08.13-.09.13-.09.13-.09.14-.09.07-.05.06,0,.07-.05.07-.05.07-.05.07-.05.07,0,.07-.05.07-.05.07-.05.07-.05.07-.06.07-.05.06-.05.07-.06.07-.05.07-.06.06-.06.07-.05.07-.06.07-.06.06-.05.07-.06.07-.06.07-.06.06-.06.07-.07.07-.06.07-.06.07-.07.07-.06.07-.07.07-.06.07-.07.07-.06.07-.07.07-.06.07-.06.07-.06.07-.06.07-.06.07-.05.07-.05.07-.05.07,0,.07-.05.13-.08.14-.08A25,25,0,1,1,37.49,62.48Zm0-49.74A24.58,24.58,0,0,0,25.15,16l-.14.08-.14.08-.07.05-.07,0-.07.05-.07.05-.06.05a.18.18,0,0,0-.07,0l-.07.06-.07.05-.07.06-.07.06-.07.06-.07.06L24,16.9,23.9,17l-.07.06-.07.07-.07.06-.06.06-.07.06-.07.06-.07.06-.06.05-.07.06-.07.06-.06.05-.07.05-.07.06-.06.05-.07.06-.07.05-.06.05-.07.05-.07.06-.06.05-.07.05-.07.05-.07,0-.07.05-.07.05-.06.05-.07.05-.07,0-.07.05-.06.05-.14.09-.13.1-.13.09-.13.09-.13.09-.12.09-.13.09-.12.08-.11.09-.12.09-.11.09-.11.09-.1.08-.11.09-.1.09L20,20l-.1.09-.1.09-.09.09-.1.1-.09.1a.47.47,0,0,0-.1.1l-.09.1-.1.11-.1.11L19,21l-.1.11-.1.12-.11.12-.1.12a24.75,24.75,0,1,0,18.87-8.75Z"/><path d="M37.49,64A26.53,26.53,0,0,1,16,21.92l.18-.24.18-.24.18-.24.18-.23c.07-.07.13-.15.19-.22a2,2,0,0,1,.19-.22l.09-.11a.52.52,0,0,1,.1-.11l.09-.11.1-.1.09-.1.1-.1.09-.1.09-.09.09-.09.09-.08.08-.08.09-.07.08-.07.08-.06.09-.06.08-.06.08-.06.09,0,.08-.06.08,0,.09-.05.09-.06.08,0,.09-.06.09-.05.1,0,.09-.05.1-.05.1-.05.1-.05.11,0L20,18.3l.11-.05.12-.05.12-.05.12-.06.13-.05.13-.07.13-.07.07,0,.07,0,.07,0,.07,0,.07,0,.07-.05.07-.05.08,0,.07-.05.07-.06.08-.05.07-.06.08-.06.07-.06.08-.07.07-.07.08-.07.07-.07.08-.08a.27.27,0,0,0,.07-.08.6.6,0,0,0,.08-.08l.07-.08a.6.6,0,0,0,.08-.08.27.27,0,0,1,.07-.08l.07-.09.07-.09.07-.08.08-.09L23,16l.07-.08.07-.09.07-.09.07-.09.07-.09.08-.09.07-.09.07-.08.07-.09.07-.08.07-.09.07-.08.06-.07.07-.08a.46.46,0,0,0,.07-.07l.07-.07.07-.06.07-.06.06-.06.07-.06.07-.05.06-.05.07,0,.13-.09.14-.08.14-.07.13-.08A26.55,26.55,0,1,1,37.49,64Zm0-52.87a26.08,26.08,0,0,0-12.25,3l-.14.07-.13.07-.14.08-.13.08-.07,0-.07,0-.06.05-.07,0-.07.05-.06.06-.07.06-.07.07-.07.06-.06.07-.07.08-.07.07-.07.08-.07.08-.06.08-.07.08-.07.08-.07.09-.07.08-.07.09-.07.08L23.2,16l-.07.09-.07.08-.07.08-.07.08-.07.08-.07.08-.07.08-.07.08-.07.07-.07.08-.07.08-.08.07-.07.07-.07.07-.08.07-.07.06-.07.07-.08.06-.07.06-.07.05-.08.06-.07.05-.07.05-.07.05-.07,0-.07.05-.14.08-.14.08-.13.08-.13.07-.13.06-.13.06-.12.06-.12.05-.11.06-.11.05-.11.06-.11,0-.1.05-.1.05-.09.05-.1.06-.09.05-.09.05-.09.06-.09.06L19,19l-.09.06-.08,0-.09.06-.08.06-.08.06-.09.06-.08.07-.08.07-.09.07-.08.08-.09.08-.09.09-.08.09-.09.1-.1.1-.09.1-.09.1-.1.11-.09.11-.1.11-.18.22-.18.22-.19.23-.18.24-.18.24-.17.24a26.3,26.3,0,1,0,21.3-10.89Z"/><path d="M37.49,65.61a28.1,28.1,0,0,1-23-44.32l.18-.24.17-.24.18-.24.18-.23.18-.23.19-.21.18-.21.2-.19.19-.19.19-.18.19-.17.1-.08.09-.08.1-.08.09-.08.09-.08.09-.07.09-.07.09-.07.09-.07.08-.06.09-.06.09-.05.08-.05.09,0L17.9,18l.09,0,.09-.05.08,0,.09,0,.08-.05.09,0,.09-.06.09-.05.09,0,.1-.06.09,0,.1-.06.1-.05.1-.06.11,0,.11-.05.11,0,.11-.05.06,0,.05,0,.06,0,.06,0,.06,0,.06,0,.07,0,.06,0,.07,0,.06,0,.07,0,.07,0,.06,0,.07,0,.08,0,.07-.05.07-.05.08-.05.07-.06.08-.06.08-.07.07-.07a.27.27,0,0,0,.08-.07l.08-.08a.6.6,0,0,0,.08-.08l.08-.09.08-.09.09-.1a.86.86,0,0,0,.07-.1l.08-.1.08-.11a1,1,0,0,0,.08-.11l.07-.11.08-.11.08-.11.07-.11.08-.12.07-.11.08-.11.08-.11.07-.11.08-.1.07-.11.08-.1.07-.1.08-.09.07-.09.08-.09.07-.08.08-.07.07-.07.07-.07.07-.07.07-.06.08-.06.07,0a11945273900711.6,11945273900711.6,0,0,0,.14-.1l.06-.05.07,0,.14-.09.13-.08.14-.07.13-.07.14-.07.27-.14a27.86,27.86,0,0,1,12.58-3,28.12,28.12,0,1,1,0,56.23Zm0-56A27.79,27.79,0,0,0,24.74,12.7l-.13.07-.13.07-.14.07-.13.08-.13.09-.07,0-.07.05-.07.05a.18.18,0,0,1-.07,0l-.06.06-.07.06-.07.06-.07.06-.08.07a.46.46,0,0,1-.07.07l-.07.08-.07.08-.08.08-.07.09-.07.1-.08.09-.07.11-.08.1-.07.1-.08.11-.07.11-.08.11-.07.11-.08.11-.08.11-.07.11-.08.11-.07.11a1,1,0,0,1-.08.11l-.08.11-.08.1-.07.1a.39.39,0,0,0-.08.1l-.08.09-.09.08-.08.09-.08.07-.07.08a.27.27,0,0,0-.08.07l-.08.06-.08.06-.07.06-.08.05-.07.05-.07.05-.08.05-.07,0-.07,0-.06,0-.07,0-.07,0-.06,0-.07,0-.06,0-.06,0-.06,0-.06,0-.06,0-.12,0-.11,0-.11,0-.11,0-.1,0-.1,0-.1.05-.1.05-.09.05-.1.05-.09,0-.09.06-.09,0-.09,0-.08.05-.09,0-.08,0-.09,0-.08.05-.09,0-.08.05-.08,0-.09.06-.08.05-.08.06-.09.06-.09.07a.27.27,0,0,1-.08.07l-.09.08-.09.07-.09.08-.1.08-.09.08-.1.09-.09.08-.1.09-.19.18-.19.19-.19.2-.19.21-.18.21-.18.23-.18.23c-.06.07-.11.15-.17.23l-.18.24-.17.24A27.88,27.88,0,1,0,37.49,9.61Z"/><path d="M37.49,67.17A29.67,29.67,0,0,1,13.23,20.42l.18-.25.17-.24.18-.24.18-.23.19-.21.18-.21.19-.2.2-.18.18-.17.19-.17.19-.15.18-.15.18-.14.19-.13.19-.12.19-.12.18-.12a1.18,1.18,0,0,0,.19-.11l.1-.06.09-.06.1-.05.1-.06L17,17l.1-.06.1-.05.1-.05.1-.05.09-.05.1,0,.1,0,.1,0,.1-.05a.31.31,0,0,1,.1-.05l.1-.06.1-.05.1-.06.11-.07.11-.07.11-.08.12-.09.11-.09.12-.09.12-.09.07,0,.06-.05.06,0,.06,0,.07-.05.06,0,.06-.05.07,0,.06-.05.07-.05.07,0,.06-.05.07-.06.07-.06.07-.06.06-.07.07-.07.07-.07.07-.07.07-.08.06-.07.07-.09.07-.08.07-.09.07-.09.07-.09.07-.1.07-.1.07-.09.07-.1.07-.11.07-.1.07-.1.07-.11.07-.1.07-.11.08-.1a.86.86,0,0,0,.07-.1.86.86,0,0,0,.07-.1l.08-.09a.61.61,0,0,1,.07-.1l.07-.09.08-.08.07-.09.07-.08.07-.08.08-.07a.46.46,0,0,1,.07-.07l.07-.07.08-.07.07-.06.08-.06.07-.05.07-.06.08,0L23,11.6l.07,0,.07,0,.08,0,.07,0,.07,0,.07,0,.14-.08.14-.08a.61.61,0,0,0,.14-.07l.14-.06.28-.14.27-.13a29.68,29.68,0,1,1,23,54.61l-.29.11-.29.1-.29.09-.29.1-.15,0-.15,0-.15,0-.14,0-.15.05-.15,0-.15,0-.15,0-.14,0-.15,0-.15,0-.15,0-.15,0-.15,0-.15,0-.16,0-.15,0-.15,0-.15,0-.15,0-.16,0-.15,0-.15,0-.15,0-.16,0A29.78,29.78,0,0,1,37.49,67.17Zm0-59.12A29.19,29.19,0,0,0,24.67,11l-.27.13-.27.13-.28.14-.14.07-.14.07-.14.08-.07,0-.07,0-.07,0-.07,0a.18.18,0,0,0-.07.05l-.08.05-.07,0-.07.05-.07.06-.08.06-.07.06a.46.46,0,0,0-.07.07l-.08.07-.07.07-.07.08-.08.08-.07.08-.07.09-.08.09-.07.09a.86.86,0,0,0-.07.1l-.08.09-.07.11a.86.86,0,0,0-.07.1.61.61,0,0,0-.07.1l-.08.11-.07.1-.07.11-.07.1-.07.1-.07.1a.86.86,0,0,1-.07.1l-.07.1-.07.1-.07.09-.07.09-.07.09-.07.09-.06.08-.07.08-.07.08a.46.46,0,0,0-.07.07l-.07.07-.07.07-.07.06-.07.06-.07.06-.06.06-.07.05-.07.05-.06,0-.07.05-.06,0-.07.05-.06,0-.06,0-.06,0-.07,0-.06,0-.06,0-.12.08-.12.08-.11.08-.12.09-.11.08-.11.07-.1.07-.11.06-.1.06-.1.06-.1.05-.09,0-.1.05-.1.05-.09,0-.1.05-.09.05-.09.05a.31.31,0,0,0-.1,0l-.09.05-.1.06-.09,0-.1.06-.09.06-.09.06-.1.06-.09.06-.19.12-.19.12-.18.12L15.8,18l-.19.14-.18.15-.18.15-.19.17-.19.17-.19.19-.19.19-.18.21-.19.21-.17.23-.18.24-.17.24-.18.24A29.44,29.44,0,0,0,37.49,66.94a29,29,0,0,0,5.63-.54l.15,0,.15,0,.15,0,.15,0,.15,0,.15,0,.15,0,.15,0,.15,0,.15,0,.3-.08.29-.08.3-.08.29-.08.3-.09.29-.09.29-.09.28-.1.29-.1A29.45,29.45,0,0,0,37.49,8.05Z"/><path d="M37.49,68.73A31.22,31.22,0,0,1,12.11,19.3l.18-.24.18-.25.18-.23.18-.23.19-.21.19-.2.2-.19.19-.18a1.54,1.54,0,0,1,.19-.17l.19-.16.18-.15.18-.14.19-.12.19-.12.19-.11.19-.09a.66.66,0,0,1,.19-.09l.19-.08.2-.08.2-.07.2-.06.21-.07.2-.06.21-.07.21-.07.21-.07.22-.09.11,0,.11-.05.12-.06.11,0a.41.41,0,0,0,.11-.07l.12-.06.11-.07.12-.08.12-.09.12-.09.12-.1.06,0,.06-.06.06-.06.06-.06.07-.06.06-.06.06-.07.07-.06.06-.07.06-.07.07-.06.06-.07.07-.07.06-.08.07-.07.06-.07.07-.08.06-.08.07-.08.06-.08.07-.09L20,13.4l.06-.09.07-.09.07-.1.07-.09.06-.1.07-.1.07-.1.07-.1.07-.1.07-.1.07-.1.07-.1.07-.11L21,12l.07-.1.07-.1.07-.09a.86.86,0,0,1,.07-.1.36.36,0,0,0,.07-.1l.07-.09.08-.09.07-.09.07-.08.07-.09.07-.08a.27.27,0,0,0,.07-.08l.15-.15a1.85,1.85,0,0,1,.14-.14l.14-.14.15-.13a.86.86,0,0,1,.14-.13l.14-.12.14-.11L23,9.9l.14-.09.14-.09.14-.09.15-.07.14-.08.14-.07L24,9.34l.28-.13.27-.13a31.24,31.24,0,1,1,25.13,57.2l-.28.11-.28.12-.14,0-.15.06-.14,0-.15,0-.15,0-.14,0-.15,0-.15,0-.15,0-.15,0-.15.05-.15,0-.15,0-.15,0-.15,0-.15,0-.15,0-.15,0-.15,0-.15,0-.15,0-.15,0-.14,0-.15,0-.15,0-.14,0-.15,0-.15,0-.14,0-.15,0-.15,0-.14,0-.15,0-.15,0-.14,0-.15,0-.15,0-.15,0-.15,0-.15,0-.15,0-.15,0-.15,0-.16,0-.15,0-.16,0-.15,0-.16,0-.15,0-.16,0-.15,0-.16,0A30,30,0,0,1,37.49,68.73Zm0-62.25A30.82,30.82,0,0,0,24.61,9.29l-.28.13-.27.13-.14.06-.14.07-.14.07-.14.08-.14.08-.14.08-.14.09a.71.71,0,0,0-.14.1l-.14.1-.14.12-.14.11-.15.13-.14.13-.14.14L22,11l-.07.07-.08.08-.07.08-.07.08-.07.08-.07.09-.07.08-.07.09a.36.36,0,0,0-.07.1l-.07.09-.08.09-.07.1-.07.1-.07.1-.06.1-.07.1-.07.1-.07.1-.07.1-.07.1-.07.1-.07.1-.07.09-.06.1-.07.09-.07.09-.06.09-.07.08-.07.09-.06.08-.07.08-.06.08-.07.07-.06.08-.07.07-.06.07-.07.07-.06.07-.06.06-.07.07-.06.07-.06.06-.06.06L19,14.7l-.06.06-.06.06-.06.06-.06.06-.07.05-.12.11-.12.09-.11.09-.12.08-.12.08-.11.07-.11.06-.11.06-.11.06-.11.05-.11,0-.11.05-.11,0-.21.09-.21.08-.21.07-.2.07-.2.08-.2.07-.2.07-.19.08-.2.08-.19.1-.18.1-.19.1L14.7,17l-.19.12-.18.14-.19.15-.18.16-.19.16-.19.18c-.06.06-.13.12-.19.19l-.19.2L13,18.5l-.18.22-.18.23-.18.24-.17.24A31,31,0,0,0,37.49,68.5a30.25,30.25,0,0,0,3.95-.25l.15,0,.16,0,.15,0,.16,0,.15,0,.15,0,.16,0,.15,0,.15,0L43,68l.15,0,.15,0,.15,0,.15,0,.15,0,.15,0,.15,0,.14,0,.15,0,.15,0,.14,0,.15,0,.15,0,.29-.08.29-.08.29-.08.3-.08.15,0,.14,0,.15,0,.15,0,.15,0L47,67l.14,0,.15,0,.15,0,.15,0,.15,0,.14,0,.15,0,.15,0,.14,0,.15,0,.28-.11.28-.11.28-.11A31,31,0,0,0,37.49,6.48Z"/><path d="M37.49,70.3A32.79,32.79,0,0,1,11.35,17.7l.18-.24.19-.23.19-.23.2-.21.19-.21.2-.19.19-.19.2-.17.19-.17.19-.15.2-.13a.82.82,0,0,1,.2-.12l.19-.11.2-.09.21-.07.2-.07.2,0,.21-.05.2,0,.21,0h.2l.21,0h.21l.22,0h.21l.22,0,.22,0,.22-.05.23-.06.23-.09.23-.11.24-.14.24-.17.12-.1.13-.11.12-.12.13-.13.12-.14a.86.86,0,0,0,.13-.14,1.83,1.83,0,0,0,.13-.16l.07-.08.06-.09.07-.08.07-.09.06-.09a.86.86,0,0,1,.07-.1l.07-.09.06-.1.07-.1.07-.1.07-.11.06-.1.07-.11L20,12l.07-.11.07-.1.14-.23.14-.22.14-.22.14-.22.14-.21c.05-.07.1-.14.14-.21a2.43,2.43,0,0,0,.14-.2l.15-.19.14-.19.14-.18.14-.18.14-.17c0-.06.09-.11.13-.16L22.09,9l.14-.15.13-.14.14-.13.14-.12.14-.12.15-.11.14-.1.14-.09L23.35,8l.14-.09.14-.08.13-.08.14-.07.28-.13.28-.12a32.8,32.8,0,0,1,28,59.3l-.27.13-.27.14a.61.61,0,0,0-.14.07l-.14.06a.61.61,0,0,0-.14.07l-.14.06-.15.06a.61.61,0,0,1-.14.07l-.15.06-.14.06-.15.06-.15.06-.15.06-.16.06-.16.05-.16,0-.16,0-.16.05-.17,0-.16,0L49,68l-.16,0-.16,0-.17,0-.16,0-.16,0-.16,0-.15,0-.16,0-.16,0-.15,0-.15,0-.15,0-.15,0-.15,0-.14,0-.15,0-.14,0-.14,0-.14,0-.14.05-.14,0-.14,0-.13,0-.14.05-.13,0-.14,0-.13,0-.14,0-.13,0-.13,0-.14,0-.13,0-.14,0-.13,0-.14,0-.13,0-.14,0-.14,0-.14,0-.14,0-.14,0-.15,0-.14,0-.15,0-.14,0-.15,0-.15,0-.15,0-.16,0-.15,0-.15,0-.16,0-.16,0-.15,0-.16,0-.16,0h-.15A30.75,30.75,0,0,1,37.49,70.3Zm0-65.38A32.26,32.26,0,0,0,24.41,7.67l-.28.12L24,7.86l-.14.06L23.71,8l-.14.08-.14.08-.14.09-.14.09L23,8.43l-.15.11-.14.11-.14.12-.14.12L22.3,9l-.13.15L22,9.33l-.14.16c-.05,0-.09.11-.14.17s-.09.11-.14.17l-.14.18-.15.18-.14.19-.14.2-.14.21-.15.21c0,.07-.09.14-.14.21a1.64,1.64,0,0,1-.14.22l-.07.11-.07.11-.07.11-.07.11-.07.11-.07.11-.07.1-.07.11-.06.1-.07.1-.07.11-.07.09-.07.1-.06.1-.07.09-.07.09-.06.09-.07.08-.06.09a.27.27,0,0,0-.07.08L19,13.5l-.06.08-.06.07-.07.07a.86.86,0,0,1-.13.14l-.06.07L18.6,14l-.07.06-.06.06-.06.06-.06.05-.13.1-.12.09-.24.17-.24.13-.23.1-.23.08a.9.9,0,0,1-.22.06l-.23.05-.21,0-.22,0-.22,0-.21,0-.21,0-.21,0-.2,0-.21,0-.2,0-.2.06-.21.07-.2.07-.2.09-.19.1-.2.12-.2.14-.19.15-.19.16-.19.17-.2.18c-.06.07-.13.13-.2.2l-.19.2-.2.21-.19.23-.18.23-.19.24a32.56,32.56,0,0,0,26,52.19,33.14,33.14,0,0,0,3.33-.17l.16,0h.15l.16,0,.15,0,.16,0,.15,0,.15,0,.16,0,.15,0,.15,0,.15,0,.14,0,.15,0,.15,0,.14,0,.14,0,.14,0,.14,0,.14,0,.14,0,.14,0,.14,0,.13,0,.14,0,.14,0,.13,0,.14-.05.13,0,.14,0,.13,0,.14,0,.27-.08.28-.09.28-.08.28-.08.29-.08L47,68.3l.15,0,.15,0,.15,0,.16,0,.15,0,.16,0,.15,0,.16,0,.16,0,.16,0,.16,0,.16,0,.16,0,.16,0,.16-.05.16,0,.16,0,.15,0,.16-.06.15,0,.15-.06.15-.06.15-.06.14-.06.14-.06.14-.06.28-.13.27-.13.28-.13.27-.13A32.57,32.57,0,0,0,37.49,4.92Z"/><path d="M37.49,71.86a34.35,34.35,0,0,1-26.7-56l.19-.23c.07-.08.13-.16.2-.23l.2-.22.2-.21.2-.21.2-.2.21-.19.2-.18.21-.15.22-.14.21-.11.22-.1.21-.09.22-.07.21-.06.21,0,.22,0h.42l.22,0,.21,0,.22,0,.21.05.22,0,.22,0,.22,0,.22,0h.44l.23,0,.23-.08.24-.12a1.58,1.58,0,0,0,.24-.15l.12-.1.12-.11.13-.12.13-.14a1,1,0,0,0,.12-.15,1,1,0,0,0,.13-.16,1.09,1.09,0,0,0,.13-.17l.14-.19L19,12l.14-.21.13-.22.14-.23.14-.24c0-.08.09-.16.14-.24s.09-.16.14-.24.09-.16.14-.24.09-.16.14-.24.09-.16.14-.24a1.76,1.76,0,0,1,.14-.23l.14-.23.14-.22L20.82,9,21,8.74l.13-.2.13-.2.13-.19L21.49,8l.13-.17c.05-.06.09-.12.14-.17s.09-.11.13-.16L22,7.31l.15-.15L22.32,7l.14-.13.14-.12.13-.12.14-.12.14-.1.14-.1.14-.09.14-.09.14-.07L23.71,6,23.85,6l.28-.12.28-.12a34.36,34.36,0,0,1,30.5,61.4l-.26.15-.26.15-.14.08-.14.07a.61.61,0,0,1-.14.07l-.14.08-.14.07-.14.07-.15.07-.15.07-.16.07-.15.07-.16.07-.16.07-.16.06-.16.07-.17.07-.17.06-.17.07-.17.06-.18.06-.18.06-.18,0-.18.06-.19,0-.19,0-.19,0-.19,0-.19,0-.18,0-.19,0-.18,0-.18,0-.18,0-.17,0-.17,0-.17,0-.16,0-.16,0-.16,0-.15,0-.15,0-.29.06-.28.07-.26.07-.26.07-.26.08-.12,0-.12,0L46,70l-.12,0L45.8,70l-.12,0-.11,0-.12.05-.11,0-.12,0-.11,0-.12.06-.12.05-.11,0-.12,0-.11,0-.12.06-.11,0-.12,0-.12.05-.12.06-.12.05-.12,0-.13.06-.12,0-.13,0-.13,0-.13,0-.14,0-.13,0-.14,0-.14,0-.14,0-.15,0-.15,0-.14,0-.15,0-.16,0-.15,0-.15,0-.16,0-.16,0-.15,0h-.16l-.16,0C39.53,71.82,38.52,71.86,37.49,71.86Zm0-68.5A34,34,0,0,0,24.36,6l-.28.12-.28.13a.61.61,0,0,0-.14.07.61.61,0,0,0-.14.07l-.14.08-.14.09-.14.1-.14.1-.14.11L22.68,7l-.14.12-.14.13-.14.13-.15.14L22,7.64c0,.05-.09.1-.13.16L21.7,8l-.14.18-.13.18c0,.07-.09.13-.13.19l-.14.2-.13.2-.14.21-.14.22a1.64,1.64,0,0,0-.14.22l-.15.22c0,.08-.09.15-.14.23l-.14.24-.14.24-.14.24-.14.24-.14.24-.14.24-.14.22c0,.08-.09.15-.13.22l-.14.21-.13.19-.14.19-.13.17c0,.06-.09.11-.13.16l-.13.15-.12.14-.13.12-.12.11-.25.19-.24.14-.23.1-.23.07-.23,0h-.67l-.22,0-.22,0-.21,0-.22,0-.22,0-.21,0h-.43l-.21,0-.21,0-.21,0-.22.06-.21.09-.22.09-.21.11-.21.13a1.37,1.37,0,0,0-.21.15l-.21.17-.2.18-.2.2c-.07.06-.13.13-.2.2l-.2.21a2.09,2.09,0,0,0-.2.22l-.2.22-.19.23-.19.24A34.12,34.12,0,0,0,37.49,71.63c1,0,2,0,3-.13h.16l.15,0,.16,0,.16,0,.15,0,.15,0,.16,0,.15,0,.15,0,.15,0,.14,0,.15,0,.14,0,.14,0,.14,0,.14,0L43,71l.13,0,.13,0,.13-.05.13,0,.13,0,.12,0,.13-.06.12,0,.12,0,.12-.05.12,0,.11-.06.12,0,.12,0,.11,0,.12,0,.12-.05.12,0,.23-.09.24-.09.24-.09.25-.09.25-.08.25-.08.27-.07.27-.07.28-.07.3-.06.15,0,.15,0,.16,0,.16,0,.16,0,.17,0,.17,0,.17,0,.17,0,.18,0,.18,0,.18,0,.18,0,.18,0,.19,0,.18,0,.18,0,.18,0,.18-.05.18-.06.17-.06.17-.06.16-.06.17-.06.16-.07.16-.07.16-.06.15-.07.15-.07.16-.06.15-.07.15-.07a.61.61,0,0,1,.14-.07l.15-.07a1899043221218.59,1899043221218.59,0,0,1,.28-.14l.13-.08.14-.07.27-.15.26-.15.26-.15A34.13,34.13,0,0,0,37.49,3.36Z"/><path d="M37.49,73.42A35.9,35.9,0,0,1,10.66,13.63c.06-.08.13-.15.2-.23l.2-.22.21-.21.21-.21.21-.2.22-.19.23-.17.23-.15.23-.13.23-.12.23-.1.23-.08.23-.06.23,0H14a.89.89,0,0,1,.23,0,.83.83,0,0,1,.22,0l.23,0,.22.06.22.07.22.08.21.07.22.08L16,12l.22.06.22,0h.23l.23,0A1,1,0,0,0,17.1,12a1.28,1.28,0,0,0,.24-.11,1.58,1.58,0,0,0,.24-.15l.12-.1.13-.12.13-.13.12-.15a1.09,1.09,0,0,0,.13-.17.83.83,0,0,0,.13-.18l.14-.19a2.39,2.39,0,0,1,.13-.21c0-.07.09-.14.13-.22l.14-.22c0-.08.09-.16.14-.24l.13-.24.14-.24.14-.24c0-.08.09-.16.14-.24s.09-.16.14-.24l.13-.23L20,8.19,20.1,8l.13-.23a2.53,2.53,0,0,1,.13-.22l.12-.21.13-.21a2.39,2.39,0,0,0,.13-.21l.14-.19L21,6.51l.14-.18.14-.17L21.43,6l.13-.15.14-.15a1.85,1.85,0,0,1,.14-.14L22,5.42l.14-.12a.86.86,0,0,1,.14-.13l.13-.11.14-.1.14-.1.14-.09L23,4.69l.15-.08.14-.08.14-.07.14-.06.28-.13.28-.11.29-.11A35.56,35.56,0,0,1,37.49,1.56,35.93,35.93,0,0,1,56.56,67.94l-.26.16-.26.15a.57.57,0,0,1-.13.08l-.13.08-.14.08-.14.07-.14.08-.14.07-.15.08-.15.07-.15.08-.16.07-.16.07-.17.07-.17.07-.17.08-.18.07-.18.07-.18.07-.19.06-.19.07-.19.07-.2.07-.2.06-.21.06L52,70l-.22.06-.22,0-.23,0-.23,0-.23,0-.23,0-.22,0-.22,0-.22,0-.22,0-.21,0-.2,0-.2,0-.19,0-.18,0-.18,0-.17,0-.16,0-.16,0-.15,0a1.36,1.36,0,0,0-.29.06l-.27.06-.24.07-.24.08-.22.08-.2.08-.2.09-.2.09-.19.1-.19.1-.18.1-.1,0-.09,0-.09,0-.1.06-.09,0-.1.06-.09,0-.1.06-.1.05-.1.06-.1.06-.1,0-.1.06-.11.06-.1.06-.11,0-.11.06-.11.06-.11,0-.12.06-.12,0-.12.06-.12,0-.13,0-.12,0-.14.05-.13,0-.14,0-.14,0-.14,0-.14,0-.15,0-.15,0-.15,0-.16,0-.15,0-.16,0-.16,0-.15,0h-.16l-.16,0C39.53,73.38,38.52,73.42,37.49,73.42Zm0-71.63A35.6,35.6,0,0,0,24.32,4.31L24,4.43l-.28.11-.14.07-.14.06-.15.07-.14.08L23,4.89,22.9,5l-.14.09-.14.1-.14.1-.14.12-.14.12-.14.13-.14.13-.14.15a1,1,0,0,0-.13.15l-.14.15-.14.16c-.05.06-.09.12-.14.17l-.14.18c0,.06-.09.12-.13.19l-.14.19-.13.21a2.39,2.39,0,0,1-.13.21l-.13.22L20.3,8l-.13.23L20,8.43l-.13.23c-.05.08-.1.16-.14.24s-.1.16-.14.24-.1.16-.14.24l-.14.25-.14.24-.14.25c0,.08-.09.15-.14.23l-.13.23-.14.22-.13.21-.13.19a1.41,1.41,0,0,1-.14.18,1.09,1.09,0,0,1-.13.17L18,11.7l-.13.13-.13.12-.24.19-.24.13-.24.08a.93.93,0,0,1-.23,0h-.23l-.22,0-.22,0-.22-.06-.22-.07-.22-.07-.22-.08L15,12l-.22-.07-.22-.06-.23,0h-.45l-.22,0-.23.05-.23.07A1.09,1.09,0,0,0,13,12l-.23.1-.23.13-.23.14-.23.16-.22.17-.22.19-.21.21-.21.22-.2.21-.21.23-.2.22A35.68,35.68,0,0,0,37.49,73.19c1,0,2,0,3-.12l.16,0h.16L41,73l.16,0,.15,0,.16,0,.15,0,.15,0,.15,0,.15,0,.14,0,.14,0,.14,0,.14,0,.13,0,.13,0,.13,0,.13,0,.12,0,.13-.06.11,0,.12-.06.11,0,.12-.06.11,0,.1-.06.11-.06.1,0,.11-.06.1-.06.1,0,.1-.06.1,0,.1-.06.1,0,.1-.06.1,0,.09,0,.1-.06.19-.1.19-.1.19-.09.2-.09.2-.09.21-.09.21-.08.23-.08.24-.07.25-.07.27-.06a2.47,2.47,0,0,1,.29-.06l.16,0,.15,0,.17,0,.17,0,.18,0,.18,0,.19,0,.19,0,.21,0,.2,0,.21,0,.22,0,.21,0,.22,0,.22,0,.22,0,.22,0,.22,0,.22-.06.2,0,.21-.06.2-.06.19-.07.2-.07.19-.06.18-.07.18-.07.18-.07.17-.07.18-.07L54,69,54.2,69l.16-.07.16-.07.15-.08.15-.07.15-.07.14-.08.14-.07.14-.08.14-.07.13-.08.27-.15.25-.16.26-.16A35.7,35.7,0,0,0,37.49,1.79Z"/><path d="M37.49,75A37.48,37.48,0,0,1,10.78,11.21L11,11l.22-.21.22-.2.23-.19.22-.18.24-.17.24-.16.24-.14.24-.11a1.06,1.06,0,0,1,.25-.09l.24-.07.24,0,.24,0h.24l.24,0,.24,0,.23,0,.23,0,.24,0,.23,0,.23,0h.46l.24,0,.23-.06.24-.09.24-.14.13-.09.12-.1L17.47,9l.13-.13.13-.13.12-.15A1,1,0,0,0,18,8.46a1.09,1.09,0,0,0,.13-.17,1.09,1.09,0,0,0,.13-.17c0-.06.09-.12.13-.19l.12-.19.13-.19.12-.2.12-.21.12-.2.12-.21a1.37,1.37,0,0,1,.13-.2l.12-.21.13-.2.13-.2.13-.19.13-.18L20,5.37l.13-.18L20.26,5l.14-.16.14-.15.13-.15.14-.14A1.85,1.85,0,0,1,21,4.28a.86.86,0,0,1,.14-.13A1.59,1.59,0,0,1,21.22,4l.14-.11.14-.11.14-.11.14-.1.14-.09.14-.09.14-.09.14-.08.15-.08.14-.07L22.77,3,22.91,3l.14-.07.14-.06.29-.11.28-.12A37.49,37.49,0,0,1,57.69,69.07l-.26.16-.25.16-.14.08a.57.57,0,0,1-.13.08l-.13.08-.14.08-.14.07-.14.08-.15.08-.15.07-.15.08-.15.07-.16.08-.17.07-.17.07-.18.08-.18.07-.18.07-.19.07-.2.07-.2.07-.21.07-.21.07L53.5,71l-.23.06-.22.07-.24.06-.24.06-.25.06-.25,0-.26,0-.26,0-.27,0-.27,0-.26,0-.26,0H50l-.24,0h-.45l-.2,0h-.2l-.19,0-.17,0-.17,0-.16,0-.15,0-.28.07-.25.07-.23.08-.2.08-.19.09-.18.09-.17.1-.15.1-.16.1-.15.1-.15.11-.15.1-.15.11-.16.11-.08.06-.08.05-.08.06-.08.05-.09.06-.09.06-.08.06-.1,0-.09.06-.09.06-.1.06-.1.06-.1,0-.1.06-.1.06L44,74l-.11.05-.11.06-.11.05-.12.06-.12.05-.12,0-.13,0-.13,0-.13,0-.14,0-.13,0-.14,0-.15,0-.15,0-.15,0-.15,0-.15,0-.15,0-.16,0-.16,0-.16,0H41l-.16,0Q39.19,75,37.49,75Zm0-74.76A37.18,37.18,0,0,0,23.71,2.87L23.43,3l-.15.06-.14.06L23,3.17l-.14.06-.15.07-.14.08-.14.08-.14.08-.14.09L22,3.72l-.15.1-.14.1L21.58,4l-.13.11-.14.12-.14.13L21,4.53l-.14.14-.14.15L20.62,5a2.09,2.09,0,0,0-.14.17,1.83,1.83,0,0,0-.13.16l-.14.18-.13.18L20,5.85l-.14.2-.13.2-.12.2a2.39,2.39,0,0,0-.13.21l-.12.21a2.53,2.53,0,0,1-.13.22l-.12.21-.12.21a2.39,2.39,0,0,1-.13.21l-.12.21-.13.21-.13.19-.13.19-.14.19L18,8.89a1.83,1.83,0,0,1-.13.16l-.12.15-.13.15-.13.12-.12.11-.12.1a1.48,1.48,0,0,1-.25.16.86.86,0,0,1-.24.11,1.09,1.09,0,0,1-.24.07.91.91,0,0,1-.23,0h-.23l-.23,0-.23,0-.23,0-.24-.05-.23-.05-.23,0-.23,0-.24,0h-.47l-.24,0-.25,0L13,9.87l-.24.1-.25.13-.24.14-.24.16-.23.18-.23.18-.22.2a2.09,2.09,0,0,0-.22.2l-.22.21-.21.22A37.25,37.25,0,0,0,37.49,74.76c1.13,0,2.24-.05,3.34-.15H41l.15,0,.16,0,.15,0,.16,0,.15,0,.15,0,.15,0,.15,0,.15,0,.14,0,.14,0,.14,0,.13,0,.13,0,.13,0,.13,0,.12-.06.12,0,.11,0,.12-.06.11,0,.1-.06.11-.06.1,0,.1-.06.1-.06.1-.06.1,0,.09-.06.09-.06.1-.06.08,0,.09-.06.09-.06.08,0,.08-.06.17-.11.15-.11.16-.11.15-.1.16-.1.15-.11.15-.1.17-.09.17-.1.18-.09.19-.08.22-.08.23-.08.25-.07.28-.06.16,0,.16,0,.16,0,.18,0,.19,0h.2l.2,0h.44l.23,0h.49l.26,0,.25,0,.26,0,.26,0,.26,0,.25,0,.25,0,.24-.05.24-.06.23-.07.22-.06.22-.07a1.29,1.29,0,0,0,.21-.07l.21-.06.2-.07.2-.07.19-.07.19-.07.18-.07.18-.08.18-.07.16-.07.17-.07.16-.08.15-.07.15-.08.15-.07.14-.08.15-.07.13-.08.14-.08.13-.07.27-.16.25-.16.25-.16A37.25,37.25,0,0,0,37.49.23Z"/><path d="M68.16,68.16H49.9l-.22,0h-.43l-.22,0h-.21l-.22,0H45.07l-.21,0h-.63l-.21,0H6.83V6.83H12l.27,0,.29.06.29.1L13,7.1l.15.06.15.08.16.09.16.09.16.1.16.11.17.12.16.13.17.12.16.14.17.14.16.14.16.16.16.16.16.16.16.18.15.17.16.18L16,9.6l.16.18.15.16.16.16a1.06,1.06,0,0,0,.15.15l.16.14a.83.83,0,0,0,.16.12.91.91,0,0,0,.16.11l.16.08.16.06a.51.51,0,0,0,.17,0h.17l.17,0,.17-.06a.71.71,0,0,0,.18-.08l.18-.1.18-.13.19-.16.19-.17.19-.18.19-.2.19-.2c.07-.07.13-.14.2-.2l.2-.21.2-.2.19-.2.2-.19c.06-.06.12-.13.19-.19L21,8.13,21.16,8l.2-.16a1,1,0,0,1,.2-.15l.2-.14.2-.12.21-.11a1.24,1.24,0,0,1,.2-.1l.21-.08L22.79,7,23,7l.21,0,.2,0,.21,0H68.16Zm-59-2.3H65.86V9.12H23.62l-.21,0-.21,0-.21,0a1.17,1.17,0,0,0-.2.06l-.21.07a.88.88,0,0,0-.2.09l-.2.1-.2.13a1.37,1.37,0,0,0-.2.13l-.21.15-.2.16-.2.17-.21.19-.2.2-.2.21-.19.22-.2.22-.2.22-.19.22-.19.21-.19.2-.19.19-.18.18-.19.15-.18.15-.17.12-.18.1-.17.08-.17.07-.16,0-.16,0h-.16l-.16,0-.15,0L17,13.18l-.15-.07L16.73,13l-.15-.1-.14-.11-.14-.12a.86.86,0,0,1-.14-.13L16,12.44l-.14-.15-.13-.15L15.61,12l-.13-.16c0-.06-.09-.11-.13-.16l-.14-.17-.13-.16c0-.06-.09-.11-.13-.16L14.82,11l-.14-.16-.13-.15-.14-.15-.13-.13-.14-.14L14,10.16,13.87,10l-.13-.11-.14-.1-.13-.1-.14-.08-.13-.08-.27-.12-.26-.1-.25-.08-.24-.06-.23,0-.22,0H9.12Z"/><path d="M18.9,45H12.78s-.08,0-.08-.1l0-13a.08.08,0,0,1,.09-.09h2.11c.06,0,.1,0,.1.09L15,42.7h3.9a.08.08,0,0,1,.09.09v2.14C19,45,19,45,18.9,45Z"/><path d="M26.42,45H20.3c-.05,0-.08,0-.08-.1l0-13c0-.05,0-.07.07-.07H26.4c.05,0,.07,0,.07.09v2.12s0,.07-.07.07H22.51v3H26.4c.05,0,.07,0,.07.08l0,2.14s0,.08-.07.08H22.51V42.7h3.91s.07,0,.07.09V45S26.47,45,26.42,45Z"/><path d="M16.17,62.63a3.46,3.46,0,0,1-1.85-.51A3.88,3.88,0,0,1,13,60.75a3.68,3.68,0,0,1-.51-1.92v-6A3.62,3.62,0,0,1,13,50.94a3.82,3.82,0,0,1,1.34-1.37,3.42,3.42,0,0,1,1.84-.52,3.66,3.66,0,0,1,1.89.5,3.85,3.85,0,0,1,1.33,1.36,3.77,3.77,0,0,1,.5,1.92v.87s0,.07-.09.07H17.67c-.05,0-.07,0-.07-.07V53a1.77,1.77,0,0,0-.41-1.19,1.31,1.31,0,0,0-2,0,1.55,1.55,0,0,0-.43,1.07v6a1.52,1.52,0,0,0,.42,1.07,1.33,1.33,0,0,0,1,.44,1.31,1.31,0,0,0,1-.44,1.52,1.52,0,0,0,.41-1.07v-.94H16.27c-.07,0-.1,0-.1-.09V55.68c0-.06,0-.09.1-.09h3.54c.05,0,.08,0,.08.09v3.15a3.77,3.77,0,0,1-.5,1.92,4,4,0,0,1-1.34,1.37A3.53,3.53,0,0,1,16.17,62.63Z"/><path d="M23.44,62.44H21.29c-.05,0-.07,0-.07-.09l0-13c0-.05,0-.07.07-.07h3.83a3.66,3.66,0,0,1,1.89.5,3.82,3.82,0,0,1,1.37,1.34,3.58,3.58,0,0,1,.51,1.9,3.62,3.62,0,0,1-.21,1.26,3.84,3.84,0,0,1-.5.95,2.72,2.72,0,0,1-.51.57,3.85,3.85,0,0,1,1,2.68l0,3.88c0,.06,0,.09-.1.09H26.52c-.05,0-.08,0-.08,0V58.47A1.67,1.67,0,0,0,26,57.28a1.58,1.58,0,0,0-1.18-.5H23.53l0,5.57C23.51,62.41,23.49,62.44,23.44,62.44Zm1.72-10.91H23.53v3h1.63a1.48,1.48,0,0,0,1-.44,1.44,1.44,0,0,0,0-2.1A1.44,1.44,0,0,0,25.16,51.53Z"/><path d="M33.85,62.63A3.48,3.48,0,0,1,32,62.11a4.05,4.05,0,0,1-1.35-1.38,3.69,3.69,0,0,1-.52-1.9l0-6a3.58,3.58,0,0,1,.51-1.9A3.75,3.75,0,0,1,32,49.57a3.6,3.6,0,0,1,3.71,0,4,4,0,0,1,1.34,1.37,3.72,3.72,0,0,1,.5,1.9l0,6a3.71,3.71,0,0,1-.5,1.89,4,4,0,0,1-1.35,1.39A3.47,3.47,0,0,1,33.85,62.63Zm0-2.29a1.31,1.31,0,0,0,1-.46,1.53,1.53,0,0,0,.42-1.05v-6a1.56,1.56,0,0,0-.4-1.07,1.31,1.31,0,0,0-1-.43,1.36,1.36,0,0,0-1,.42,1.49,1.49,0,0,0-.41,1.08v6a1.51,1.51,0,0,0,.41,1.07A1.34,1.34,0,0,0,33.85,60.34Z"/><path d="M42.5,62.63a3.43,3.43,0,0,1-1.86-.52,4.17,4.17,0,0,1-1.36-1.38,3.68,3.68,0,0,1-.51-1.9l0-6a3.58,3.58,0,0,1,.51-1.9,3.75,3.75,0,0,1,1.35-1.36,3.58,3.58,0,0,1,3.7,0,3.82,3.82,0,0,1,1.34,1.37,3.62,3.62,0,0,1,.5,1.9l0,6a3.61,3.61,0,0,1-.5,1.89,3.83,3.83,0,0,1-1.35,1.39A3.43,3.43,0,0,1,42.5,62.63Zm0-2.29a1.29,1.29,0,0,0,1-.46,1.49,1.49,0,0,0,.43-1.05l0-6a1.51,1.51,0,0,0-.4-1.07,1.29,1.29,0,0,0-1-.43,1.36,1.36,0,0,0-1,.42,1.49,1.49,0,0,0-.42,1.08v6a1.52,1.52,0,0,0,.42,1.07A1.34,1.34,0,0,0,42.5,60.34Z"/><path d="M52.06,62.44h-2.3s-.08,0-.09-.09l-2.62-13c0-.05,0-.07.08-.07h2.14a.1.1,0,0,1,.1.07L50.92,58l1.52-8.67a.08.08,0,0,1,.09-.07h2.12c.06,0,.09,0,.07.07l-2.57,13Q52.14,62.44,52.06,62.44Z"/><path d="M62,62.44H55.9s-.07,0-.07-.09l0-13c0-.05,0-.07.07-.07H62c.05,0,.07,0,.07.09v2.12c0,.05,0,.07-.07.07H58.12v3H62c.05,0,.07,0,.07.07l0,2.15a.06.06,0,0,1-.07.07H58.12v3.31H62s.07,0,.07.1v2.16A.06.06,0,0,1,62,62.44Z"/></g></g></svg>
