<svg viewBox="0 0 816.45 816.45" id="logosvg" xmlns="http://www.w3.org/2000/svg"><path d="m408.23 442a33.75 33.75 0 1 1 33.77-33.77 33.79 33.79 0 0 1 -33.77 33.77zm0-65a31.25 31.25 0 1 0 31.24 31.25 31.29 31.29 0 0 0 -31.24-31.25z"/><path d="m408.23 459a50.77 50.77 0 1 1 50.77-50.77 50.82 50.82 0 0 1 -50.77 50.77zm0-99a48.27 48.27 0 1 0 48.26 48.27 48.32 48.32 0 0 0 -48.26-48.27z"/><path d="m408.23 476a67.79 67.79 0 1 1 67.77-67.77 67.87 67.87 0 0 1 -67.77 67.77zm0-133.08a65.29 65.29 0 1 0 65.28 65.29 65.37 65.37 0 0 0 -65.28-65.27z"/><path d="m408.23 493a84.81 84.81 0 1 1 84.77-84.77 84.91 84.91 0 0 1 -84.77 84.77zm0-167.12a82.31 82.31 0 1 0 82.31 82.31 82.4 82.4 0 0 0 -82.31-82.27z"/><path d="m408.23 510.06a101.84 101.84 0 1 1 101.83-101.83 102 102 0 0 1 -101.83 101.83zm0-201.16a99.33 99.33 0 1 0 99.33 99.33 99.45 99.45 0 0 0 -99.33-99.33z"/><path d="m408.23 527.08a118.19 118.19 0 0 1 -68.5-21.77l-1.38-1-1.36-1-1.35-1-1.33-1.06-1.31-1.1-1.29-1.1-1.29-1.11-1.26-1.13-1.25-1.15-1.24-1.16-1.22-1.17-1.2-1.19-1.19-1.2-1.17-1.21c-.39-.4-.78-.81-1.16-1.22l-1.14-1.24-1.13-1.27c-.37-.42-.74-.84-1.1-1.27l-1.08-1.29-1.07-1.31c-.35-.44-.7-.88-1-1.33s-.69-.89-1-1.35a118.82 118.82 0 1 1 95.09 47.62zm0-235.21a116.29 116.29 0 0 0 -91.23 188.52l1.05 1.32 1.08 1.29c.36.43.73.86 1.1 1.28s.74.85 1.11 1.27.75.83 1.13 1.24.76.83 1.15 1.23l1.17 1.22 1.18 1.2 1.2 1.18 1.22 1.17 1.23 1.15 1.26 1.14 1.26 1.12 1.29 1.1 1.3 1.08 1.31 1.06 1.33 1a116.34 116.34 0 1 0 70.84-208.61z"/><path d="m408.23 544.1a135.06 135.06 0 0 1 -67.54-18c-.49-.28-1-.57-1.48-.87s-1-.59-1.48-.89l-1.45-.94-1.43-1-1.39-1c-.46-.35-.91-.71-1.36-1.08s-.88-.74-1.31-1.12-.87-.77-1.29-1.16-.85-.79-1.27-1.19l-1.23-1.22-1.23-1.23-1.22-1.24-1.21-1.25c-.4-.41-.8-.83-1.21-1.24l-1.2-1.24c-.41-.41-.81-.83-1.21-1.24l-1.23-1.19-1.22-1.21-1.27-1.22-1.24-1.18-1.24-1.16-1.25-1.15-1.22-1.08-1.26-1.13-1.25-1.11-1.26-1.12-1.28-1.16-1.23-1.12-1.23-1.13-1.2-1.15c-.4-.39-.79-.78-1.18-1.18s-.77-.79-1.15-1.2-.74-.82-1.11-1.24-.72-.84-1.08-1.28-.69-.87-1-1.32l-1-1.38-1-1.41c-.32-.47-.63-.95-.94-1.43a135.13 135.13 0 0 1 -21.58-73.41c0-74.93 60.95-135.88 135.88-135.88a135 135 0 0 1 73.59 21.7l1.86 1.23c.62.41 1.23.83 1.84 1.25l1.82 1.29c.61.43 1.21.87 1.8 1.31l1.78 1.35c.59.45 1.17.91 1.75 1.37l1.73 1.4 1.71 1.42 1.68 1.46c.55.48 1.11 1 1.65 1.48s1.1 1 1.64 1.5l1.6 1.53 1.59 1.56c.52.52 1 1.05 1.55 1.58s1 1.07 1.53 1.61 1 1.08 1.51 1.63l1.48 1.65 1.45 1.68 1.42 1.71c.47.57.94 1.15 1.4 1.73s.92 1.16 1.37 1.75.9 1.18 1.34 1.77.88 1.19 1.31 1.8.86 1.21 1.29 1.82.84 1.22 1.25 1.84.83 1.24 1.23 1.86.8 1.25 1.2 1.89.78 1.26 1.16 1.9a135 135 0 0 1 19.34 69.81c.05 74.92-60.9 135.87-135.82 135.87zm0-269.25c-73.55 0-133.38 59.83-133.38 133.38a132.52 132.52 0 0 0 20.93 71.65c.3.48.62 1 .93 1.44s.63.95 1 1.42.65.93 1 1.39.67.91 1 1.36.69.88 1 1.31.72.85 1.09 1.27.74.83 1.11 1.23.76.81 1.15 1.21l1.17 1.18 1.2 1.16 1.21 1.14c.41.39.81.77 1.22 1.14l1.24 1.14 1.24 1.14 1.24 1.14 1.24 1.15 1.24 1.15 1.23 1.17 1.23 1.18 1.23 1.2c.41.39.81.8 1.22 1.2l1.22 1.21c.4.41.81.81 1.22 1.22l1.21 1.22 1.23 1.23 1.15 1.22 1.24 1.21 1.25 1.19 1.27 1.18 1.3 1.15q.64.57 1.32 1.11c.44.37.9.72 1.35 1.08l1.39 1c.47.33.94.66 1.42 1l1.44 1 1.47.91 1.47.88a132.64 132.64 0 0 0 67.27 18.23c73.54 0 133.37-59.83 133.37-133.37a132.65 132.65 0 0 0 -19.77-69.83l-1.19-1.89c-.41-.63-.81-1.25-1.23-1.88s-.83-1.23-1.25-1.85l-1.24-1.82-1.31-1.81-1.34-1.78c-.46-.59-.91-1.18-1.37-1.76l-1.4-1.74-1.46-1.76c-.48-.56-1-1.13-1.45-1.69s-1-1.11-1.48-1.66l-1.51-1.64c-.5-.54-1-1.08-1.53-1.61l-1.53-1.55-1.59-1.56-1.61-1.53-1.64-1.51c-.55-.5-1.11-1-1.67-1.48s-1.12-1-1.68-1.46l-1.72-1.46c-.57-.47-1.15-.94-1.74-1.4l-1.76-1.37c-.59-.45-1.18-.9-1.78-1.34s-1.2-.88-1.81-1.32l-1.83-1.28a132.61 132.61 0 0 0 -75.44-23.44z"/><path d="m408.23 561.13a152 152 0 0 1 -74.14-19.21l-1.49-.84-1.48-.88q-.74-.44-1.44-.93c-.47-.32-.93-.65-1.38-1s-.9-.7-1.34-1.07-.85-.78-1.27-1.2-.81-.86-1.2-1.31c-.2-.23-.39-.47-.58-.7l-.57-.72-.56-.75c-.18-.25-.37-.5-.55-.76l-.54-.77-.53-.79-.53-.79-.52-.8c-.18-.27-.35-.54-.52-.81l-.52-.81c-.17-.27-.34-.54-.52-.81l-.51-.8-.52-.8-.51-.78-.52-.78-.51-.75-1-1.47c-.35-.48-.69-.95-1-1.41s-.7-.9-1.06-1.33-.72-.86-1.09-1.27-.74-.8-1.13-1.19-.77-.76-1.16-1.12-.81-.71-1.22-1.05-.83-.67-1.26-1-.86-.62-1.31-.91-.89-.58-1.35-.86-.92-.55-1.39-.81-.95-.53-1.43-.78l-1.47-.75-1.49-.75-.76-.37-.75-.37-.76-.38-.76-.39-.75-.4-.75-.42-.74-.43-.73-.44-.71-.47-.71-.5c-.46-.33-.91-.68-1.36-1s-.87-.7-1.29-1.06-.84-.73-1.24-1.1-.81-.75-1.2-1.14-.77-.78-1.15-1.18-.75-.82-1.11-1.24-.72-.86-1.06-1.3-.68-.89-1-1.36-.64-.93-1-1.41a152.06 152.06 0 0 1 -25.43-84.36c0-84.31 68.59-152.9 152.9-152.9a152 152 0 0 1 75.74 20.12l2 1.15 1.95 1.18c.65.39 1.29.8 1.93 1.2s1.28.82 1.91 1.24 1.26.85 1.87 1.29l.92.68.91.7.9.71.89.73.88.74.87.75.86.76.85.78.85.78.85.79.83.79.83.8.83.81.83.81.82.81.81.81.82.81.81.81 1.62 1.62 1.61 1.61 1.61 1.59 1.61 1.59 1.6 1.57 1.59 1.56 1.59 1.54 1.58 1.55 1.56 1.54 1.55 1.55q.78.78 1.53 1.56c.51.53 1 1.05 1.51 1.59s1 1.06 1.48 1.61l1.44 1.65c.47.55.94 1.12 1.4 1.69s.92 1.16 1.36 1.75.88 1.21 1.31 1.82.85 1.25 1.26 1.88.83 1.27 1.23 1.91.81 1.28 1.2 1.93.79 1.29 1.18 1.95.77 1.3 1.15 2 .75 1.32 1.12 2 .73 1.33 1.08 2a151.93 151.93 0 0 1 18 71.82c-.06 84.26-68.65 152.85-152.96 152.85zm0-303.3c-82.93 0-150.4 67.47-150.4 150.4a149.56 149.56 0 0 0 24.77 82.61c.32.47.63 1 1 1.41s.65.91 1 1.36.69.87 1.05 1.29.73.83 1.1 1.24.76.8 1.15 1.18.79.77 1.19 1.14.81.74 1.22 1.1l1.26 1.06c.42.35.85.7 1.29 1s.87.68 1.32 1 .91.65 1.37 1l1.41.9 1.43.85 1.44.83 1.44.82 1.42.82 1.4.84 1.37.87c.46.3.9.61 1.34.92s.87.63 1.3 1 .84.67 1.25 1 .82.71 1.22 1.08.8.76 1.18 1.15.77.8 1.15 1.22.75.84 1.12 1.28.74.89 1.1 1.35.73.93 1.09 1.41l.54.73.54.74.53.75.54.76.53.76.53.77c.18.25.36.51.53.77l.53.76.54.77.54.76.54.76.55.74c.18.25.37.49.55.73l.57.72c.37.47.76.93 1.15 1.38s.79.87 1.21 1.28.83.81 1.25 1.19.87.74 1.32 1.09.89.7 1.35 1 .93.66 1.41 1 1 .62 1.45.91l1.48.86 1.5.83a149.41 149.41 0 0 0 72.38 18.59c82.93 0 150.39-67.46 150.39-150.39a149.5 149.5 0 0 0 -17.66-70.64c-.35-.66-.71-1.31-1.07-2s-.73-1.31-1.1-2l-1.13-1.93c-.38-.64-.77-1.28-1.16-1.92s-.78-1.26-1.18-1.89-.8-1.26-1.21-1.88-.82-1.24-1.24-1.85-.83-1.23-1.26-1.83-.87-1.19-1.32-1.77-.89-1.16-1.35-1.72-.93-1.12-1.4-1.66-.95-1.1-1.43-1.63-1-1.07-1.46-1.6l-1.49-1.57-1.51-1.56-1.52-1.54-1.54-1.55-1.55-1.54-1.57-1.54-1.57-1.56-1.57-1.56-1.61-1.48-1.59-1.57-1.61-1.58-1.56-1.57-1.62-1.57-1.65-1.55c-.55-.52-1.1-1-1.66-1.53l-1.68-1.51-1.72-1.47c-.57-.48-1.15-.95-1.74-1.42s-1.18-.92-1.78-1.36-1.21-.88-1.83-1.3-1.24-.84-1.86-1.24l-1.88-1.22-1.9-1.18-1.91-1.16-1.93-1.12a149.43 149.43 0 0 0 -74.61-19.82z"/><path d="m408.23 578.15a168.8 168.8 0 0 1 -81.69-21l-1.51-.84c-.5-.29-1-.59-1.48-.92q-.36-.24-.72-.51c-.24-.17-.48-.36-.71-.54l-.7-.58c-.23-.19-.45-.39-.68-.6l-.67-.64c-.22-.22-.43-.44-.64-.67s-.42-.47-.63-.72l-.6-.75-.59-.79c-.19-.26-.38-.54-.56-.82s-.37-.56-.55-.85-.36-.58-.53-.87-.34-.6-.5-.9-.33-.6-.48-.9-.31-.6-.46-.91-.29-.6-.43-.91-.28-.6-.41-.9l-.4-.91c-.13-.3-.25-.61-.38-.91l-.37-.9c-.12-.29-.23-.59-.35-.89s-.23-.59-.35-.88-.23-.59-.34-.88l-.33-.87-.65-1.69-.61-1.61-.6-1.54q-.3-.75-.6-1.47l-.6-1.42-.63-1.36c-.22-.44-.44-.88-.67-1.3s-.47-.83-.72-1.22-.5-.78-.77-1.15-.55-.72-.85-1.06-.6-.66-.92-1a12.39 12.39 0 0 0 -1-.88 13.26 13.26 0 0 0 -1.12-.8 12.54 12.54 0 0 0 -1.24-.72c-.43-.23-.89-.44-1.37-.64s-1-.39-1.51-.57l-.81-.25-.85-.23-.88-.22-.91-.19c-.31-.07-.63-.13-.95-.18l-1-.17-1-.16-1-.16-1.05-.15-1.06-.16-1.08-.16-1.08-.18-1.08-.2-1.07-.22-1.06-.26-1.06-.29-1-.34c-.35-.12-.69-.25-1-.38l-1-.44c-.32-.16-.64-.32-.95-.5a16.08 16.08 0 0 1 -1.8-1.18c-.29-.22-.57-.45-.84-.68l-.81-.71-.77-.72-.74-.73c-.24-.25-.48-.49-.71-.74s-.46-.49-.68-.74-.44-.49-.65-.74-.42-.49-.62-.74-.41-.48-.6-.73l-.57-.73-.55-.72-.54-.73-.53-.73-.51-.73c-.33-.48-.66-1-1-1.45s-.63-1-.94-1.45a169 169 0 0 1 -26.22-90.61c0-93.7 76.22-169.92 169.92-169.92a168.79 168.79 0 0 1 82.41 21.36q1 .54 2 1.11c.65.38 1.31.76 1.95 1.16s1.28.82 1.91 1.25 1.24.89 1.85 1.36l.9.72.88.75c.29.26.58.52.86.79l.85.82c.28.28.55.57.82.86s.55.59.81.89l.8.91c.26.3.52.62.78.93s.52.63.77.95.51.64.76 1 .51.65.76 1l.74 1 .75 1c.24.34.49.67.73 1l.74 1c.24.34.49.67.73 1l.74 1c.24.33.48.66.73 1s.49.66.74 1 .49.65.74 1l.74 1 .75.94.75.93.76.91.77.89.77.87.78.86c.26.28.52.56.79.83.52.55 1.06 1.09 1.59 1.61s1.08 1 1.63 1.53l1.65 1.45c.56.47 1.12.92 1.68 1.37s1.14.89 1.71 1.31 1.14.85 1.72 1.26 1.15.81 1.73 1.21l1.74 1.19 1.73 1.16 1.73 1.18c.57.39 1.14.78 1.7 1.19s1.13.81 1.68 1.23 1.1.85 1.64 1.29 1.06.89 1.58 1.36 1 .94 1.54 1.43 1 1 1.49 1.48 1 1 1.46 1.54.94 1.06 1.4 1.61.91 1.11 1.36 1.68.87 1.17 1.29 1.77.83 1.23 1.23 1.87.79 1.28 1.17 1.93.77 1.3 1.15 2l1.12 2c.37.66.73 1.32 1.09 2s.71 1.33 1.06 2a168.86 168.86 0 0 1 19.21 78.43c-.05 93.51-76.28 169.74-169.97 169.74zm0-337.34c-92.32 0-167.42 75.1-167.42 167.42a166.38 166.38 0 0 0 26.5 90.3c.31.49.62 1 .94 1.45s.65 1 1 1.44l.52.73.53.72.55.72.56.73.58.72c.2.24.4.49.61.73l.64.73.68.72.71.71c.24.24.49.47.74.7l.77.69c.27.22.53.45.81.67l.83.62c.29.2.58.39.88.57s.6.36.91.52l.94.46 1 .41 1 .36 1 .32 1 .29 1 .26 1 .23 1 .21 1 .19 1 .19 1 .18 1 .18 1 .18.94.19.92.2c.3.06.59.13.89.21l.86.22.83.24.81.26c.52.18 1 .37 1.52.57s.95.42 1.4.65.88.47 1.29.73a12.14 12.14 0 0 1 1.17.81c.38.28.73.58 1.08.89s.66.64 1 1 .61.69.89 1 .57.74.83 1.13.53.78.78 1.19.49.83.72 1.26.47.88.7 1.34.45.92.67 1.4.44 1 .66 1.48.44 1 .66 1.56.46 1.08.69 1.63c.11.28.23.57.35.85s.23.57.35.86l.35.87.36.88c.13.3.25.6.37.89l.38.9.39.91c.13.3.27.6.41.91s.27.61.41.91l.44.92c.15.3.3.61.46.91l.48.91.51.91c.17.29.34.59.52.88l.54.85c.18.29.37.56.55.83s.38.54.58.8.39.51.59.76.4.49.61.72l.63.69.66.64c.22.21.45.41.68.6l.69.57.71.53c.48.35 1 .67 1.46 1s1 .58 1.5.86a166.35 166.35 0 0 0 81.44 21.18c92.31 0 167.42-75.11 167.42-167.42a166.31 166.31 0 0 0 -19.57-78.49c-.35-.67-.71-1.33-1.08-2s-.74-1.33-1.12-2-.75-1.31-1.13-2l-1.17-1.95c-.39-.65-.79-1.29-1.2-1.91s-.84-1.23-1.27-1.82-.88-1.17-1.33-1.73-.91-1.12-1.38-1.66-.95-1.06-1.43-1.58-1-1-1.48-1.52-1-1-1.52-1.48l-1.55-1.43c-.52-.47-1.06-.92-1.59-1.37s-1.09-.89-1.64-1.32-1.11-.86-1.68-1.28l-1.69-1.24-1.71-1.25-1.72-1.21-1.71-1.28c-.57-.43-1.14-.86-1.7-1.31s-1.13-.89-1.69-1.36-1.11-.93-1.67-1.41-1.1-1-1.64-1.48-1.09-1-1.63-1.55-1.07-1.07-1.59-1.63c-.27-.27-.53-.55-.79-.83l-.79-.86-.77-.87-.78-.89-.76-.9c-.26-.3-.51-.61-.76-.92s-.51-.61-.76-.92l-.76-1-.75-.95-.75-.95-.75-1-.75-1-.75-1-.76-1-.76-1-.76-1-.77-.94-.78-.94-.79-.92-.8-.9-.81-.87c-.28-.29-.55-.58-.83-.86l-.84-.82-.86-.79-.88-.77-.89-.73-.91-.71c-.3-.24-.61-.47-.92-.69-.62-.46-1.25-.89-1.88-1.31s-1.29-.81-1.95-1.2l-2-1.14-2-1.11a166.46 166.46 0 0 0 -80.43-20.38z"/><path d="m408.23 595.17a185.83 185.83 0 0 1 -91.3-23.85c-.5-.28-1-.56-1.49-.85s-1-.61-1.47-.94l-.71-.51-.7-.54c-.24-.19-.47-.37-.7-.57s-.46-.38-.68-.58l-.68-.62-.67-.63-.66-.65-.65-.67-.64-.68c-.22-.23-.43-.47-.64-.7s-.41-.49-.62-.74-.39-.51-.58-.78-.38-.54-.56-.82-.37-.57-.54-.87-.34-.6-.5-.9-.32-.63-.47-.95-.3-.65-.44-1-.28-.67-.41-1-.25-.7-.37-1.05-.24-.71-.34-1.07-.21-.73-.3-1.1-.17-.73-.25-1.1-.15-.74-.21-1.11-.13-.73-.19-1.09l-.15-1.08c-.05-.36-.09-.71-.13-1.06l-.12-1c0-.34-.07-.68-.1-1l-.09-1-.09-1c0-.32 0-.64-.08-.95s-.06-.63-.09-.93-.06-.61-.09-.9l-.09-.88c-.06-.57-.13-1.13-.21-1.67s-.17-1.06-.26-1.56-.2-1-.32-1.45-.25-.91-.4-1.33a10.88 10.88 0 0 0 -.48-1.21 9.26 9.26 0 0 0 -.58-1.08 8.07 8.07 0 0 0 -.7-.93 6.2 6.2 0 0 0 -.82-.8 6 6 0 0 0 -1-.65 7.36 7.36 0 0 0 -1.1-.5 9.42 9.42 0 0 0 -1.27-.36 12.2 12.2 0 0 0 -1.44-.2c-.51 0-1-.07-1.61-.07-.28 0-.57 0-.87 0h-.91l-1 .07-1 .09-1 .11-1.08.12-1.11.12-1.14.12-1.13.18-1.19.08c-.4 0-.8.05-1.21.06h-1.22-1.23c-.4 0-.81-.05-1.22-.1s-.82-.09-1.23-.16-.81-.14-1.21-.23-.8-.2-1.2-.32-.8-.26-1.19-.41-.78-.32-1.17-.51-.77-.39-1.14-.62-.75-.46-1.12-.71-.72-.51-1.07-.78-.7-.56-1-.84l-1-.86-1-.84-.93-.84c-.31-.27-.61-.55-.9-.82l-.85-.82-.82-.8c-.26-.26-.52-.52-.76-.78s-.49-.52-.72-.78-.46-.5-.67-.75l-.63-.74-.61-.73-.59-.73c-.2-.24-.39-.49-.58-.73l-.57-.73-.56-.73-.53-.73c-.18-.24-.35-.48-.52-.73-.35-.48-.68-1-1-1.44l-.93-1.45a185.83 185.83 0 0 1 -29.15-100.14c0-103.08 83.87-187 187-187a185.85 185.85 0 0 1 91 23.69c.66.37 1.31.74 2 1.13a20.85 20.85 0 0 1 1.91 1.25c.31.22.62.46.92.7s.59.5.88.76.58.53.86.81.56.57.84.87.54.6.81.91.52.63.78 1 .51.67.75 1 .49.7.73 1.06.47.73.7 1.11.46.75.68 1.14l.66 1.18c.21.39.43.79.64 1.2s.42.82.62 1.23.41.83.61 1.25.41.84.6 1.26l.6 1.27c.2.42.39.85.59 1.27s.39.85.59 1.28l.58 1.27c.2.42.4.84.59 1.26l.6 1.25c.2.41.4.83.6 1.23s.4.81.61 1.22l.61 1.19.63 1.16.65 1.14c.21.37.43.74.65 1.11s.45.72.68 1.07.45.7.68 1l.71 1 .72 1 .74.93c.25.3.51.59.76.88s.52.58.78.85c.53.55 1.07 1.08 1.62 1.58s1.11 1 1.69 1.42 1.16.86 1.76 1.26 1.21.77 1.83 1.12 1.24.69 1.88 1 1.28.61 1.93.88 1.31.55 2 .8l2 .73 2 .68 2 .66 2 .66 2 .69c.64.24 1.28.49 1.91.76s1.24.54 1.85.83 1.21.59 1.81.9 1.18.65 1.75 1 1.15.71 1.7 1.1 1.1.79 1.63 1.22 1 .89 1.55 1.37 1 1 1.45 1.52.94 1.07 1.39 1.62.9 1.12 1.34 1.7.86 1.18 1.27 1.8.82 1.24 1.21 1.88l1.17 1.94c.38.65.76 1.3 1.13 1.95a185.73 185.73 0 0 1 24.81 93c-.15 103.02-84.01 186.88-187.09 186.88zm0-371.38c-101.7 0-184.44 82.74-184.44 184.44a183.36 183.36 0 0 0 28.49 98.39q.45.72.93 1.44c.32.49.65 1 1 1.45.17.25.34.49.52.73s.35.49.54.73.36.49.55.73l.57.73c.19.24.38.49.58.73l.59.73.61.74.63.73.67.74.71.76c.24.26.5.52.75.78l.81.78.84.81.88.81.92.83.95.83c.33.28.65.56 1 .83s.67.55 1 .81.71.49 1.07.73.74.45 1.12.65.77.41 1.16.59.79.35 1.2.5.81.29 1.22.41.82.22 1.23.31.83.17 1.25.23.83.12 1.24.16l1.25.09h1.24 1.22 1.21l1.17-.06 1.15-.08 1.12-.08 1.08-.09 1-.07 1-.06h1 1.79.82c.54 0 1.05.09 1.53.16a13.21 13.21 0 0 1 1.37.29 10.1 10.1 0 0 1 1.21.42 8.17 8.17 0 0 1 1.02.56 6.22 6.22 0 0 1 .93.69 6.9 6.9 0 0 1 .8.82 7.45 7.45 0 0 1 .69.95 11.1 11.1 0 0 1 .59 1.08c.18.39.34.79.49 1.21s.29.87.42 1.33.24.94.34 1.44.2 1 .29 1.56.17 1.09.25 1.66l.12.87c0 .3.07.6.1.9s.08.61.11.92.07.63.11 1 .07.65.11 1l.12 1 .12 1c.05.34.09.69.14 1s.11.7.16 1.06.12.72.19 1.08.13.72.21 1.09.15.72.24 1.08.18.71.28 1.06.2.71.31 1.06.23.69.35 1 .25.67.38 1 .27.65.41 1 .29.62.44.92.31.59.48.88.33.56.5.83.36.54.54.79.37.51.57.76l.59.72.62.72.63.71c.21.24.42.47.64.7s.43.46.65.68.43.45.65.67l.66.64.68.62.68.59.69.57.7.55.71.51c.48.33 1 .65 1.46.94l1.5.85a183.36 183.36 0 0 0 89.54 23.23c101.7 0 184.44-82.74 184.44-184.44a183.24 183.24 0 0 0 -24.09-91.06c-.37-.66-.75-1.31-1.13-2s-.77-1.3-1.16-1.95-.79-1.28-1.2-1.9-.84-1.22-1.27-1.81-.88-1.16-1.33-1.71-.92-1.1-1.39-1.63-1-1-1.44-1.55-1-1-1.52-1.42-1-.88-1.6-1.28-1.11-.79-1.68-1.15-1.15-.71-1.74-1-1.18-.65-1.79-1-1.21-.6-1.82-.88-1.24-.57-1.87-.84-1.26-.53-1.91-.78-1.29-.51-1.94-.75l-2-.75-2-.76-2-.81c-.65-.28-1.29-.57-1.93-.87s-1.27-.63-1.9-1-1.24-.69-1.85-1.07-1.21-.76-1.8-1.18-1.17-.85-1.74-1.32-1.12-.94-1.67-1.46-1.08-1-1.6-1.61c-.27-.28-.52-.56-.78-.86s-.51-.59-.76-.89l-.74-.93c-.25-.32-.49-.64-.73-1l-.71-1-.69-1c-.23-.35-.45-.71-.68-1.07l-.66-1.1-.66-1.12c-.21-.38-.43-.76-.64-1.15l-.64-1.17c-.2-.4-.41-.79-.62-1.19l-.62-1.21c-.21-.41-.41-.81-.61-1.22l-.62-1.23c-.2-.41-.4-.82-.61-1.23s-.41-.83-.61-1.24l-.62-1.23c-.21-.41-.42-.82-.62-1.23l-.64-1.21-.64-1.2-.66-1.17-.68-1.15c-.23-.37-.46-.75-.7-1.11s-.47-.73-.71-1.08l-.75-1c-.25-.34-.5-.67-.76-1s-.52-.64-.79-.95l-.81-.92-.84-.86c-.28-.29-.57-.56-.86-.82s-.58-.52-.88-.77a22.23 22.23 0 0 0 -1.86-1.37c-.63-.41-1.29-.8-1.94-1.17l-2-1.11a183.26 183.26 0 0 0 -88.89-23.01z"/><path d="m408.23 612.19a202.76 202.76 0 0 1 -106.33-30c-.49-.31-1-.62-1.47-1-.25-.17-.49-.35-.74-.54l-.73-.58-.72-.63c-.25-.21-.49-.44-.73-.67l-.72-.72c-.23-.25-.47-.52-.7-.79s-.47-.54-.7-.83l-.69-.89c-.22-.31-.45-.62-.67-.94s-.45-.65-.66-1-.43-.68-.63-1-.4-.7-.6-1.06l-.55-1.07c-.18-.36-.35-.72-.52-1.07s-.33-.72-.48-1.07-.31-.71-.45-1-.27-.7-.39-1-.25-.68-.36-1-.21-.66-.31-1-.2-.65-.29-1-.17-.64-.25-1-.16-.62-.23-.93-.15-.61-.22-.91-.13-.6-.19-.9-.13-.58-.19-.87l-.18-.85c0-.28-.11-.56-.16-.84s-.11-.55-.17-.82-.1-.53-.16-.8l-.15-.78c-.11-.51-.22-1-.33-1.51s-.23-1-.35-1.45-.26-.92-.4-1.36-.3-.87-.47-1.28a10.64 10.64 0 0 0 -.55-1.18 8.72 8.72 0 0 0 -.68-1.06 6.48 6.48 0 0 0 -.82-.91 7.32 7.32 0 0 0 -1-.76 8 8 0 0 0 -1.17-.58 8.88 8.88 0 0 0 -1.35-.42 13.45 13.45 0 0 0 -1.53-.28c-.27 0-.54-.07-.83-.09l-.87-.06h-.92-2.92-1-3.18-1.07l-1.08-.06-1.07-.1-1.07-.15-1.05-.21c-.34-.07-.69-.16-1-.26s-.68-.2-1-.32l-1-.35c-.34-.12-.67-.25-1-.38l-1-.4-1-.44-.94-.47q-.48-.24-.93-.51c-.31-.17-.61-.35-.91-.54l-.89-.59c-.29-.2-.57-.41-.86-.63s-.56-.45-.83-.69-.54-.47-.81-.73-.52-.51-.78-.78l-.75-.8c-.26-.27-.5-.54-.75-.81s-.49-.53-.73-.79l-.72-.8-.69-.78-.68-.78-.65-.77c-.21-.26-.43-.51-.63-.77l-.63-.78-.58-.75-.56-.73-.53-.72-.51-.71c-.33-.47-.67-.94-1-1.41a202.83 202.83 0 0 1 -36.6-116.45c0-112.47 91.5-204 204-204a202.65 202.65 0 0 1 97.63 24.93c.66.36 1.32.72 2 1.09s1.31.76 1.95 1.16a21.74 21.74 0 0 1 1.86 1.33c.3.24.59.49.88.75s.58.52.86.8.55.55.82.84.54.6.8.91.51.63.76 1 .48.68.72 1 .46.73.68 1.11.44.76.65 1.16.42.8.62 1.21.4.84.59 1.27.38.88.57 1.32l.54 1.37c.18.46.35.93.52 1.4s.34 1 .5 1.43.33 1 .49 1.46.31 1 .47 1.48.31 1 .46 1.5l.45 1.51c.15.5.3 1 .46 1.51l.45 1.5.45 1.5c.15.5.3 1 .46 1.49s.31 1 .47 1.47.31 1 .47 1.44.33.95.5 1.41.33.93.51 1.38.34.9.52 1.34.37.88.55 1.3.38.85.57 1.26l.6 1.2c.21.39.41.77.63 1.15s.43.74.65 1.09.45.71.68 1 .47.67.71 1 .49.62.74.92.51.58.78.85a16.68 16.68 0 0 0 1.64 1.52 18 18 0 0 0 1.77 1.28 20.32 20.32 0 0 0 1.88 1c.65.31 1.31.59 2 .84s1.37.47 2.08.66 1.42.36 2.15.51 1.46.27 2.21.38 1.49.21 2.24.29 1.52.16 2.28.23l2.29.19 2.28.19c.76.06 1.51.13 2.26.21s1.49.16 2.22.26 1.46.21 2.17.34 1.41.28 2.1.45 1.36.36 2 .58 1.3.47 1.92.75a17.08 17.08 0 0 1 1.8.94 19.07 19.07 0 0 1 1.68 1.14c.54.43 1.06.87 1.57 1.34s1 1 1.48 1.5.93 1.08 1.38 1.66.87 1.18 1.3 1.79.83 1.24 1.24 1.86a202.77 202.77 0 0 1 33 111.16c.01 112.55-91.49 204.05-203.95 204.05zm0-405.43c-111.09 0-201.47 90.38-201.47 201.47a200.33 200.33 0 0 0 34.94 113.27l1 1.42c.33.48.66 1 1 1.42l.53.72.56.73.58.74.6.75.64.77.65.77.68.78c.23.26.46.53.7.79l.72.79.74.81.75.8.78.82.82.81c.27.27.56.54.84.79s.58.5.88.73.59.47.9.69.61.43.92.64l1 .59 1 .55 1 .51 1 .47 1 .44c.33.14.67.27 1 .4s.69.24 1 .34.7.18 1.06.26.72.14 1.09.2.73.1 1.09.13.74.07 1.11.09h1.11 1.12 1.11 1.1l1.09-.05 1.08-.07 1.05-.13 1-.07 1-.06h1 1 .91c.59 0 1.16 0 1.7.1a13.21 13.21 0 0 1 1.51.25 7.92 7.92 0 0 1 1.3.42 5.94 5.94 0 0 1 1.11.61 5.33 5.33 0 0 1 .92.79 6.44 6.44 0 0 1 .74 1 8.43 8.43 0 0 1 .6 1.11 11.57 11.57 0 0 1 .48 1.25c.14.43.27.88.38 1.34s.22 1 .31 1.44.18 1 .27 1.52.16 1 .24 1.58l.12.82.12.84.12.85c0 .29.09.58.13.87s.09.58.14.88l.15.91c.05.3.11.61.17.92l.18.94c.07.31.13.63.2 1s.15.65.23 1 .16.66.25 1 .19.68.29 1 .21.69.32 1 .23.71.36 1.07.27.72.42 1.09.29.73.45 1.1.32.74.49 1.1.35.74.53 1.1.37.73.56 1.08.39.7.6 1 .41.67.63 1 .43.65.66 1 .44.62.67.91.45.58.68.86l.69.8c.24.25.47.5.71.73s.47.47.71.68.48.42.72.61.49.38.73.56l.73.5c.49.32 1 .62 1.48.92a200.2 200.2 0 0 0 104.57 29.32c111.08 0 201.46-90.38 201.46-201.46a200.25 200.25 0 0 0 -31.07-107.38c-.4-.64-.8-1.27-1.21-1.9s-.83-1.25-1.26-1.85-.86-1.2-1.31-1.77-.91-1.13-1.39-1.65-1-1-1.5-1.47-1-.9-1.58-1.31a18.33 18.33 0 0 0 -3.46-2.11c-.62-.28-1.25-.54-1.9-.77s-1.32-.43-2-.61-1.37-.33-2.08-.47-1.43-.27-2.15-.38-1.46-.21-2.2-.3l-2.24-.26-2.25-.23-2.26-.25c-.75-.09-1.5-.19-2.24-.3s-1.49-.22-2.22-.36-1.46-.28-2.17-.45-1.42-.37-2.12-.58-1.37-.46-2-.74-1.32-.57-1.95-.9-1.26-.71-1.86-1.11a20.15 20.15 0 0 1 -1.74-1.34 19.91 19.91 0 0 1 -1.62-1.57c-.26-.28-.52-.57-.77-.87s-.49-.62-.74-.94-.47-.65-.7-1-.46-.69-.68-1.05l-.66-1.1c-.21-.38-.42-.76-.62-1.15s-.41-.79-.6-1.2-.39-.83-.58-1.25-.38-.86-.56-1.29l-.54-1.33c-.17-.45-.34-.91-.52-1.37s-.33-.93-.5-1.4-.33-.95-.49-1.43l-.48-1.44-.48-1.47c-.15-.49-.31-1-.46-1.48s-.32-1-.47-1.48l-.47-1.49c-.16-.49-.31-1-.47-1.48l-.48-1.47c-.16-.49-.33-1-.49-1.46s-.33-1-.5-1.43-.35-1-.52-1.41l-.54-1.37c-.19-.46-.37-.9-.56-1.34s-.39-.87-.59-1.29-.4-.84-.61-1.25-.42-.8-.64-1.19-.44-.77-.67-1.13-.47-.73-.71-1.08-.49-.68-.74-1-.52-.64-.78-.94-.54-.6-.82-.87l-.85-.82a22.52 22.52 0 0 0 -1.8-1.46c-.61-.45-1.25-.86-1.9-1.26s-1.3-.76-2-1.13l-2-1.09a200.27 200.27 0 0 0 -95.74-24.25z"/><path d="m408.23 629.21a219.75 219.75 0 0 1 -117.35-33.79l-1.45-.93c-.48-.31-1-.63-1.45-1l-.72-.54-.72-.56-.71-.6-.72-.62-.71-.65c-.24-.21-.47-.44-.71-.66l-.71-.69-.71-.71-.7-.72-.7-.73-.7-.75-.7-.76-.7-.77-.69-.78-.69-.78c-.22-.26-.45-.51-.67-.76l-.66-.76-.65-.74-.64-.74-.64-.72-.62-.7-.62-.7-.61-.68-.6-.67-1.19-1.3-1.17-1.25-1.16-1.2-1.16-1.13c-.38-.37-.75-.74-1.12-1.09s-.75-.71-1.12-1.05-.74-.68-1.12-1-.75-.65-1.13-1-.76-.62-1.15-.92l-1.17-.88-1.19-.84c-.41-.27-.81-.54-1.23-.8s-.82-.52-1.24-.77l-1.27-.76-.65-.37-.61-.34c-.21-.13-.43-.25-.65-.37l-.65-.37-.66-.36-.66-.38-.67-.37-.66-.39-.66-.4-.67-.4-.66-.43-.66-.43-.66-.46-.65-.48-.66-.51-.65-.53-.65-.56c-.22-.19-.44-.39-.65-.6l-.65-.62c-.21-.22-.43-.44-.64-.67l-.64-.69-.63-.71-.63-.72-.62-.71-.61-.71c-.21-.23-.41-.47-.61-.71l-.6-.7-.6-.71c-.2-.23-.39-.47-.58-.7l-.58-.7-.57-.7-.55-.69-1.09-1.37-1.05-1.36a219.84 219.84 0 0 1 -45.58-134.27c0-121.86 99.13-221 221-221a219.58 219.58 0 0 1 105.5 26.85l2 1.1 2 1.13c.66.38 1.3.79 1.93 1.21s1.25.87 1.86 1.33 1.2 1 1.77 1.48c.29.26.57.54.84.82s.55.56.82.86.53.6.79.91.51.63.76 1 .5.65.74 1l.72 1c.23.35.47.71.69 1.08s.46.73.68 1.11.44.76.66 1.14.43.78.64 1.18.41.81.61 1.23.4.84.59 1.27.37.88.56 1.33.36.9.53 1.37.35.93.52 1.4.33.95.5 1.43l.48 1.46c.16.49.32 1 .47 1.48s.32 1 .47 1.49.31 1 .46 1.5.31 1 .47 1.5l.46 1.48.48 1.48.48 1.45c.16.48.33.95.5 1.42s.34.93.52 1.38.35.9.53 1.34.38.87.57 1.29.39.84.59 1.24.41.79.62 1.17l.66 1.11c.23.36.46.71.69 1s.48.66.73 1 .51.6.78.89a15 15 0 0 0 1.66 1.54 14.69 14.69 0 0 0 1.82 1.25 16.16 16.16 0 0 0 1.95 1 19.09 19.09 0 0 0 2.08.75c.71.21 1.43.4 2.17.55s1.49.29 2.25.4l1.15.15 1.16.13 1.17.11 1.17.1 1.18.09 1.18.08 1.18.08 1.18.09 1.17.09 1.16.11c.77.07 1.54.16 2.29.26s1.5.21 2.24.35 1.46.29 2.17.47 1.4.38 2.08.61 1.34.48 2 .77a18.38 18.38 0 0 1 1.88.95 20.51 20.51 0 0 1 1.77 1.14 21.12 21.12 0 0 1 1.65 1.35 20.23 20.23 0 0 1 1.53 1.54c.49.54 1 1.11 1.42 1.71s.89 1.22 1.33 1.84a219.72 219.72 0 0 1 41.36 128.59c-.06 121.85-99.19 220.98-221.04 220.98zm0-439.47c-120.48 0-218.49 98-218.49 218.49a217.34 217.34 0 0 0 43.85 131.15c.34.46.69.91 1 1.37l1.07 1.38.55.7.57.7.57.71c.19.24.39.48.59.71l.59.72.6.72.61.72.62.72.62.72.63.72c.21.25.43.49.64.73l.64.71c.22.23.43.45.65.66s.43.43.65.63.44.4.66.59.44.38.67.56.44.36.67.53l.68.49.68.47.68.44.69.42.7.4.69.39.69.37.7.36.69.35.69.34.69.34.69.34.68.33.68.34.67.34.67.35c.23.11.45.23.67.35l1.32.73c.43.25.86.5 1.28.76l1.25.8 1.2.85c.39.28.77.58 1.15.88s.75.61 1.11.93.72.64 1.07 1 .7.67 1.05 1l1 1.06c.34.36.68.73 1 1.1s.68.76 1 1.16l1 1.2 1.07 1.27.55.65.57.67.59.69.59.7.6.71c.2.24.41.48.61.73s.41.49.62.74l.63.75.64.76.65.78.66.79.67.8.69.81.69.81.7.8c.23.27.47.53.7.79l.7.77.71.76c.23.25.47.5.71.74s.47.49.7.73l.71.7.72.67.71.66.72.62.72.6.72.56c.24.19.48.36.72.53s.48.34.73.5c.48.32 1 .62 1.45.93a217.27 217.27 0 0 0 115.59 33.14c120.47 0 218.48-98 218.48-218.48a217.27 217.27 0 0 0 -39.59-125.31l-1.3-1.83c-.44-.6-.88-1.2-1.34-1.77a20.67 20.67 0 0 0 -1.44-1.63 19 19 0 0 0 -1.56-1.43 18 18 0 0 0 -1.7-1.2 19.93 19.93 0 0 0 -1.81-1c-.63-.3-1.27-.57-1.93-.81s-1.34-.45-2-.64-1.39-.35-2.11-.49-1.46-.26-2.2-.36-1.5-.19-2.26-.26-1.53-.13-2.3-.18l-1.17-.07-1.17-.06-1.18-.05-1.18-.06-1.17-.06-1.18-.06-1.17-.08-1.16-.1c-.77-.07-1.53-.15-2.29-.26s-1.5-.23-2.23-.38-1.45-.33-2.15-.54a20.9 20.9 0 0 1 -2.05-.75 15.77 15.77 0 0 1 -1.92-1 13.6 13.6 0 0 1 -1.79-1.24 14.92 14.92 0 0 1 -1.64-1.55c-.26-.29-.51-.58-.75-.89s-.49-.63-.72-1-.46-.68-.68-1-.44-.72-.64-1.1-.42-.77-.61-1.18-.39-.81-.58-1.23-.37-.86-.55-1.3-.35-.88-.52-1.34-.34-.92-.5-1.39-.33-.94-.49-1.42-.31-1-.46-1.46l-.46-1.48c-.14-.5-.29-1-.44-1.51s-.29-1-.44-1.51l-.44-1.52c-.14-.51-.29-1-.44-1.52s-.29-1-.44-1.51-.31-1-.46-1.49-.31-1-.46-1.47-.32-1-.48-1.44-.33-1-.5-1.41-.35-.93-.52-1.38-.36-.89-.55-1.33-.38-.86-.57-1.28-.4-.83-.6-1.23-.42-.79-.63-1.17-.43-.76-.66-1.13-.44-.73-.67-1.09-.46-.71-.69-1.05-.48-.69-.72-1-.49-.66-.74-1-.5-.63-.76-.93-.53-.6-.8-.88-.54-.57-.81-.84a22.17 22.17 0 0 0 -1.72-1.53c-.6-.47-1.2-.92-1.83-1.34s-1.25-.83-1.9-1.21-1.3-.76-2-1.12l-2-1.09a217 217 0 0 0 -104.13-26.57z"/><path d="m408.23 646.23a236.8 236.8 0 0 1 -144.9-49.3l-1.33-1.06-1.36-1.07-1.35-1.09-1.34-1.1-1.33-1.11-1.33-1.11-1.32-1.11-1.31-1.12-1.3-1.12-1.36-1.14-1.28-1.14-1.28-1.16-1.26-1.17c-.43-.39-.85-.79-1.26-1.18l-1.25-1.19-1.25-1.2-1.23-1.2-1.19-1.22-1.22-1.22-1.2-1.23-1.2-1.24a237.19 237.19 0 0 1 -66.17-164.52c0-131.24 106.77-238 238-238a236.63 236.63 0 0 1 118.07 31.4l2 1.14 2 1.16c.64.39 1.29.79 1.92 1.21s1.26.84 1.87 1.29 1.21.9 1.81 1.37 1.18 1 1.76 1.45 1.15 1 1.71 1.51 1.13 1.05 1.68 1.58l.82.82c.28.27.55.55.82.83l.79.86c.27.29.53.59.79.89l.77.91.75.93c.26.31.5.63.75 1l.74 1 .73 1 .73 1 .72 1 .72 1 .72 1 .72 1 .71 1 .73 1 .72 1 .74 1 .74 1c.24.31.49.63.74.93l.76.92.77.9.78.87c.26.29.52.58.79.86.53.56 1.07 1.1 1.62 1.63s1.11 1 1.67 1.53 1.14 1 1.73 1.42 1.17.9 1.77 1.32 1.21.84 1.82 1.24 1.24.78 1.86 1.15 1.26.74 1.89 1.1l1.91 1.05 1.92 1 1.92 1c.64.33 1.28.67 1.91 1s1.27.69 1.89 1l1.87 1.09c.62.37 1.23.75 1.83 1.15s1.19.8 1.78 1.22 1.16.86 1.73 1.31 1.12.93 1.66 1.41 1.08 1 1.6 1.51 1 1 1.55 1.58 1 1.09 1.5 1.65 1 1.14 1.43 1.73.93 1.18 1.39 1.78a236.84 236.84 0 0 1 49 144.46c-.1 131.07-106.87 237.84-238.1 237.84zm0-473.51c-129.86 0-235.51 105.65-235.51 235.51a234.6 234.6 0 0 0 61.91 159q.57.63 1.17 1.26l1.17 1.26 1.2 1.25c.39.42.8.83 1.2 1.24s.81.83 1.21 1.24l1.23 1.23 1.23 1.22c.41.4.82.81 1.24 1.2s.83.8 1.24 1.18l1.25 1.15 1.26 1.12 1.26 1.11 1.26 1.09 1.28 1.09 1.28 1.09 1.29 1.1 1.3 1.11 1.32 1.12 1.32 1.12 1.34 1.13 1.34 1.13c.44.38.89.76 1.35 1.13l.67.57.68.56 1.37 1.11 1.37 1.1 1.38 1.07c.46.36.92.7 1.39 1l1.4 1a234.21 234.21 0 0 0 137.6 44.48c129.85 0 235.5-105.65 235.5-235.5a234.22 234.22 0 0 0 -46.85-140.82c-.45-.61-.9-1.21-1.36-1.81s-.92-1.19-1.4-1.77-1-1.15-1.46-1.7-1-1.09-1.52-1.62-1-1-1.58-1.53-1.09-1-1.66-1.42-1.14-.89-1.72-1.3-1.19-.82-1.79-1.2-1.22-.75-1.85-1.11-1.25-.7-1.89-1-1.28-.66-1.93-1-1.29-.63-2-.94l-2-.91-2-.91-2-.9c-.66-.3-1.32-.61-2-.93s-1.31-.65-2-1-1.28-.69-1.91-1.06-1.25-.76-1.86-1.18-1.21-.84-1.79-1.29-1.16-.93-1.73-1.44-1.11-1-1.65-1.57l-.8-.84-.78-.87-.77-.91q-.37-.45-.75-.93c-.25-.31-.49-.63-.74-1l-.73-1-.72-1-.71-1-.71-1c-.24-.34-.47-.68-.7-1l-.7-1-.69-1.05-.69-1.06-.69-1.06-.5-1.06c-.23-.36-.46-.71-.7-1.06l-.69-1.05c-.24-.34-.47-.69-.7-1l-.71-1-.72-1-.73-1-.75-1c-.24-.32-.5-.63-.75-.94s-.51-.62-.77-.92-.52-.6-.79-.89-.53-.58-.8-.86-.54-.56-.82-.83l-.83-.8c-.56-.53-1.13-1.05-1.7-1.56s-1.16-1-1.75-1.47-1.19-.94-1.8-1.39-1.23-.89-1.86-1.31-1.27-.83-1.92-1.22-1.31-.78-2-1.16a234 234 0 0 0 -118.08-31.82z"/><path d="m408.23 663.26c-140.63 0-255-114.41-255-255a254.14 254.14 0 0 1 68.88-174.16l1.17-1.24 1.18-1.23 1.17-1.22c.4-.4.79-.81 1.18-1.21l1.19-1.2 1.19-1.19c.39-.4.79-.79 1.19-1.18l1.21-1.18 1.23-1.17 1.25-1.18 1.25-1.17 1.26-1.16 1.27-1.16 1.29-1.15 1.29-1.14 1.3-1.12 1.32-1.1c.43-.37.87-.73 1.31-1.09l1.32-1.08 1.33-1.06 1.33-1.06 1.34-1 1.35-1.05 1.36-1.05 1.37-1 1.37-1 1.39-1.05 1.4-1.05 1.4-1 1.42-1 1.42-1c.48-.35.95-.69 1.43-1l1.44-1 1.44-1 1.44-1 1.45-.95 1.45-.94 1.45-.93a254.61 254.61 0 0 1 274.22 1.21l1.89 1.23 1.88 1.26 1.87 1.27 1.85 1.31c.61.44 1.21.89 1.81 1.35s1.2.92 1.79 1.38l1.77 1.42 1.74 1.45c.58.48 1.15 1 1.73 1.47l1.71 1.48 1.71 1.49 1.7 1.5 1.69 1.5 1.69 1.51 1.69 1.5 1.69 1.49 1.68 1.49 1.69 1.49 1.69 1.48 1.69 1.47 1.69 1.48 1.68 1.48 1.67 1.47 1.67 1.49 1.65 1.5 1.64 1.51 1.62 1.54q.8.76 1.59 1.56c.53.52 1.05 1 1.57 1.59s1 1.08 1.54 1.63 1 1.1 1.51 1.66l1.49 1.69 1.47 1.71a253.91 253.91 0 0 1 61 165.37c.02 140.63-114.38 255.04-255 255.04zm0-507.56a251 251 0 0 0 -137.15 40.57l-1.44.94-1.44.95-1.43 1-1.43 1-1.42 1-1.42 1-1.41 1c-.47.34-.94.68-1.4 1s-.94.68-1.4 1l-1.39 1-1.37 1-1.37 1-1.36 1.05-1.35 1.06-1.34 1.06-1.33 1.07-1.32 1.08-1.32 1.08-1.3 1.1-1.3 1.11-1.29 1.23-1.25 1.16-1.28 1.14-1.27 1.16-1.26 1.16-1.26 1.17-1.28 1.21-1.23 1.17-1.22 1.18-1.2 1.16-1.2 1.19-1.2 1.21-1.2 1.22a251.7 251.7 0 0 0 -71.69 176.1c0 139.24 113.28 252.53 252.53 252.53s252.51-113.29 252.51-252.53a251.33 251.33 0 0 0 -58.82-161.84c-.48-.58-1-1.16-1.45-1.73s-1-1.14-1.48-1.7-1-1.13-1.5-1.67-1-1.09-1.55-1.63-1-1.06-1.57-1.58l-1.6-1.55-1.63-1.53-1.65-1.5-1.67-1.5-1.68-1.46c-.56-.49-1.12-1-1.69-1.46l-1.69-1.46-1.7-1.45-1.7-1.46-1.7-1.47-1.67-1.44-1.69-1.49-1.69-1.5-1.69-1.5-1.68-1.52-1.68-1.52-1.68-1.53-1.68-1.53-1.69-1.52-1.7-1.52-1.7-1.5-1.73-1.49c-.57-.49-1.15-1-1.74-1.46s-1.17-.95-1.76-1.42l-1.79-1.4c-.61-.45-1.21-.9-1.83-1.34s-1.23-.88-1.86-1.3l-1.92-1.26-1.9-1.23-1.91-1.22a251 251 0 0 0 -134.45-38.85z"/><path d="m408.23 680.28c-150 0-272.06-122-272.06-272a270.82 270.82 0 0 1 63.83-174.95l1.08-1.28c.37-.43.73-.86 1.1-1.28l1.09-1.26 1.07-1.24 1.07-1.22c.35-.4.69-.8 1-1.19l1-1.16 1-1.14 1-1.09c.33-.36.67-.71 1-1.06s.67-.68 1-1 .67-.65 1-1 .67-.64 1-1l1-.93 1.07-.94 1.08-.93 1.09-.93 1.11-.93 1.14-.92c.39-.3.77-.61 1.17-.91l1.2-.9c.4-.31.81-.61 1.23-.91s.83-.61 1.26-.91l1.3-.91 1.32-.91 1.35-.91 1.38-.92 1.41-.94 1.42-1 1.46-1 1.47-1 .74-.51.75-.51.75-.52.75-.53.76-.53.76-.54.75-.54.76-.56.76-.56.75-.56.76-.58.75-.58.75-.58.74-.59.74-.59.74-.6.73-.61.73-.6.73-.62.73-.61.74-.62.73-.63.73-.64.73-.64.74-.66c.25-.22.5-.44.74-.67l.75-.68.75-.69.75-.7.75-.71.75-.71c.26-.23.51-.47.76-.71s.51-.47.76-.71l.76-.7.77-.71.76-.69.76-.69.77-.67.76-.65.76-.63.76-.61.77-.59c.25-.19.5-.38.76-.56l.75-.53.76-.49.75-.48 1.5-.89 1.51-.87a270.4 270.4 0 0 1 134.7-35.75c150 0 272 122.05 272 272.06s-121.84 272.21-271.85 272.21zm0-541.6a267.86 267.86 0 0 0 -134.44 36l-1.51.87-1.49.89-.75.46-.75.48-.75.51c-.25.17-.51.35-.76.54l-.78.57-.76.58-.76.6-.75.62-.76.63-.76.64-.75.66-.76.66-.7.61-.76.67-.75.67c-.25.22-.5.44-.74.67l-.75.66-.74.66-.74.66-.74.64-.74.64-.73.63-.73.62-.72.6-.72.6-.73.59-.72.58-.72.59-.72.58-.73.57-.72.58-.73.57-.73.57-.74.57-.74.56-.74.56-.74.56-.74.55-.75.55-.74.54-.74.54-.74.54-.74.53-.74.52-1.46 1-1.45 1-1.42 1-1.41 1-1.38 1-1.36 1-1.34 1-1.31 1-1.27 1-1.25 1-1.21 1-1.18 1-1.16 1-1.13 1-1.11 1-1.1 1-1.08 1-1.06 1-1 1c-.35.34-.69.68-1 1s-.69.71-1 1.07l-1 1.1c-.35.37-.69.75-1 1.13l-1 1.17-1.05 1.19-1.07 1.22-1.09 1.24c-.36.41-.73.83-1.09 1.26l-1.11 1.28c-.37.42-.73.85-1.1 1.29a268.36 268.36 0 0 0 -64.08 174.29c0 148.63 120.92 269.55 269.55 269.55s269.31-121.3 269.31-269.93-120.92-269.55-269.55-269.55z"/><path d="m408.23 697.3c-159.4 0-289.08-129.68-289.08-289.07a287.55 287.55 0 0 1 55.08-169.56c.64-.88 1.29-1.76 1.94-2.63s1.3-1.75 2-2.61l2-2.56 2-2.51c.67-.83 1.34-1.65 2-2.46s1.35-1.62 2-2.42l1-1.2 1-1.18 1-1.15 1-1.13c.35-.37.69-.74 1-1.1l1-1.07 1-1 1-1 1-1 .95-.91.94-.85c.31-.27.62-.54.93-.79s.61-.51.91-.75l.91-.7.9-.66.91-.64.9-.61.91-.6.91-.59.92-.58.92-.59.94-.59.95-.58 1-.58 1-.57 1-.56 1-.55 1.06-.54 1.09-.53 1.12-.53 1.15-.54 1.2-.54 1.24-.54 1.27-.56 1.32-.57 1.48-.6 1.38-.65 1.42-.69 1.45-.74.74-.4.75-.41.75-.43.77-.44.76-.47.78-.49.79-.5.79-.53.79-.55.8-.58.81-.61q.4-.3.81-.63c.28-.21.55-.43.82-.65l.82-.69c.28-.23.55-.47.82-.72l.83-.74.82-.77c.28-.26.55-.53.82-.8l.82-.82c.28-.28.55-.56.82-.85s.54-.57.8-.86.54-.59.8-.89l.8-.9.79-.92.78-.93.78-.93.79-.95.78-.94.78-.95.78-1 .78-1 .78-1 .77-1 .78-1 .77-1 .77-1c.26-.32.52-.63.77-.95l.77-.94c.25-.31.5-.61.76-.91s.5-.61.76-.9.5-.59.75-.87l.75-.84.75-.82.74-.77.74-.75.74-.7.74-.66.74-.63c.24-.2.48-.4.73-.59s.49-.38.73-.57l.73-.53c.24-.17.48-.34.73-.5.48-.33 1-.64 1.45-.93s1-.6 1.49-.87 1-.55 1.49-.81l1.48-.8a287.4 287.4 0 0 1 134.68-33.33c159.39 0 289.07 129.68 289.07 289.08s-129.66 289.32-289.05 289.32zm0-575.65a284.87 284.87 0 0 0 -133.45 33l-1.47.79-1.47.79c-.49.27-1 .54-1.47.83s-1 .58-1.47.89l-.74.49-.74.51-.72.53-.72.56c-.25.2-.49.39-.73.6l-.73.62c-.24.21-.49.43-.73.66l-.73.7-.73.73-.73.77-.74.79-.74.82c-.25.27-.5.55-.74.84l-.75.86-.75.88-.75.89-.75.91c-.25.3-.5.61-.76.91l-.75.92c-.26.3-.51.61-.76.92s-.51.6-.76.91l-.76.9-.75.9-.76.89c-.25.3-.51.59-.76.88s-.51.59-.76.88l-.77.87-.79.91-.76.87-.77.85-.77.84-.78.83-.78.81c-.26.27-.53.53-.79.79s-.53.53-.8.78l-.79.76-.8.73-.81.72-.8.68c-.26.23-.53.45-.8.67s-.53.43-.8.64l-.79.62-.79.59-.79.57-.78.55-.78.53-.77.51-.77.49-1.51.93-1.48.86-1.46.8-1.43.74-1.39.71-1.36.66-1.33.63-1.29.61-1.26.59-1.21.58-1.18.57-1.14.57-1.11.56-1.08.57-1.06.57-1 .58-1 .58-1 .6-1 .6c-.32.2-.64.4-.95.61l-.93.61-.93.61-.91.61-.92.62-.9.63c-.3.22-.61.43-.91.66l-.9.67-.91.72-.9.75c-.31.26-.61.52-.92.8s-.62.56-.93.85l-.94.91-1 1-1 1-1 1-1 1.07q-.51.54-1 1.11l-1 1.14-1 1.16c-.35.39-.69.78-1 1.18l-1 1.19c-.67.8-1.35 1.6-2 2.41s-1.33 1.63-2 2.46-1.33 1.66-2 2.5-1.31 1.69-2 2.55l-2 2.59q-1 1.29-1.92 2.61a285.06 285.06 0 0 0 -54.6 168.09c0 158 128.56 286.57 286.58 286.57s286.7-128.58 286.7-286.59-128.56-286.58-286.57-286.58z"/><path d="m408.23 714.32c-168.78 0-306.1-137.31-306.1-306.09a304.39 304.39 0 0 1 56.08-176.41c.63-.89 1.26-1.78 1.9-2.66l1.92-2.63 1.97-2.53 1.95-2.52c.65-.83 1.31-1.65 2-2.45s1.34-1.59 2-2.35 1.37-1.51 2.06-2.24 1.39-1.44 2.09-2.13 1.39-1.37 2.09-2 1.4-1.31 2.09-1.94 1.39-1.25 2.09-1.86l1-.9 1-.88c.34-.3.69-.58 1-.87l1-.84 1-.82 1-.81 1-.78 1-.76c.31-.25.63-.49.95-.72l.94-.68c.31-.22.63-.43.94-.63l.93-.59.94-.56.93-.53c.31-.17.62-.34.94-.5l.93-.5.93-.49.93-.49.94-.49 1-.51.95-.53 1-.55 1-.57 1-.6 1-.61 1-.61 1.07-.6 1.09-.58c.37-.2.74-.39 1.12-.57s.75-.36 1.14-.53.77-.33 1.17-.49l1.19-.47 1.22-.47.63-.24.63-.24.64-.25.65-.26.66-.27.67-.28.68-.3.7-.31.7-.33.71-.36.73-.37.74-.4q.38-.19.75-.42l.76-.45.78-.48.78-.52.8-.55.81-.58c.28-.2.55-.41.83-.63l.83-.66.85-.71.85-.76.86-.8c.29-.28.58-.56.87-.86s.59-.59.88-.9.58-.62.87-.95.59-.66.88-1 .58-.69.87-1.05.58-.72.87-1.09.57-.74.85-1.12l.85-1.16.83-1.19c.28-.4.56-.8.83-1.21s.55-.81.83-1.22l.83-1.22c.28-.41.56-.81.83-1.22s.56-.81.83-1.22l.83-1.21.83-1.21.82-1.2c.28-.4.56-.79.83-1.19l.83-1.17c.27-.39.55-.77.82-1.14l.82-1.11.82-1.07c.27-.35.54-.69.82-1l.81-1c.27-.32.54-.62.81-.92s.54-.59.81-.87l.8-.82.79-.78.79-.74.78-.7.78-.67.77-.63.77-.6.76-.56c.25-.19.51-.37.76-.54l.75-.52.74-.49c.5-.32 1-.64 1.49-.93l1.47-.87q.74-.42 1.47-.81l1.47-.77 1.46-.76q1.47-.77 2.94-1.5a304.21 304.21 0 0 1 137-32.42c168.78 0 306.09 137.32 306.09 306.1s-137.31 306.02-306.08 306.02zm0-609.69a301.75 301.75 0 0 0 -138.82 33.64l-1.41.73-1.46.77-1.45.8-1.46.86-1.46.93-.73.5-.73.52c-.25.18-.5.36-.74.55s-.5.37-.75.57l-.75.6-.76.64-.76.66-.77.71-.77.74q-.39.38-.78.78c-.27.27-.53.54-.79.83s-.53.57-.79.87-.53.61-.8.93-.53.64-.79 1-.54.67-.81 1-.54.7-.81 1.06-.55.72-.82 1.09l-.82 1.13-.82 1.16-.82 1.17-.82 1.18-.82 1.19-.82 1.19-.83 1.2c-.27.4-.55.8-.82 1.21l-.83 1.21c-.27.4-.55.8-.82 1.21s-.55.8-.83 1.19l-.83 1.18c-.28.39-.56.78-.85 1.16s-.56.75-.85 1.12-.57.73-.86 1.08-.58.7-.87 1l-.87 1-.88.94q-.43.47-.87.9c-.29.29-.58.58-.87.85l-.86.8c-.29.26-.57.51-.86.75s-.56.48-.84.71l-.83.66-.83.63-.81.59-.8.55c-.27.17-.53.35-.8.51l-.77.49-.77.46-.76.42-.74.41-.73.38-.72.35-.71.34-.7.32-.69.3-.67.28-.67.27-.65.26-.65.25-1.26.47-1.23.44-1.19.44-1.16.44c-.39.15-.76.31-1.14.47l-1.11.49-1.08.53-1.05.55c-.35.18-.7.36-1 .55l-1 .57-1 .56-1 .57-1 .54-1 .53-.94.51-.94.49-.92.48-.93.48-.92.49-.91.5-.91.52-.9.54-.91.58c-.3.19-.6.4-.9.61l-.92.65-.92.69-.94.73-.95.77-1 .8-1 .83-1 .84-1 .88-1 .89-1 .91-1 .94-1 1c-.69.64-1.39 1.3-2.08 2s-1.39 1.36-2.09 2.06-1.38 1.42-2.07 2.15-1.36 1.49-2 2.26-1.34 1.56-2 2.36-1.31 1.63-1.95 2.45-1.29 1.66-1.94 2.51l-2.1 2.52c-.63.86-1.27 1.73-1.9 2.61s-1.27 1.75-1.89 2.64a301.94 301.94 0 0 0 -55.62 175c0 167.4 136.19 303.59 303.6 303.59s303.63-136.21 303.63-303.61-136.19-303.6-303.59-303.6z"/><path d="m408.23 731.34c-178.17 0-323.12-144.94-323.12-323.11a321.4 321.4 0 0 1 59-185.93l1.9-2.66 1.92-2.63c.64-.87 1.28-1.73 1.93-2.58s1.29-1.69 2-2.5 1.33-1.61 2-2.38 1.36-1.52 2.05-2.25 1.37-1.44 2.07-2.12 1.38-1.36 2.07-2 1.38-1.28 2.06-1.89 1.37-1.21 2.05-1.78 1.35-1.14 2-1.69l2-1.59 2-1.53c.66-.49 1.33-1 2-1.43s1.35-.9 2-1.34l2.07-1.27 2.05-1.26 2.05-1.26 1-.63 1-.62 1-.61 1.05-.6 1.06-.6 1.07-.59c.35-.2.71-.39 1.07-.58l1.06-.56 1.07-.54 1.07-.53 1.06-.52 1.07-.52 1.07-.52 1.08-.53 1.09-.56 1.1-.58 1.12-.62 1.13-.67 1.16-.72c.39-.25.78-.52 1.18-.79s.81-.56 1.22-.86l1.24-.94 1.28-1 1.31-1 1.33-1 .78-.45.67-.47.68-.48.68-.48.69-.49.69-.49.7-.51.7-.52.71-.53.72-.56.72-.57.73-.6.73-.62.73-.65c.25-.22.5-.44.74-.67l.74-.71.75-.73c.25-.25.49-.51.74-.77s.5-.52.74-.79.5-.55.74-.83.5-.57.74-.87.49-.59.74-.89l.74-.93q.38-.47.75-1t.75-1l.75-1c.25-.34.51-.68.76-1l.76-1c.25-.36.51-.71.76-1.08s.51-.72.76-1.09l.77-1.11c.25-.37.51-.74.76-1.12l.78-1.13.78-1.14.8-1.17.78-1.12c.27-.38.53-.75.8-1.11l.79-1.1.79-1.07.8-1.05.8-1 .79-1 .8-1c.27-.31.53-.62.8-.92s.53-.59.79-.88.53-.57.8-.84.53-.55.8-.81l.79-.77c.27-.26.53-.5.8-.74l.8-.7c.27-.23.54-.46.81-.67l.8-.65c.26-.21.53-.41.8-.61s.53-.4.79-.6l.8-.56.8-.55.79-.52.79-.51.78-.48.78-.47.78-.46.77-.45c.52-.29 1-.58 1.55-.85s1-.55 1.53-.81l1.5-.7 1.52-.72 3-1.45 3-1.45a321.21 321.21 0 0 1 140.71-32.27c178.17 0 323.11 145 323.11 323.12 0 139.48-88.84 258.61-212.91 303.76l-3.14 1.12c-1 .37-2.09.73-3.15 1.09s-2.1.71-3.16 1l-3.18 1-1.6.49-1.59.49-1.61.48-1.6.47-1.61.46-1.62.46-1.61.45-1.62.44-1.62.44-1.63.43-1.63.42-1.63.41-1.63.41-1.64.4-1.64.4-1.64.38-1.65.38-1.65.37-1.66.36-1.66.35-1.66.34-1.66.33-1.67.32-1.67.31-1.67.3a323.08 323.08 0 0 1 -56.7 5.05zm0-643.73a318.72 318.72 0 0 0 -139.62 32l-2.94 1.45-2.95 1.45-3 1.46-1.52.76-1.53.81q-.76.42-1.53.87c-.26.14-.52.3-.77.45l-.78.47-.78.49-.78.51-.78.53-.79.55c-.26.18-.53.37-.79.57l-.79.59-.8.62-.79.65-.8.68c-.27.23-.53.47-.8.72s-.53.49-.79.75-.53.52-.8.79-.53.54-.79.82l-.8.87-.8.91-.8.95-.79 1c-.27.33-.54.67-.8 1s-.53.69-.8 1l-.79 1.07c-.27.36-.53.73-.8 1.1l-.79 1.11-.78 1.14-.79 1.14-.77 1.15-.78 1.14c-.25.38-.51.76-.77 1.13s-.51.75-.76 1.12-.51.74-.77 1.1l-.76 1.08c-.26.36-.51.72-.77 1.07l-.76 1c-.25.35-.51.69-.76 1s-.5.67-.75 1l-.75 1-.74.94-.75.9-.76.86c-.25.29-.5.56-.75.84l-.76.8-.75.76-.76.73-.75.7-.75.66-.74.64-.74.6-.73.58-.72.55-.71.53-.71.51-.7.49-.7.47-.69.46-.68.45-.67.45-.67.43-.67.43-.66.43-1.3.87c-.44.29-.87.58-1.29.88l-1.27.91-1.25.91-1.21.87c-.4.29-.8.56-1.19.82s-.77.51-1.15.75-.75.48-1.13.7l-1.1.64-1.09.6-1.07.57-1.06.54-1.05.53-1 .52-1 .51-1 .51-1 .52-1 .53-1 .56-1 .58-1 .61-1 .62-1 .64-1 .64-1 .65-1 .64-1 .64-2.45 1.35c-.69.42-1.37.86-2.05 1.31s-1.35.9-2 1.37-1.33 1-2 1.47-1.31 1-2 1.54-1.33 1.05-2 1.6-1.34 1.12-2 1.7-1.36 1.17-2 1.79-1.36 1.24-2 1.89-1.37 1.32-2.06 2-1.37 1.4-2.05 2.12-1.36 1.48-2 2.24-1.33 1.56-2 2.38-1.29 1.64-1.93 2.48l-1.92 2.56c-.63.86-1.27 1.73-1.9 2.61l-1.88 2.64a318.84 318.84 0 0 0 -58.6 184.53c0 176.79 143.83 320.61 320.62 320.61a320.94 320.94 0 0 0 61.23-5.84l1.65-.33 1.65-.33 1.65-.35 1.64-.35 1.64-.36 1.63-.37 1.63-.38 1.63-.39 1.63-.39 1.62-.4 3.24-.83 3.22-.86 3.21-.89 3.19-.92 3.19-1 3.17-1 3.15-1 3.14-1 3.13-1.09c124.73-43.93 214.37-163 214.37-302.52 0-176.8-143.84-320.63-320.61-320.63z"/><path d="m408.23 748.37c-187.56 0-340.14-152.59-340.14-340.14a338.28 338.28 0 0 1 63.79-198.11c.63-.88 1.28-1.77 1.92-2.65l1.94-2.62c.66-.87 1.31-1.73 2-2.57s1.34-1.67 2-2.46 1.36-1.58 2.06-2.33 1.38-1.48 2.08-2.2 1.39-1.4 2.09-2.07 1.39-1.32 2.09-1.95 1.38-1.25 2.06-1.85 1.37-1.17 2-1.73 1.34-1.1 2-1.63 1.34-1 2-1.51 1.36-.93 2-1.36 1.36-.85 2.05-1.25 1.37-.79 2-1.16 1.37-.74 2.06-1.08 1.38-.65 2.08-1 1.41-.59 2.12-.87 1.43-.54 2.15-.81l2.17-.76 2.2-.72 2.21-.7 2.23-.7 2.27-.71c.76-.24 1.53-.5 2.3-.76s1.55-.54 2.34-.83 1.57-.61 2.37-.95l1.2-.53 1.22-.57 1.22-.59 1.23-.63c.41-.22.82-.44 1.23-.68s.83-.47 1.25-.72l1.26-.79c.42-.27.85-.56 1.27-.85s.86-.6 1.29-.93.86-.65 1.3-1 .88-.72 1.32-1.1l.66-.58.67-.6c.22-.2.45-.41.67-.63l.68-.65.67-.67.69-.68.68-.7.69-.72.69-.72.7-.74c.23-.25.46-.49.69-.75l.7-.75.7-.77.71-.79.7-.79.71-.82c.24-.27.47-.55.71-.83l.71-.85.72-.88.72-.89.72-.92.72-.95c.25-.32.49-.64.73-1s.49-.65.74-1 .49-.67.73-1l.75-1 .74-1.06.75-1.07.74-1.09.76-1.09.75-1.11.76-1.1.75-1.11.76-1.11.77-1.11.76-1.1.77-1.09.77-1.08.77-1.07.77-1 .78-1 .77-1 .78-1 .78-1 .78-.93.78-.91.78-.88.78-.86c.52-.57 1-1.12 1.57-1.66s1.05-1.06 1.57-1.57 1-1 1.55-1.52 1-1 1.54-1.44l1.53-1.38c.51-.45 1-.88 1.53-1.3s1-.83 1.53-1.22 1-.78 1.53-1.14 1-.72 1.54-1.06 1-.65 1.55-1 1-.61 1.55-.9 1-.57 1.55-.84 1-.55 1.54-.81l1.53-.77q.76-.39 1.53-.75c1-.5 2-1 3-1.46s2-.94 3-1.4a338.14 338.14 0 0 1 141.52-30.74c187.55 0 340.14 152.58 340.14 340.14 0 140.66-85.83 261.66-207.87 313.36l-3.06 1.28c-1 .42-2.05.84-3.08 1.24l-1.55.61-1.57.58-1.58.57-1.59.54-1.6.54-1.61.51-1.62.51-1.63.49-1.63.48-1.63.47-1.64.46-1.64.46-1.64.45-1.63.45-1.64.45-1.63.44-1.63.45-1.62.44-1.62.44-1.62.44-1.61.45-1.61.44-1.6.44-1.61.45-1.6.44-1.59.44-1.6.44-1.59.44-1.59.44-1.6.44-1.59.43-1.6.43-1.59.42-1.6.42-1.61.41-1.61.41-1.62.39-1.62.4-1.63.38-1.64.37c-.54.12-1.09.25-1.64.36l-1.65.35-1.67.34-1.66.33-1.68.31-1.68.3-1.68.28c-.56.1-1.13.19-1.69.27l-1.7.26-1.69.23-1.7.23-1.7.21a341.63 341.63 0 0 1 -41.56 2.53zm0-677.78a335.71 335.71 0 0 0 -140.32 30.55l-3 1.38-2.91 1.48-1.5.73-1.52.75-1.53.77-1.54.8c-.51.28-1 .56-1.53.86s-1 .6-1.54.91-1 .64-1.54 1-1 .7-1.53 1.07-1 .75-1.53 1.14-1 .8-1.52 1.22l-1.53 1.3c-.51.45-1 .9-1.53 1.37s-1 1-1.55 1.44-1 1-1.56 1.5l-.78.77-.78.8-.78.82-.78.85c-.26.28-.51.57-.77.87l-.78.9-.77.93-.78 1c-.26.32-.51.65-.77 1l-.77 1c-.26.33-.51.67-.77 1l-.77 1c-.25.35-.51.7-.76 1.06l-.77 1.06-.76 1.08-.76 1.09-.75 1.09-.76 1.09-.75 1.1-.75 1.09-.75 1.09-.75 1.08-.74 1.06-.74 1-.74 1c-.25.34-.49.68-.74 1s-.48.66-.73 1-.48.65-.72 1l-.72.94-.72.91c-.24.3-.48.59-.71.89l-.72.86c-.23.29-.47.57-.71.84l-.7.83c-.24.27-.47.54-.71.8s-.47.53-.7.79l-.7.78-.7.75-.69.75-.69.73-.69.72-.68.7-.68.7-.69.69c-.22.23-.45.45-.68.68l-.68.68-.68.66-.67.65-.67.63c-.22.2-.44.41-.67.6-.44.4-.88.78-1.32 1.15s-.87.71-1.3 1-.86.66-1.28 1-.85.61-1.26.89l-1.25.82c-.41.26-.83.51-1.23.75l-1.22.69-1.21.65-1.21.6c-.4.2-.79.39-1.19.57l-1.19.55-1.19.54-1.17.52c-.78.33-1.56.64-2.32.94l-2.28.85-2.25.8q-1.11.41-2.22.78l-2.2.77-2.17.79c-.73.26-1.44.54-2.16.81l-2.12.85c-.7.3-1.39.6-2.08.92s-1.38.65-2.06 1-1.36.72-2 1.1l-2 1.16c-.68.4-1.36.82-2 1.25s-1.34.88-2 1.36-1.33 1-2 1.5-1.32 1-2 1.6-1.35 1.12-2 1.71-1.37 1.19-2.05 1.81-1.38 1.27-2.07 1.93-1.38 1.34-2.07 2-1.38 1.43-2.06 2.17-1.37 1.51-2.05 2.29-1.34 1.6-2 2.43-1.3 1.68-1.94 2.54-1.29 1.73-1.93 2.6-1.28 1.75-1.91 2.63a335.81 335.81 0 0 0 -63.47 196.64c0 186.17 151.46 337.63 337.64 337.63a340.11 340.11 0 0 0 42.94-2.71l1.69-.22 1.68-.23 1.68-.24 1.68-.26 1.68-.27 1.67-.29 1.67-.3 1.66-.31 1.65-.33 1.65-.34 1.64-.34 1.64-.36 1.63-.37 1.63-.38 1.61-.38 1.61-.4 1.61-.4 1.6-.4 1.6-.41 1.6-.42 1.59-.42 1.59-.42 1.59-.43 3.18-.86 3.19-.87 3.19-.87 3.21-.88 1.6-.45 1.61-.44 1.61-.44 1.59-.42 1.61-.45 1.62-.45 1.61-.46 1.62-.46 1.61-.47 1.61-.47 1.61-.49 1.6-.49 1.6-.51 1.59-.51 1.58-.53 1.57-.55c1-.37 2.08-.75 3.11-1.14l3.08-1.19 3-1.24c122.82-50.59 209.44-171.59 209.44-312.36 0-186.18-151.46-337.64-337.63-337.64z"/><path d="m408.23 765.39c-196.94 0-357.16-160.22-357.16-357.16a355.3 355.3 0 0 1 72.52-215.52c.66-.87 1.32-1.74 2-2.6s1.34-1.72 2-2.55 1.38-1.65 2.08-2.45 1.4-1.58 2.11-2.34 1.42-1.49 2.13-2.22 1.43-1.42 2.14-2.11l2.13-2c.71-.65 1.41-1.29 2.11-1.9s1.4-1.23 2.1-1.81 1.4-1.12 2.1-1.65 1.41-1 2.12-1.48 1.43-.89 2.15-1.3 1.45-.78 2.17-1.13 1.45-.67 2.18-1 1.46-.58 2.2-.83 1.47-.5 2.21-.72 1.48-.42 2.21-.6 1.48-.34 2.22-.49 1.47-.27 2.21-.37 1.49-.2 2.24-.27 1.5-.14 2.26-.2l2.27-.15 2.3-.15 2.32-.16 2.34-.18c.79-.07 1.58-.15 2.37-.25s1.6-.23 2.4-.37 1.62-.31 2.44-.51 1.64-.42 2.47-.69 1.66-.58 2.5-.93 1.69-.76 2.54-1.21 1.72-1 2.58-1.53 1.75-1.2 2.63-1.89c.44-.35.89-.71 1.34-1.09s.89-.77 1.34-1.19.9-.84 1.36-1.29.91-.91 1.37-1.39.92-1 1.38-1.5l1.4-1.61c.46-.55.93-1.13 1.41-1.72l.71-.89.71-.92.72-.95.72-1 .72-1 .73-1 .73-1c.24-.35.48-.71.73-1.06l.73-1.09.74-1.11c.25-.37.5-.75.74-1.13l.75-1.14c.25-.39.5-.77.74-1.16l.75-1.18.76-1.18.75-1.19c.5-.8 1-1.6 1.52-2.4s1-1.61 1.52-2.42l1.53-2.41 1.53-2.38 1.53-2.33 1.54-2.27 1.55-2.19c.52-.72 1-1.42 1.56-2.11l1.56-2 1.53-2 1.51-1.92c.5-.63 1-1.25 1.5-1.85s1-1.2 1.49-1.78 1-1.15 1.48-1.71 1-1.09 1.49-1.62 1-1 1.49-1.52 1-1 1.51-1.44 1-.92 1.52-1.35 1-.85 1.53-1.25 1-.78 1.56-1.15 1-.74 1.54-1.09l1.54-1.05c.5-.34 1-.67 1.52-1l1.51-.94c.5-.3 1-.6 1.5-.88s1-.56 1.51-.83 1-.52 1.5-.76c1-.49 2-1 3-1.4l3-1.34a355.22 355.22 0 0 1 142.01-29.42c196.93 0 357.16 160.22 357.16 357.16 0 138.32-79 258.54-194.34 317.84-1 .5-1.95 1-2.94 1.49s-2 1-3 1.47l-1.51.73-1.52.71-1.52.71-1.54.71-1.56.7-1.56.69-1.58.68-1.59.68-1.61.66-1.64.66-1.67.62c-.56.21-1.13.41-1.7.6s-1.15.38-1.73.57l-1.75.53c-.58.18-1.17.34-1.76.51l-1.78.48-1.78.46-1.79.44-1.78.42-1.74.41-1.78.4-1.77.39-1.76.38-1.75.38-1.73.38-1.72.37-1.7.38-1.69.38-1.67.38-1.65.39-1.64.39-1.62.39-1.6.41-1.59.41-1.57.41-1.56.43-1.55.43-1.53.44-1.52.45-1.5.46-1.49.46-1.48.47-1.47.48-1.47.48-1.46.49-1.46.5-1.45.5-1.46.5-1.46.51-1.46.51-1.46.5-1.47.51-1.47.51-1.49.5-1.49.5-1.5.49-1.51.48-1.52.47-1.53.46-1.55.44-1.55.44-1.57.41-1.59.41-1.6.38-1.62.38-1.63.36-1.65.34-1.66.32-1.67.29-1.69.29-1.69.26c-.56.08-1.13.17-1.7.24l-1.71.23-1.71.2-1.71.18-1.71.17q-17.17 1.67-34.76 1.68zm0-711.82a352.62 352.62 0 0 0 -142.5 29.89l-3 1.36-1.52.71c-.5.24-1 .49-1.51.75s-1 .52-1.52.8-1 .56-1.51.85l-1.52.9c-.51.31-1 .62-1.53 1l-1.54 1-1.55 1q-.78.53-1.56 1.11c-.52.38-1 .79-1.55 1.2s-1 .86-1.52 1.31-1 .91-1.52 1.39-1 1-1.5 1.49-1 1-1.5 1.58-1 1.1-1.5 1.67-1 1.14-1.5 1.74-1 1.19-1.51 1.81-1 1.24-1.53 1.88l-1.55 1.93c-.52.66-1.05 1.32-1.57 2s-1 1.38-1.56 2.09-1 1.43-1.56 2.16-1 1.48-1.55 2.24-1 1.53-1.54 2.31-1 1.56-1.54 2.35-1 1.58-1.54 2.37l-.76 1.2c-.26.39-.51.79-.76 1.19l-.81 1.15-.76 1.19-.75 1.18c-.26.39-.51.79-.76 1.18l-.75 1.16-.75 1.15-.75 1.13-.74 1.12c-.25.37-.5.73-.74 1.1l-.74 1.07-.73 1.06-.74 1-.72 1-.73 1q-.36.49-.72 1l-.72.94-.72.91-.71.89-.72.87-.7.84c-.24.27-.47.55-.71.81l-.69.8-1.39 1.5-.69.71q-.34.36-.69.69l-.68.66-.69.64-.67.61-.68.59c-.45.38-.89.75-1.34 1.1s-.89.69-1.33 1c-.88.64-1.75 1.22-2.62 1.75s-1.72 1-2.58 1.43-1.69.8-2.53 1.13-1.67.63-2.5.89-1.64.48-2.45.67-1.62.37-2.42.51-1.6.27-2.4.39-1.57.2-2.36.29l-2.33.26-2.31.22-2.29.22-2.3.34c-.75.1-1.49.2-2.24.32s-1.48.26-2.22.41-1.48.32-2.21.51-1.48.39-2.22.61-1.47.47-2.21.72-1.46.54-2.19.84-1.45.61-2.17 1-1.44.73-2.15 1.13-1.44.82-2.15 1.28-1.41 1-2.11 1.46-1.4 1.05-2.1 1.62-1.39 1.17-2.09 1.78-1.4 1.23-2.11 1.88-1.41 1.3-2.13 2-1.42 1.38-2.13 2.1-1.43 1.45-2.14 2.2-1.42 1.53-2.12 2.32-1.4 1.61-2.09 2.45-1.37 1.69-2 2.55l-2 2.61a352.84 352.84 0 0 0 -71.65 213.44c0 195.56 159.1 354.66 354.66 354.66a355.27 355.27 0 0 0 36.21-1.84l1.7-.17 1.69-.2 1.7-.21 1.69-.23 1.69-.26c.56-.08 1.12-.17 1.67-.27l1.67-.28 1.66-.31 1.65-.32 1.63-.35 1.62-.36 1.6-.37 1.59-.39 1.58-.4 1.57-.41 1.55-.43 1.54-.44 1.53-.45 1.52-.46 1.51-.47 1.51-.48 1.49-.48 1.49-.49 1.49-.49 1.47-.5 1.48-.49 1.48-.49 1.47-.49 1.47-.49 1.48-.48 1.48-.48 3-.95 3-.91c1-.31 2-.6 3-.9l3.09-.86q1.56-.43 3.15-.84c1-.28 2.12-.55 3.2-.82l1.62-.4 1.63-.39 1.65-.39 1.67-.39 1.68-.38 1.69-.39 1.71-.38 1.71-.39 1.73-.39 1.73-.4 1.74-.4 1.75-.42 1.75-.43 1.75-.44 1.74-.46c.58-.15 1.16-.31 1.73-.48l1.73-.5 1.7-.53 1.69-.55 1.67-.59 1.63-.62 1.61-.64 1.57-.65 1.56-.67 1.55-.67 1.53-.68c1-.46 2-.91 3-1.38l3-1.4c1-.48 2-1 3-1.44l2.93-1.45c116.07-58.35 195.9-178.58 195.9-317.1-.01-195.56-159.12-354.66-354.67-354.66z"/><path d="m408.23 782.41c-206.33 0-374.23-167.86-374.23-374.18a372.43 372.43 0 0 1 83.48-235.35c.69-.85 1.38-1.69 2.08-2.52s1.41-1.66 2.12-2.47 1.44-1.61 2.17-2.39 1.45-1.56 2.19-2.32 1.47-1.51 2.2-2.24 1.47-1.45 2.21-2.16 1.47-1.41 2.2-2.09 1.48-1.32 2.23-1.93 1.52-1.17 2.29-1.7 1.55-1 2.33-1.46 1.56-.87 2.34-1.26 1.56-.76 2.34-1.1 1.57-.66 2.35-1 1.55-.56 2.33-.79 1.55-.44 2.32-.6 1.55-.3 2.32-.4 1.55-.18 2.33-.24 1.55-.08 2.32-.09 1.55 0 2.33.06 1.55.11 2.33.19 1.56.18 2.34.3 1.56.26 2.34.41l2.36.46 2.35.48c.79.15 1.58.3 2.37.43s1.58.26 2.38.36 1.59.17 2.39.21 1.61.06 2.42 0 1.62-.1 2.45-.21a22.69 22.69 0 0 0 2.48-.5 20.29 20.29 0 0 0 2.52-.86 23.37 23.37 0 0 0 2.57-1.26 28.26 28.26 0 0 0 2.62-1.74c.44-.33.88-.68 1.33-1.06s.89-.77 1.34-1.19.91-.86 1.37-1.32l1.38-1.47c.46-.51.92-1.05 1.39-1.61s.94-1.14 1.41-1.74 1-1.24 1.43-1.89 1-1.33 1.44-2 1-1.42 1.46-2.16 1-1.5 1.47-2.28 1-1.58 1.48-2.39 1-1.65 1.5-2.49 1-1.7 1.5-2.56 1-1.74 1.51-2.62 1-1.76 1.52-2.64l1.53-2.65c.5-.88 1-1.75 1.52-2.62s1-1.73 1.53-2.58 1-1.7 1.54-2.53 1-1.65 1.55-2.46l1.54-2.39 1.51-2.35c.49-.78 1-1.54 1.47-2.3l1.5-2.15c.48-.73 1-1.46 1.44-2.17s1-1.41 1.45-2.09 1-1.36 1.44-2 1-1.3 1.46-1.93 1-1.24 1.48-1.84 1-1.18 1.49-1.74 1-1.11 1.53-1.64 1-1 1.53-1.55 1-1 1.54-1.46l1.53-1.41 1.49-1.4q.75-.66 1.5-1.29c.5-.43 1-.83 1.51-1.23s1-.78 1.51-1.15 1-.73 1.51-1.08 1-.67 1.52-1 1-.62 1.52-.91 1-.57 1.51-.83l1.53-.76 1.52-.71c1-.46 2-.89 3.06-1.32s2-.86 3-1.28a372.08 372.08 0 0 1 142.54-28.21c206.32 0 374.18 167.9 374.18 374.23 0 137.16-74.18 257.32-184.53 322.46l-2.88 1.66c-1 .55-1.92 1.1-2.9 1.64-.48.27-1 .54-1.47.8l-1.48.81-1.52.79c-.5.27-1 .53-1.53.79l-1.55.78-1.59.78c-.53.26-1.07.52-1.62.77l-1.64.77-1.66.76-1.69.75-1.71.74c-.58.25-1.15.5-1.74.74l-1.75.74-1.79.72q-.89.38-1.8.72l-1.83.72-1.85.7c-.62.24-1.25.47-1.88.69s-1.27.45-1.92.66l-2 .64-2 .6-2 .56c-.68.18-1.36.35-2 .51s-1.37.32-2.06.47l-2.06.44-2.06.4-2 .37-2 .36-2 .33-2 .32-2 .31-1.92.31-1.89.3-1.85.3-1.82.3-1.77.31-1.74.31-1.7.32-1.66.33-1.62.33-3.15.69c-1 .24-2 .49-3 .74s-2 .51-2.92.77l-2.82.82-2.74.86-1.34.44-1.32.46-1.32.47c-.43.16-.86.31-1.29.48l-1.29.48-1.28.5-1.27.51-1.26.52-1.26.52-1.26.54-1.25.54-1.26.55-1.26.56-1.25.56-1.25.57-1.26.57-1.26.57-1.27.58-1.27.58-1.3.58-1.3.58-1.32.57-1.34.58-1.36.56-1.37.57-1.4.55-1.41.54-1.44.52c-.48.18-1 .35-1.46.51l-1.48.49-1.5.47-1.53.45-1.55.42-1.57.4-1.59.38c-.54.13-1.07.25-1.61.36l-1.64.34-1.66.32-1.67.29-1.68.26-1.7.25-1.71.22-1.71.2-1.72.18-1.72.15q-16.39 1.44-33.11 1.45zm0-745.87a369.8 369.8 0 0 0 -143 28.61l-3.06 1.3c-1 .44-2 .89-3.06 1.36-.51.24-1 .48-1.53.74s-1 .52-1.53.81-1 .58-1.52.89-1 .64-1.52 1-1 .69-1.52 1-1 .74-1.52 1.13-1 .79-1.51 1.2-1 .84-1.51 1.28-1 .87-1.53 1.32l-1.55 1.38-1.56 1.44c-.51.49-1 1-1.54 1.52s-1 1.07-1.53 1.63-1 1.13-1.5 1.72-1 1.2-1.48 1.82-1 1.26-1.47 1.91-1 1.31-1.45 2-1 1.37-1.46 2.08-1 1.42-1.46 2.15l-1.48 2.21-1.49 2.28-1.53 2.32-1.56 2.36q-.78 1.21-1.56 2.46c-.51.83-1 1.67-1.54 2.52s-1 1.71-1.54 2.57l-1.53 2.62c-.52.88-1 1.76-1.54 2.64l-1.52 2.62-1.52 2.6c-.51.86-1 1.71-1.51 2.54s-1 1.66-1.5 2.47l-1.49 2.37c-.5.77-1 1.53-1.48 2.26s-1 1.45-1.46 2.15-1 1.37-1.45 2-1 1.28-1.43 1.88-.95 1.19-1.42 1.75-.93 1.09-1.4 1.61-.93 1-1.38 1.47-.92.91-1.37 1.33-.91.83-1.36 1.21a30.64 30.64 0 0 1 -2.66 2 25.87 25.87 0 0 1 -2.61 1.55 24.47 24.47 0 0 1 -2.56 1.11 20.28 20.28 0 0 1 -2.51.73 21.77 21.77 0 0 1 -2.48.42c-.82.09-1.64.14-2.45.16s-1.61 0-2.42-.06-1.6-.12-2.4-.21-1.59-.2-2.38-.32-1.59-.24-2.38-.37l-2.36-.39c-.79-.12-1.58-.24-2.36-.34l-2.34-.27c-.77-.08-1.55-.14-2.33-.18s-1.55-.06-2.32-.06-1.55 0-2.32.07-1.55.11-2.32.2-1.54.21-2.31.36-1.54.33-2.31.54-1.55.47-2.32.74-1.56.57-2.34.89-1.55.67-2.33 1-1.55.77-2.32 1.2-1.55.89-2.32 1.38-1.53 1-2.28 1.62-1.49 1.21-2.22 1.86-1.47 1.33-2.2 2-1.47 1.4-2.21 2.12-1.47 1.45-2.2 2.2-1.47 1.51-2.2 2.28-1.46 1.57-2.18 2.38-1.44 1.62-2.14 2.45-1.4 1.67-2.09 2.52l-2.06 2.56a369.92 369.92 0 0 0 -80.59 231.02c0 204.94 166.74 371.68 371.69 371.68q16.59 0 32.83-1.44l1.71-.15 1.7-.17 1.71-.2 1.69-.21 1.69-.24 1.68-.26 1.67-.28 1.65-.31 1.63-.33 1.61-.35 1.6-.37c.52-.13 1.05-.25 1.57-.39l1.55-.41 1.53-.43 1.51-.45 1.49-.48 1.46-.49c.49-.16 1-.33 1.45-.51l1.43-.52 1.4-.54 1.39-.54 1.37-.56 1.36-.56 1.34-.56 1.32-.56 1.32-.57 1.3-.57 1.29-.56 1.28-.56 1.27-.56 1.27-.56 1.28-.55 1.27-.54 1.28-.54 1.29-.53 2.57-1 2.59-1c.87-.32 1.75-.65 2.63-1s1.77-.63 2.66-.93 1.81-.6 2.73-.88 1.86-.57 2.8-.85 1.9-.54 2.88-.8 2-.51 3-.76 2-.49 3.08-.72 2.11-.47 3.19-.69l1.64-.33 1.67-.33 1.71-.32 1.74-.31 1.77-.31 1.81-.31 1.84-.31 1.87-.32 1.9-.32 1.93-.32 2-.34 2-.36 2-.38 2-.4 2-.43 2-.46 2-.5c.66-.17 1.31-.35 2-.54l1.94-.59c.64-.2 1.27-.4 1.9-.62l1.87-.64 1.84-.67 1.8-.7 1.78-.7 1.76-.71 1.74-.71 1.72-.73 1.69-.73c.57-.24 1.13-.48 1.68-.73l1.66-.74 1.63-.75 1.62-.75 1.59-.76 1.56-.77 1.54-.77 1.52-.78 1.49-.78 1.48-.79c1-.53 1.94-1.06 2.9-1.6l2.85-1.62 2.82-1.65c109.61-64.71 183.3-184.07 183.3-320.31-.2-204.96-166.94-371.7-371.88-371.7z"/><path d="m408.23 799.43c-215.72 0-391.23-175.49-391.23-391.2a389.63 389.63 0 0 1 99-259.87l2.18-2.43 2.22-2.39c.74-.79 1.49-1.57 2.24-2.35s1.51-1.54 2.28-2.3 1.54-1.49 2.33-2.19 1.6-1.37 2.41-2 1.64-1.25 2.48-1.83 1.68-1.1 2.52-1.62 1.68-1 2.52-1.49 1.67-.92 2.51-1.32 1.67-.76 2.51-1.08 1.67-.61 2.5-.87 1.67-.47 2.5-.65 1.66-.31 2.49-.41 1.65-.14 2.48-.15a22.57 22.57 0 0 1 2.47.11c.83.07 1.64.19 2.46.33s1.62.33 2.43.53 1.61.43 2.41.68 1.6.51 2.39.78 1.59.55 2.39.84l2.37.84c.8.28 1.59.56 2.38.81s1.59.51 2.39.73 1.59.41 2.4.57 1.61.29 2.42.38a20 20 0 0 0 2.45.1 16.13 16.13 0 0 0 2.49-.23 14.94 14.94 0 0 0 2.53-.65 15.81 15.81 0 0 0 2.59-1.15 20.06 20.06 0 0 0 2.64-1.72c.44-.34.89-.71 1.34-1.1s.9-.82 1.36-1.27.91-.93 1.37-1.44.93-1 1.4-1.62.94-1.16 1.41-1.79.95-1.28 1.42-2 1-1.39 1.44-2.12 1-1.48 1.46-2.25 1-1.57 1.46-2.38 1-1.64 1.47-2.49 1-1.69 1.48-2.55 1-1.73 1.49-2.6l1.52-2.62 1.5-2.64 1.5-2.58 1.51-2.57q.75-1.27 1.47-2.55c.49-.85 1-1.69 1.44-2.53l1.4-2.5c.47-.83.93-1.65 1.4-2.46l1.38-2.4c.46-.79.93-1.57 1.39-2.34s.94-1.53 1.41-2.27.94-1.48 1.42-2.2 1-1.42 1.45-2.11 1-1.35 1.48-2 1-1.29 1.5-1.92 1-1.24 1.49-1.84 1-1.19 1.51-1.76l1.49-1.68 1.53-1.65c.5-.52 1-1 1.51-1.53s1-1 1.51-1.46 1-.94 1.51-1.39 1-.88 1.51-1.31 1-.83 1.51-1.23 1-.77 1.52-1.14 1-.71 1.52-1 1-.67 1.53-1l1.53-.92 1.53-.86c.52-.28 1-.56 1.54-.82s1-.52 1.54-.76 1-.49 1.54-.71c1-.46 2.05-.89 3.08-1.32s2.05-.85 3.08-1.26 2-.83 3.08-1.23a389.28 389.28 0 0 1 142.92-27.06c215.71 0 391.2 175.5 391.2 391.21 0 139.51-73.4 262.19-183.62 331.46l-2.81 1.76-2.83 1.71-1.44.85-1.46.84-1.48.84-1.51.83-1.53.82-1.57.82-1.59.81-1.63.81-1.67.8-1.73.8-1.76.79-1.81.78-1.84.78-1.88.77-1.91.76-2 .76-2 .76c-.67.25-1.35.5-2 .74l-2.08.75-2.13.73c-.71.25-1.43.49-2.16.73l-2.21.7-2.26.68-2.32.64-2.37.6-2.41.55c-.82.18-1.64.34-2.46.5s-1.65.3-2.48.43l-2.49.38-2.49.32-2.46.29-2.43.26-2.39.23-2.33.22-2.28.22-2.22.21-2.14.21-2.07.22-2 .23-1.93.25-1.86.26-1.79.27-1.72.29-1.65.31c-1.08.21-2.12.43-3.13.66s-2 .47-2.89.72-1.84.5-2.71.77-1.71.54-2.52.83-1.62.57-2.39.87-1.53.6-2.27.92-1.46.63-2.17 1l-2.12 1c-.69.33-1.38.68-2.06 1s-1.37.7-2 1.06l-2 1.1-1 .56-1 .57-1 .58-1 .58-1 .59-1 .6-1 .6-1.05.61-1.07.61-1.09.62-1.1.62-1.1.63-1.12.62-1.13.62-1.14.63-1.17.62-1.18.62-1.21.61-1.24.62-1.26.6-1.29.6-1.31.58q-.66.3-1.35.57l-1.37.56-1.4.54-1.44.52-1.46.49-1.49.47-1.52.44-1.55.41-1.58.38c-.53.13-1.07.24-1.61.36s-1.08.23-1.63.33l-1.65.31-1.67.29-1.68.25-1.71.24-1.71.21-1.71.18-1.72.17-1.72.15q-16.61 1.35-33.31 1.36zm0-779.91a386.84 386.84 0 0 0 -143.46 27.48l-3.09 1.25-3.09 1.28-1.54.67c-.52.23-1 .46-1.55.71s-1 .49-1.54.76-1 .53-1.55.81l-1.54.86-1.53.92q-.78.48-1.53 1c-.51.34-1 .7-1.53 1.07s-1 .75-1.52 1.15-1 .82-1.52 1.25-1 .87-1.52 1.32-1 .92-1.52 1.4-1 1-1.52 1.47-1 1-1.5 1.55-1 1.08-1.5 1.63-1 1.11-1.52 1.69-1 1.16-1.51 1.77-1 1.22-1.51 1.85-1 1.27-1.5 1.93-1 1.35-1.48 2-1 1.41-1.45 2.14-1 1.46-1.42 2.21-.94 1.52-1.41 2.3-.94 1.56-1.41 2.36l-1.4 2.43c-.47.81-.94 1.64-1.41 2.48l-1.45 2.52c-.48.84-1 1.7-1.47 2.55s-1 1.71-1.52 2.58-1 1.73-1.53 2.61-1 1.77-1.52 2.66l-1.52 2.67-1.5 2.67-1.5 2.63c-.5.87-1 1.74-1.49 2.59s-1 1.68-1.49 2.5-1 1.61-1.47 2.39-1 1.54-1.46 2.27-1 1.43-1.45 2.11-1 1.34-1.44 2-.94 1.22-1.41 1.79-.94 1.11-1.4 1.62-.93 1-1.39 1.44-.91.88-1.36 1.28a24.54 24.54 0 0 1 -2.68 2 17.5 17.5 0 0 1 -2.62 1.44 16.05 16.05 0 0 1 -2.56.91 16.33 16.33 0 0 1 -2.52.46 18.74 18.74 0 0 1 -2.48.08c-.82 0-1.63-.11-2.44-.22s-1.62-.28-2.42-.46-1.6-.4-2.4-.64-1.59-.49-2.38-.75l-2.38-.82-2.41-.84c-.79-.28-1.59-.55-2.38-.81s-1.6-.5-2.4-.72-1.61-.42-2.42-.6-1.62-.32-2.44-.42-1.63-.18-2.45-.21-1.65 0-2.47 0-1.64.15-2.47.28-1.65.31-2.47.52-1.66.45-2.49.73-1.66.59-2.49.94-1.66.75-2.49 1.18-1.67.89-2.51 1.37-1.67 1-2.51 1.53-1.67 1.09-2.49 1.69-1.64 1.24-2.44 1.91-1.59 1.38-2.37 2.11-1.53 1.5-2.29 2.27-1.51 1.54-2.26 2.32-1.5 1.58-2.24 2.38-1.48 1.6-2.21 2.41l-2.17 2.46a387.11 387.11 0 0 0 -96 255.56c0 214.33 174.37 388.7 388.71 388.7q16.59 0 32.86-1.38l1.71-.14 1.7-.17c.57 0 1.14-.12 1.71-.18l1.7-.21 1.69-.23 1.68-.26 1.66-.28 1.64-.31 1.62-.33c.54-.12 1.07-.23 1.6-.36l1.57-.37 1.54-.41 1.52-.43 1.49-.46 1.46-.49c.48-.16 1-.33 1.43-.51s.94-.35 1.41-.53l1.37-.55c.46-.18.91-.37 1.35-.56s.89-.38 1.32-.58.87-.39 1.29-.59l1.27-.59 1.24-.61 1.22-.6 1.2-.62 1.17-.61 1.16-.61 1.14-.62 1.12-.61 1.12-.62 1.11-.61 1.11-.61 1.08-.6 1.08-.6 1.07-.6 1.06-.58 1.05-.59 1.05-.57 1-.57 2.09-1.1c.69-.37 1.39-.73 2.08-1.08s1.4-.7 2.11-1.05l2.14-1 2.18-1q1.11-.48 2.25-.93c.76-.3 1.54-.6 2.34-.89s1.61-.57 2.45-.85 1.71-.54 2.6-.8 1.81-.51 2.76-.75 1.94-.47 2.95-.69 2.08-.44 3.17-.64l1.67-.3 1.74-.28c.58-.1 1.18-.19 1.79-.27l1.86-.26 1.93-.25 2-.23 2-.23 2.13-.23 2.18-.22 2.24-.23 2.29-.24 2.33-.26 2.37-.28 2.39-.32c.8-.11 1.61-.23 2.41-.36s1.61-.26 2.41-.4 1.6-.3 2.39-.46l2.37-.52 2.32-.58c.77-.19 1.53-.4 2.28-.61l2.22-.65c.74-.22 1.46-.45 2.18-.68s1.43-.47 2.13-.71l2.09-.72 2-.73 2-.74c.67-.24 1.32-.49 2-.74l1.94-.75 1.9-.76c.62-.25 1.25-.5 1.86-.76l1.83-.76 1.8-.78 1.76-.77 1.72-.79 1.68-.79 1.63-.79 1.59-.81c.53-.26 1-.53 1.57-.8l1.54-.82 1.5-.82 1.49-.82 1.46-.83 2.86-1.68 2.81-1.7 2.77-1.73c109.63-68.76 182.56-190.67 182.56-329.28 0-214.34-174.37-388.71-388.7-388.71z"/><path d="m408.23 816.45c-225.1 0-408.23-183.13-408.23-408.22 0-111.38 44.83-212.48 117.4-286.23.77-.77 1.53-1.55 2.31-2.31s1.56-1.5 2.36-2.23 1.59-1.45 2.4-2.16 1.62-1.41 2.44-2.09 1.65-1.35 2.49-2 1.69-1.27 2.56-1.86 1.72-1.14 2.59-1.68 1.75-1 2.62-1.48 1.76-.88 2.64-1.26 1.77-.7 2.66-1 1.78-.52 2.66-.72 1.77-.35 2.65-.46 1.75-.19 2.62-.24 1.74-.05 2.61 0 1.72.06 2.58.13 1.72.15 2.57.26 1.7.22 2.55.35 1.69.27 2.53.42l2.53.43 2.52.41c.84.12 1.68.23 2.52.32s1.68.15 2.52.18a23.72 23.72 0 0 0 2.53 0 20.08 20.08 0 0 0 2.55-.28 18.94 18.94 0 0 0 2.58-.62 19.22 19.22 0 0 0 2.6-1 21 21 0 0 0 2.64-1.5c.44-.29.88-.61 1.33-1s.89-.69 1.34-1.08.9-.79 1.36-1.22.91-.88 1.36-1.36.92-1 1.38-1.49.93-1 1.39-1.61.93-1.13 1.4-1.73.94-1.2 1.41-1.82.94-1.26 1.4-1.91.93-1.32 1.39-2 .91-1.37 1.36-2.07.9-1.42 1.34-2.14.89-1.45 1.33-2.19.88-1.47 1.32-2.22l1.32-2.23c.44-.75.88-1.5 1.33-2.25s.89-1.5 1.34-2.24.9-1.49 1.35-2.23l1.38-2.18c.47-.72.93-1.44 1.41-2.13s.94-1.39 1.42-2.08l1.43-2c.47-.67 1-1.33 1.43-2s.95-1.29 1.43-1.92 1-1.24 1.45-1.84 1-1.17 1.48-1.74 1-1.13 1.49-1.68 1-1.08 1.49-1.61l1.49-1.56 1.5-1.5c.5-.49 1-1 1.5-1.42s1-.92 1.5-1.36 1-.86 1.5-1.27l1.51-1.21c.5-.39 1-.77 1.52-1.14s1-.73 1.52-1.09 1-.69 1.54-1l1.53-1c.51-.32 1-.63 1.54-.93s1-.6 1.53-.89l1.54-.84c.52-.27 1-.54 1.55-.79l1.54-.74 1.54-.7 1.54-.68 1.55-.65 3.08-1.27 3.08-1.23a406.18 406.18 0 0 1 149.54-28.37c225.09 0 408.22 183.13 408.22 408.23 0 144.2-75.15 271.18-188.35 343.82l-2.77 1.76c-.93.59-1.87 1.17-2.81 1.74l-1.43.86c-.48.29-1 .58-1.45.86l-1.46.85-1.49.85-1.52.84-1.55.83-1.58.83-1.62.82-1.66.82-1.7.81-1.75.81-1.81.8-1.86.79-1.92.79-2 .78-2 .78c-.68.26-1.37.52-2.07.77l-2.12.77-2.18.76-2.24.76-2.3.75-2.35.74-2.46.78-2.48.72c-.84.23-1.69.46-2.56.68l-2.62.64q-1.33.32-2.7.6t-2.76.54c-.93.17-1.88.34-2.83.49s-1.91.29-2.87.41-1.93.24-2.9.34l-2.89.26-2.86.21-2.81.16-2.75.15-2.67.12-2.57.13-2.47.13-2.37.14-2.25.17c-.74 0-1.45.11-2.15.18l-2 .21c-.66.07-1.3.15-1.93.24l-1.83.26-1.73.22-1.64.31q-1.59.33-3 .69c-1 .25-1.86.51-2.72.78s-1.69.56-2.47.85-1.54.6-2.25.92-1.41.63-2.08 1-1.3.67-1.92 1-1.22.69-1.81 1.05-1.16.71-1.72 1.07-1.11.73-1.66 1.11l-1.63 1.12-1.65 1.1-1.64 1.16-1.66 1.18-1.7 1.19-.87.61-.89.61-.9.61-.91.61-.93.62-.95.63-1 .62-1 .63-1 .63-1 .64-1.06.63-1.07.63-1.08.64-1.11.62-1.13.62c-.38.21-.76.42-1.15.62l-1.18.62-1.21.6-1.24.6-1.28.59-1.31.57c-.44.19-.88.38-1.34.56s-.91.37-1.37.54-.93.36-1.41.53l-1.44.5-1.47.47-1.51.45-1.54.41c-.51.14-1 .26-1.57.39l-1.59.35-1.63.33-1.65.3c-.55.1-1.11.2-1.67.28l-1.68.26-1.7.23-1.71.2-1.72.19-1.71.17-1.72.15q-18.05 1.66-36.52 1.66zm0-813.95a403.54 403.54 0 0 0 -150.08 28.77l-3.09 1.25-1.55.64-1.55.66c-.51.22-1 .44-1.55.68s-1 .46-1.55.71l-1.55.75c-.51.26-1 .53-1.54.81s-1 .56-1.55.85l-1.55.91-1.54.95c-.51.33-1 .66-1.54 1s-1 .69-1.54 1-1 .74-1.52 1.12-1 .78-1.52 1.18-1 .82-1.52 1.25-1 .88-1.51 1.34-1 .92-1.5 1.41-1 1-1.51 1.48l-1.51 1.55q-.75.8-1.5 1.62c-.5.54-1 1.1-1.49 1.67s-1 1.16-1.49 1.75-1 1.21-1.47 1.85l-1.45 1.92-1.45 2q-.72 1-1.44 2l-1.44 2.1c-.48.72-.95 1.44-1.41 2.18s-.94 1.48-1.4 2.24-.91 1.51-1.36 2.28l-1.35 2.31-1.34 2.33-1.33 2.33-1.34 2.32-1.35 2.3c-.46.76-.92 1.52-1.38 2.26s-.92 1.49-1.39 2.21-1 1.45-1.43 2.15-1 1.4-1.44 2.08l-1.43 2c-.48.66-.95 1.3-1.43 1.92s-.94 1.22-1.4 1.8-.94 1.14-1.4 1.68-.92 1-1.38 1.53-.92 1-1.37 1.38-.91.84-1.36 1.23-.9.75-1.35 1.08a22 22 0 0 1 -2.66 1.74 18.43 18.43 0 0 1 -2.62 1.2 17.87 17.87 0 0 1 -2.58.74 19 19 0 0 1 -2.55.34 21.38 21.38 0 0 1 -2.53 0c-.84 0-1.68-.11-2.52-.21s-1.67-.23-2.51-.38-1.67-.32-2.5-.5-1.67-.35-2.51-.54-1.67-.37-2.51-.54-1.69-.35-2.53-.51-1.69-.3-2.54-.43-1.71-.22-2.56-.3-1.72-.13-2.58-.15-1.73 0-2.61 0-1.74.13-2.62.26-1.76.29-2.64.5a26.09 26.09 0 0 0 -2.66.8c-.89.31-1.77.67-2.66 1.08s-1.76.86-2.64 1.35-1.75 1-2.62 1.56-1.73 1.13-2.59 1.74-1.71 1.25-2.55 1.9-1.67 1.33-2.49 2-1.63 1.4-2.43 2.12-1.6 1.46-2.38 2.21-1.57 1.51-2.34 2.29-1.53 1.56-2.29 2.35a404.34 404.34 0 0 0 -114.37 282.28c0 223.77 182.01 405.77 405.73 405.77q18.34 0 36.3-1.61l1.71-.15 1.76-.24 1.7-.19 1.7-.21 1.69-.24 1.67-.26 1.65-.28 1.63-.31 1.61-.33 1.59-.36 1.55-.39 1.53-.42 1.49-.45 1.46-.48 1.42-.5 1.4-.53c.46-.17.91-.36 1.36-.54l1.33-.56c.43-.19.87-.38 1.29-.58l1.27-.58 1.23-.6c.41-.2.81-.4 1.2-.61l1.18-.61c.39-.2.77-.41 1.14-.62l1.13-.62 1.09-.62 1.09-.63 1.06-.63 1-.63 1-.63 1-.63 1-.63 1-.62.95-.62.94-.62.91-.61.91-.61 1.77-1.2 1.72-1.19 1.69-1.16 1.66-1.15 1.66-1.12c.55-.38 1.1-.74 1.66-1.11l1.71-1.08c.58-.35 1.16-.71 1.77-1s1.22-.69 1.85-1 1.3-.66 2-1 1.39-.63 2.12-.94 1.51-.6 2.31-.88 1.64-.56 2.52-.83 1.8-.51 2.77-.75 2-.46 3.07-.67c.53-.11 1.09-.21 1.65-.31l1.75-.27 1.83-.26 1.94-.23 2-.21 2.14-.18 2.24-.16 2.34-.15 2.45-.14 2.53-.13 2.68-.13 2.69-.15 2.76-.18c.93-.06 1.86-.14 2.8-.22s1.89-.17 2.83-.27 1.89-.21 2.83-.34 1.88-.26 2.81-.42 1.85-.31 2.76-.49 1.81-.35 2.7-.54 1.77-.39 2.64-.6 1.73-.42 2.57-.64 1.68-.44 2.5-.68l2.44-.71 2.37-.74 2.32-.73 2.25-.75 2.2-.75 2.15-.76 2.09-.76c.69-.25 1.36-.51 2-.77l2-.77 1.94-.78 1.89-.78 1.85-.79 1.79-.8 1.73-.8 1.68-.81 1.64-.81c.54-.27 1.08-.54 1.6-.82l1.57-.82c.52-.27 1-.55 1.53-.83l1.51-.83 1.48-.84 1.46-.85c1-.56 1.9-1.13 2.84-1.71s1.88-1.14 2.8-1.72l2.75-1.75c112.49-72.24 187.23-198.44 187.23-341.76 0-223.72-182.06-405.73-405.77-405.73z"/><path d="m742.12 742.11h-184.88-2.3-2.32l-2.33-.06-2.34-.09-2.34-.11-2.35-.13-2.35-.15-2.35-.15-2.35-.16-2.34-.16-2.34-.16-2.33-.15-2.33-.14-2.31-.13q-1.15-.08-2.31-.12l-2.3-.1c-.76 0-1.53-.06-2.29-.09l-2.28-.06-2.27-.05h-2.26-2.25-2.24-2.24l-2.23.05-2.23.08c-.75 0-1.5 0-2.24.09l-2.24.1-2.25.12-2.26.13-2.26.13-2.28.14-2.28.14-2.3.13-2.31.13-2.33.13-2.35.12-2.36.12-2.39.1-2.4.1-2.42.07-2.44.07h-2.44-2.46-383.32v-667.73h50.39 2.81s1.91.07 2.89.16 2 .22 3 .4 2 .4 3.08.69 2.1.62 3.18 1c.54.2 1.08.42 1.63.66s1.09.48 1.65.74 1.12.54 1.68.83 1.14.61 1.72.94 1.15.67 1.73 1 1.16.72 1.75 1.11l1.77 1.2c.59.41 1.18.84 1.78 1.28s1.19.88 1.79 1.34 1.2.93 1.8 1.41 1.21 1 1.82 1.46 1.2 1 1.8 1.52 1.2 1 1.79 1.58 1.17 1.1 1.75 1.66 1.16 1.15 1.73 1.75 1.15 1.2 1.72 1.82 1.14 1.24 1.71 1.88l1.7 1.9 1.69 1.92c.56.64 1.12 1.28 1.69 1.91s1.12 1.26 1.68 1.88 1.13 1.23 1.69 1.83 1.12 1.18 1.68 1.75 1.13 1.11 1.7 1.64 1.13 1 1.69 1.5 1.14.92 1.72 1.33 1.15.79 1.73 1.13a17.06 17.06 0 0 0 1.75.9 13.56 13.56 0 0 0 1.78.64 10.82 10.82 0 0 0 3.64.43 10.92 10.92 0 0 0 1.86-.25 12.75 12.75 0 0 0 1.9-.56 17.17 17.17 0 0 0 1.93-.87 21.64 21.64 0 0 0 2-1.17c.66-.43 1.32-.91 2-1.42s1.35-1.08 2-1.67 1.36-1.21 2-1.86 1.38-1.32 2.07-2 1.39-1.4 2.09-2.12l2.12-2.19 2.13-2.23 2.18-2.17 2.16-2.18 2.12-2.16 2.11-2.12c.7-.69 1.4-1.38 2.1-2.05s1.39-1.34 2.09-2 1.4-1.27 2.1-1.87 1.41-1.19 2.12-1.76 1.43-1.11 2.15-1.63 1.44-1 2.18-1.49 1.47-.92 2.21-1.34 1.5-.81 2.25-1.17 1.51-.71 2.27-1 1.51-.63 2.26-.92 1.5-.56 2.24-.81 1.49-.49 2.24-.7 1.49-.4 2.24-.57 1.49-.32 2.24-.44 1.5-.22 2.25-.29 1.5-.12 2.25-.14 1.5 0 2.26 0h480.56zm-642.78-25h617.77v-617.78h-453.11-2.24l-2.26.06c-.76 0-1.51.06-2.27.11s-1.52.1-2.28.18-1.52.16-2.28.28-1.52.25-2.28.41-1.5.36-2.24.59-1.49.49-2.23.79-1.47.62-2.2 1-1.46.75-2.19 1.16-1.46.86-2.19 1.32-1.46 1-2.19 1.48-1.46 1.05-2.2 1.61-1.48 1.15-2.23 1.75-1.48 1.24-2.22 1.89-1.47 1.34-2.2 2-1.46 1.44-2.18 2.18-1.45 1.51-2.18 2.29-1.44 1.57-2.16 2.37l-2.14 2.4-2.13 2.41-2.16 2.39-2.09 2.3c-.69.75-1.38 1.48-2.06 2.19s-1.37 1.4-2 2.06-1.35 1.3-2 1.91-1.33 1.18-2 1.73-1.31 1.06-2 1.54-1.29.92-1.92 1.33-1.27.79-1.9 1.13-1.25.64-1.86.9a18.81 18.81 0 0 1 -1.83.69 17.7 17.7 0 0 1 -1.8.47 15.53 15.53 0 0 1 -1.76.25 14.54 14.54 0 0 1 -1.74 0 16.5 16.5 0 0 1 -1.71-.17 16.85 16.85 0 0 1 -1.68-.33c-.55-.16-1.1-.34-1.65-.56s-1.09-.46-1.63-.73-1.07-.57-1.6-.89-1.06-.67-1.58-1.05-1-.76-1.56-1.18-1-.84-1.54-1.3-1-.92-1.52-1.41-1-1-1.5-1.51-1-1-1.49-1.59-1-1.09-1.47-1.66-1-1.13-1.47-1.71-1-1.16-1.45-1.75l-1.45-1.77-1.45-1.79-1.44-1.78c-.48-.6-1-1.18-1.45-1.77l-1.44-1.74-1.45-1.69c-.49-.56-1-1.11-1.46-1.65s-1-1.06-1.46-1.58-1-1-1.47-1.51-1-1-1.47-1.44-1-.92-1.47-1.36-1-.87-1.47-1.29-1-.81-1.46-1.2-1-.75-1.47-1.11-1-.69-1.47-1-1-.63-1.47-.92-1-.57-1.47-.82c-1-.51-1.95-1-2.91-1.37s-1.9-.78-2.83-1.11-1.84-.62-2.74-.88-1.78-.44-2.63-.6-1.7-.29-2.51-.39-1.61-.17-2.38-.23l-2.27-.15-2.18-.1-2.07-.06h-2-19.86z"/><path d="m205.77 490.24h-66.65c-.54 0-.81-.34-.81-1l.21-141.45a.88.88 0 0 1 1-1h23a.88.88 0 0 1 1 1l-.2 117.09h42.49a.89.89 0 0 1 1 1v23.35a.89.89 0 0 1 -1.04 1.01z"/><path d="m287.62 490.24h-66.62c-.54 0-.81-.34-.81-1l.2-141.65a.71.71 0 0 1 .81-.8h66.25c.53 0 .8.33.8 1v23.06a.71.71 0 0 1 -.8.8h-42.32v32.22h42.29a.71.71 0 0 1 .8.81l.2 23.35a.71.71 0 0 1 -.8.81h-42.49v36h42.49c.53 0 .8.34.8 1v23.55a.71.71 0 0 1 -.8.85z"/><path d="m176.07 681.88a37.57 37.57 0 0 1 -20.14-5.54 42.06 42.06 0 0 1 -14.55-14.9 40.71 40.71 0 0 1 -5.48-20.94v-65.34a39.17 39.17 0 0 1 5.54-20.53 41.73 41.73 0 0 1 14.59-15 37.73 37.73 0 0 1 20-5.59 39.54 39.54 0 0 1 20.54 5.43 41.41 41.41 0 0 1 14.54 14.8 40.73 40.73 0 0 1 5.39 20.84v9.47c0 .54-.34.8-1 .8h-23.12a.71.71 0 0 1 -.81-.8v-7.86a19.17 19.17 0 0 0 -4.43-13 14 14 0 0 0 -11.07-5.14 14.14 14.14 0 0 0 -10.57 4.94 16.34 16.34 0 0 0 -4.63 11.57v65.41a16.5 16.5 0 0 0 4.53 11.63 14.07 14.07 0 0 0 10.67 4.87 14.45 14.45 0 0 0 11.07-4.78 16.64 16.64 0 0 0 4.43-11.73v-10.16h-14.39c-.74 0-1.11-.33-1.11-1v-23.06c0-.67.37-1 1.11-1h38.55c.54 0 .81.33.81 1v34.23a40.87 40.87 0 0 1 -5.44 20.94 42.42 42.42 0 0 1 -14.59 14.9 38.47 38.47 0 0 1 -20.44 5.54z"/><path d="m255.2 679.87h-23.36c-.54 0-.8-.34-.8-1l.4-141.65a.71.71 0 0 1 .8-.81h41.68a40.22 40.22 0 0 1 20.54 5.44 41.76 41.76 0 0 1 15 14.6 39 39 0 0 1 5.54 20.73 38.4 38.4 0 0 1 -2.32 13.69 44.27 44.27 0 0 1 -5.38 10.37 32.52 32.52 0 0 1 -5.59 6.24 42.05 42.05 0 0 1 11.18 29.1l.2 42.28a.9.9 0 0 1 -1 1h-23.37c-.53 0-.8-.2-.8-.61v-42.67a18 18 0 0 0 -5.24-12.89 17.16 17.16 0 0 0 -12.88-5.44h-13.59l-.21 60.61c0 .67-.26 1.01-.8 1.01zm18.72-118.8h-17.71v32.42h17.71a16 16 0 0 0 11.33-4.73 15.83 15.83 0 0 0 .15-22.91 15.75 15.75 0 0 0 -11.48-4.78z"/><path d="m368.56 681.88a38.2 38.2 0 0 1 -20.24-5.64 43.47 43.47 0 0 1 -14.75-15 39.81 39.81 0 0 1 -5.57-20.74l.2-65.34a39 39 0 0 1 5.54-20.63 41.72 41.72 0 0 1 14.69-14.85 38.26 38.26 0 0 1 20.14-5.59 37.75 37.75 0 0 1 20.24 5.54 42.22 42.22 0 0 1 14.54 14.85 39.94 39.94 0 0 1 5.49 20.68l.2 65.34a40.3 40.3 0 0 1 -5.44 20.64 42.86 42.86 0 0 1 -14.69 15.1 38 38 0 0 1 -20.35 5.64zm0-24.87a14.27 14.27 0 0 0 10.87-5.08 16.53 16.53 0 0 0 4.63-11.43l-.2-65.34a16.49 16.49 0 0 0 -4.33-11.57 14.2 14.2 0 0 0 -11-4.74 14.66 14.66 0 0 0 -10.87 4.64 16 16 0 0 0 -4.53 11.67v65.34a16.5 16.5 0 0 0 4.53 11.63 14.29 14.29 0 0 0 10.9 4.87z"/><path d="m462.69 681.88a38.16 38.16 0 0 1 -20.23-5.64 43.3 43.3 0 0 1 -14.75-15 39.72 39.72 0 0 1 -5.59-20.69l.2-65.34a39.08 39.08 0 0 1 5.54-20.63 41.66 41.66 0 0 1 14.7-14.85 38.2 38.2 0 0 1 20.13-5.59 37.75 37.75 0 0 1 20.24 5.54 42.24 42.24 0 0 1 14.55 14.85 40 40 0 0 1 5.52 20.63l.2 65.34a40.39 40.39 0 0 1 -5.43 20.64 42.88 42.88 0 0 1 -14.7 15.1 38 38 0 0 1 -20.38 5.64zm0-24.87a14.25 14.25 0 0 0 10.87-5.08 16.54 16.54 0 0 0 4.64-11.43l-.2-65.34a16.52 16.52 0 0 0 -4.32-11.57 14.23 14.23 0 0 0 -11-4.74 14.66 14.66 0 0 0 -10.87 4.64 16 16 0 0 0 -4.53 11.67v65.34a16.5 16.5 0 0 0 4.53 11.63 14.29 14.29 0 0 0 10.88 4.87z"/><path d="m566.79 679.87h-25c-.6 0-.94-.34-1-1l-28.46-141.66c-.14-.54.13-.81.8-.81h23.36a1 1 0 0 1 1 .81l16.92 94.43 16.51-94.43a1 1 0 0 1 1-.81h23.08q1.11 0 .81.81l-28 141.65c-.08.67-.42 1.01-1.02 1.01z"/><path d="m675.32 679.87h-66.65c-.54 0-.8-.34-.8-1l.2-141.65a.71.71 0 0 1 .8-.81h66.25c.53 0 .8.34.8 1v23.06a.71.71 0 0 1 -.8.8h-42.29v32.22h42.29a.71.71 0 0 1 .8.8l.2 23.36a.71.71 0 0 1 -.8.8h-42.49v36h42.49c.53 0 .8.33.8 1v23.56a.71.71 0 0 1 -.8.86z"/></svg>
