<?xml version="1.0" encoding="UTF-8"?><svg id="Layer_2" xmlns="http://www.w3.org/2000/svg" viewBox="0 0 356.59 2091.73"><defs><style>.cls-1{fill:none;stroke:#232323;stroke-miterlimit:10;stroke-width:1px;}</style></defs><g id="PROJET"><g><path class="cls-1" d="M100.69,0V166.29c.07,11.55,.14,23.6,.28,36.16,.14,12.56,.62,25.73,1.79,39.55,.59,6.91,1.44,13.99,2.59,21.25,1.14,7.25,2.56,14.67,4.22,22.24,1.66,7.57,3.49,15.27,5.51,23.09,2.02,7.82,4.13,15.75,6.2,23.75,2.08,8,4.01,16.06,5.65,24.14,1.64,8.08,2.88,16.16,3.57,24.2,.7,8.05,.74,16.04,.13,23.98-.61,7.94-1.84,15.83-3.54,23.7-1.7,7.87-3.78,15.73-6.06,23.62s-4.67,15.81-7.02,23.81c-2.36,7.99-4.47,16.12-6.25,24.38-1.76,8.27-3.23,16.68-4.34,25.22-1.11,8.55-1.79,17.26-2.16,26.11-.36,8.85-.52,17.83-.58,26.92-.1,9.15-.41,18.41-.98,27.79-.8,8.32-1.95,16.71-3.63,25.14-1.68,8.43-3.81,16.86-6.2,25.3-2.62,8.41-5.44,16.81-8.43,25.18-2.99,8.38-6.03,16.74-8.98,25.1-2.95,8.36-5.7,16.74-8.11,25.13s-4.4,16.81-5.88,25.26c-1.48,8.45-2.37,16.94-2.61,25.46-.24,8.53,.19,17.09,1.31,25.7,1.12,8.61,2.91,17.25,5.29,25.93,2.38,8.68,5.28,17.4,8.56,26.14,3.28,8.74,6.81,17.51,10.35,26.29,3.54,8.78,6.92,17.57,10.02,26.37,3.1,8.79,5.82,17.58,7.98,26.34,2.17,8.76,3.76,17.52,5.1,26.3,1.21,8.85,2.38,17.72,3.64,26.61,1.28,9.68,2.45,19.35,3.43,29.03,.98,9.68,1.72,19.35,2.12,29.02,.4,9.67,.41,19.32,.03,28.97-.38,9.64-1.13,19.28-2.22,28.9-1.09,9.62-2.3,19.23-3.47,28.82-1.17,9.6-2.26,19.18-3.16,28.76s-1.58,19.14-2.09,28.68c-.53,9.53-.95,19.04-1.21,28.52-.3,9.48-.58,18.93-1.19,28.36-.26,10.08-.58,20.16-.95,30.24-.37,10.09-.76,20.18-1.13,30.26-.37,10.09-.68,20.17-.93,30.23-.25,10.06-.41,20.09-.48,30.08-.07,9.99-.08,19.92-.03,29.78,.04,9.86,.14,19.65,.24,29.35,.1,9.68,.23,19.28,.4,28.79,.17,9.51,.43,18.94,.71,28.31,.21,7.03,.44,14.01,.63,20.92,.09,6.83,.07,13.52-.11,20.02-.18,6.49-.51,12.8-.93,18.95-.65,6.03-1.72,11.83-3.36,17.39-2.41,5.25-5.35,10.21-8.79,14.84-3.44,4.62-7.39,8.94-11.76,13.02-7.46,5.75-15.51,11.18-24.1,16.41-6.44,3.92-13,7.85-19.34,11.97-6.34,4.12-12.15,8.53-17.06,13.39-4.91,4.85-8.56,10.23-10.62,16.23-2.06,5.99-2.35,12.66-.51,20.15,1.83,7.49,5.1,15.64,9.42,24.37,4.3,8.73,9.31,17.94,14.73,27.53,4.07,7.2,8.17,14.66,12.16,22.33,4,7.76,8.25,15.47,12.81,23.15,5.2,7.67,10.91,14.77,17.13,21.2,7.46,5.89,15.86,11.11,25.05,15.72,10.78,4.08,22.44,7.54,34.15,10.68,11.71,3.13,21.22,6.63,28.96,10.34,12.17,8.33,20.24,16.71,24.89,25.04,4.65,8.32,6.91,16.41,7.69,24.23,.11,7.97-1.07,15.73-3.71,23.51-2.64,7.78-6.62,15.74-12.12,24.01-5.96,8.95-13.89,18.35-23.3,28.08-9.49,9.78-17.93,19.11-24.35,27.57-5.52,8.21-9.87,15.84-13.25,22.91-3.14,6.99-5.55,13.44-7.32,19.42-2.81,11.72-3.98,21.94-4.35,30.64-.12,8.54-.12,15.69-.12,21.48v17.7"/><path class="cls-1" d="M109.83,0V166.29c.09,11.55,.17,23.61,.34,36.18,.18,12.58,.84,25.8,2.3,39.69,.73,6.95,1.83,14.08,3.22,21.38,1.39,7.3,3.08,14.77,5.09,22.41,2.02,7.64,4.32,15.43,6.78,23.33,2.46,7.91,5.04,15.92,7.58,24.01,2.56,8.09,5.01,16.23,7.14,24.37s3.77,16.28,4.69,24.35c.92,8.07,1,16.07,.23,23.98-.76,7.92-2.32,15.76-4.49,23.56-2.17,7.8-4.8,15.58-7.63,23.38-2.83,7.8-5.72,15.63-8.55,23.53-2.84,7.9-5.42,15.93-7.65,24.11s-4.02,16.52-5.42,25.01c-1.39,8.49-2.35,17.15-2.88,25.96-.5,8.82-.7,17.78-.79,26.85-.14,9.14-.49,18.39-1.1,27.72-.83,8.27-2.03,16.61-3.78,24.98-1.75,8.36-4,16.74-6.57,25.11-2.83,8.33-5.88,16.66-9.13,24.97-3.25,8.31-6.56,16.62-9.79,24.94-3.23,8.32-6.25,16.66-8.91,25.02s-4.88,16.76-6.55,25.2c-1.67,8.44-2.71,16.91-3.05,25.43-.34,8.52,.07,17.08,1.23,25.69,1.16,8.61,3.05,17.27,5.59,25.97,2.54,8.7,5.66,17.44,9.21,26.22,3.55,8.78,7.38,17.59,11.25,26.42,3.87,8.84,7.59,17.7,11.13,26.58,3.54,8.88,6.75,17.77,9.43,26.65,2.68,8.88,4.73,17.74,6.41,26.57,1.55,8.86,3.14,17.74,4.79,26.63,1.66,9.68,3.19,19.37,4.53,29.05,1.34,9.68,2.38,19.37,2.95,29.04,.57,9.67,.6,19.33,.06,28.97-.53,9.64-1.58,19.27-3.05,28.88-1.46,9.61-3.04,19.21-4.59,28.8s-3.05,19.17-4.29,28.73c-1.25,9.56-2.24,19.1-3.01,28.61-.77,9.51-1.41,18.99-1.89,28.44-.48,9.45-.94,18.87-1.79,28.28-.34,10.04-.72,20.08-1.14,30.13-.42,10.05-.83,20.12-1.19,30.19s-.63,20.14-.8,30.2c-.17,10.06-.23,20.1-.17,30.1,.06,10,.2,19.96,.4,29.85,.2,9.89,.43,19.7,.65,29.44,.18,9.7,.34,19.33,.5,28.86,.16,9.53,.37,18.97,.63,28.35,.19,7.03,.4,14.03,.61,20.99,.18,6.94,.3,13.78,.27,20.44-.03,6.67-.19,13.16-.46,19.52-.45,6.24-1.31,12.3-3.19,17.98-1.88,5.62-4.44,10.86-7.56,15.72-3.12,4.86-6.83,9.35-10.96,13.59-7.1,5.94-14.83,11.49-23.13,16.75-6.22,3.94-12.62,7.84-18.87,11.85-6.25,4.02-12.07,8.28-17.1,12.95-5.03,4.67-8.93,9.85-11.37,15.66-2.43,5.81-3.2,12.31-1.86,19.69,1.34,7.38,4.11,15.44,7.97,24.1,3.86,8.66,8.5,17.82,13.63,27.49,3.85,7.25,7.72,14.89,11.74,22.58,4.06,7.78,8.76,15.58,14.17,23.08,6.06,7.26,13.11,13.68,21.93,19.07,8.86,5.38,19.81,9.8,32.45,13.31,12.62,3.51,24.3,6.97,33.35,10.91,9.06,3.94,15.92,8.23,21.51,12.57,8.89,9.23,14.96,18.1,18.56,26.64,3.6,8.54,5.38,16.7,5.77,24.63s-.43,15.47-1.98,22.91c-2.24,7.57-5.09,15.12-9.02,22.83-4.26,8.34-9.94,16.95-17.34,25.94-7.4,8.99-16.29,18.35-24.71,27.4-7.09,8.72-12.68,16.71-16.84,24.05-4.14,7.34-7.19,14.08-9.56,20.31-3.37,11.88-5.08,22.31-5.67,31.08-.24,8.62-.25,15.78-.25,21.57v17.7"/><path class="cls-1" d="M118.97,0V166.29c.1,11.56,.2,23.62,.39,36.21,.23,12.6,1.08,25.87,2.87,39.83,.9,6.98,2.2,14.15,3.82,21.49,1.62,7.34,3.64,14.88,6.07,22.59,2.43,7.72,5.14,15.58,8.06,23.57,2.92,7.99,6.04,16.09,9.23,24.26,3.19,8.17,6.25,16.39,8.88,24.6,2.63,8.21,4.68,16.39,5.86,24.49,1.17,8.1,1.29,16.1,.36,23.99s-2.84,15.69-5.49,23.43c-2.65,7.74-5.81,15.44-9.27,23.15-3.45,7.71-7.01,15.45-10.41,23.26-3.4,7.81-6.46,15.75-9.13,23.85-2.66,8.1-4.88,16.35-6.61,24.78-1.67,8.44-2.87,17.05-3.57,25.82-.7,8.78-.99,17.71-1.13,26.79-.15,9.12-.51,18.34-1.13,27.63-.85,8.21-2.07,16.49-3.68,24.8-1.99,8.29-4.36,16.59-7.23,24.87-2.87,8.28-6.13,16.54-9.62,24.79s-7.06,16.52-10.57,24.8-6.8,16.59-9.72,24.92c-2.92,8.34-5.38,16.71-7.26,25.14-1.88,8.42-3.08,16.89-3.52,25.41s-.07,17.08,1.12,25.69c1.19,8.61,3.18,17.28,5.88,25.99s6.04,17.48,9.85,26.29c3.81,8.81,7.94,17.66,12.13,26.55,4.19,8.89,8.26,17.82,12.2,26.77,3.98,8.96,7.65,17.96,10.84,26.96,3.19,9,5.82,17.98,8.02,26.89,1.93,8.88,3.91,17.77,6.04,26.67,2.22,9.7,4.32,19.4,6.13,29.09,1.81,9.7,3.19,19.39,3.94,29.07,.75,9.68,.79,19.33,.1,28.97-.69,9.64-2.07,19.25-4,28.85s-4.08,19.18-6.16,28.76c-2.08,9.58-3.96,19.15-5.65,28.69-1.69,9.54-3.11,19.05-4.19,28.54-1.13,9.47-2.03,18.92-2.76,28.33-.73,9.41-1.39,18.8-2.51,28.18-.45,10.01-.92,20.01-1.42,30.03-.49,10.02-.95,20.06-1.32,30.11-.36,10.05-.6,20.12-.68,30.18-.08,10.06-.01,20.11,.19,30.13,.21,10.02,.52,20,.88,29.92,.37,9.92,.75,19.76,1.1,29.52,.35,9.76,.62,19.41,.82,28.98,.18,9.54,.35,19,.55,28.39,.23,9.38,.47,18.71,.71,27.97,.24,10.11,.34,20.03,.25,29.71-.29,9.49-1.35,18.64-3.46,27.32-3.15,8.15-7.28,15.67-12.37,22.55-6.22,6.57-13.23,12.62-21.02,18.15-7.85,5.52-16.1,10.8-24.19,16.2-8.09,5.4-15.38,11.24-20.98,17.9-5.61,6.66-8.85,14.42-9.17,23.49-.32,9.07,2.3,19.53,7.27,31.23,2.49,5.85,5.3,11.92,8.34,18.23,3.04,6.44,6.29,13.2,9.86,20.15,3.58,6.96,7.61,13.93,12.36,20.67,5.02,6.64,11.14,12.65,18.39,18,8.17,5.06,17.83,9.41,29,13.04,12.26,3.27,23.86,6.51,33.64,10.03,15.78,8.07,26.78,16.46,33.82,24.91,7.03,8.45,11.57,16.63,14.51,24.43,2.93,7.77,4.6,15.21,5.29,22.4,.69,7.14,.57,14.03-.4,20.68-.97,6.64-2.46,13.23-4.49,19.8-2.03,6.57-4.68,13.15-8.03,19.8-3.91,7.75-9.03,15.74-15.43,24-6.4,8.26-14.03,16.82-21.24,25.07-6.83,8.26-12.14,15.79-16.2,22.73-3.76,6.87-6.58,13.19-8.5,18.93-3.84,11.48-5.46,21.27-6.05,29.47-.23,8.03-.24,14.71-.24,20.1v16.47"/><path class="cls-1" d="M128.12,0V166.29c.11,11.56,.21,23.63,.43,36.22,.3,12.62,1.3,25.93,3.42,39.94,1.06,7.01,2.55,14.21,4.45,21.61s4.28,14.99,7.06,22.77c2.81,7.79,5.94,15.73,9.42,23.79s7.24,16.25,11.02,24.5c3.82,8.25,7.5,16.54,10.72,24.81s5.72,16.49,7.18,24.62c1.45,8.12,1.63,16.12,.52,24-1.11,7.88-3.38,15.64-6.54,23.32-3.15,7.68-6.94,15.32-11.02,22.95-4.08,7.64-8.23,15.3-12.27,23.02s-7.68,15.58-10.8,23.6c-3.1,8.02-5.72,16.2-7.78,24.57s-3.5,16.93-4.4,25.67c-.9,8.74-1.28,17.66-1.43,26.71-.17,9.12-.54,18.3-1.15,27.54-.85,8.15-2.06,16.34-3.68,24.59-2.04,8.22-4.52,16.44-7.54,24.64-3.02,8.2-6.46,16.4-10.16,24.6s-7.52,16.43-11.3,24.67c-3.77,8.25-7.33,16.52-10.52,24.83s-5.89,16.67-7.99,25.08c-2.09,8.41-3.47,16.87-4.03,25.38s-.23,17.07,.99,25.68c1.22,8.61,3.31,17.29,6.17,26.02,2.86,8.73,6.42,17.52,10.49,26.36s8.49,17.73,12.98,26.67c4.49,8.94,8.91,17.93,13.26,26.97,4.35,9.04,8.46,18.14,12.17,27.26,3.71,9.12,6.91,18.21,9.66,27.23,2.46,8.92,5.06,17.83,7.82,26.75,2.84,9.71,5.5,19.43,7.75,29.14,2.27,9.71,4.03,19.41,5.01,29.09,.98,9.68,1.04,19.34,.15,28.97-.89,9.63-2.63,19.24-5.05,28.83-2.39,9.58-5.08,19.15-7.77,28.71-2.67,9.56-5.2,19.1-7.38,28.63-2.21,9.51-4.12,18.99-5.69,28.43s-2.83,18.85-3.82,28.23c-.99,9.37-1.88,18.73-3.28,28.08-.62,9.97-1.22,19.94-1.79,29.92-.58,9.98-1.08,19.99-1.46,30.03s-.57,20.09-.57,30.15c0,10.06,.19,20.12,.56,30.15,.37,10.04,.87,20.04,1.44,29.99,.57,9.95,1.15,19.83,1.7,29.64,.49,9.78,.92,19.48,1.25,29.09,.23,9.57,.4,19.06,.56,28.46,.19,9.39,.39,18.73,.59,28,.21,10.14,.39,20.21,.42,30.12-.13,9.75-.97,19.22-2.76,28.27-2.75,8.6-6.42,16.59-10.94,23.95-5.53,7.05-11.91,13.49-19.25,19.29s-15.18,11.23-22.95,16.67c-7.77,5.44-14.91,11.22-20.57,17.74-5.67,6.52-9.22,14.09-10.05,22.96-.83,8.87,1.15,19.14,5.44,30.67,2.15,5.85,4.65,12.07,7.37,18.58,2.72,6.51,5.86,13.22,9.54,20.07,4.14,6.92,8.95,13.6,15.09,19.55,6.16,5.95,14.12,11.12,23.52,15.7,11.05,4.08,23.03,7.61,33.64,11.29,10.61,3.69,18.99,7.79,26.02,12.03,11.51,9.14,19.78,18.1,25.33,26.77,5.54,8.65,9.26,16.86,11.69,24.63s3.8,15.21,4.37,22.35,.47,13.97-.4,20.59c-1.72,13.13-5.02,25.89-10.03,38.58-2.92,7.4-6.89,14.97-11.85,22.73-4.96,7.75-10.97,15.73-17.96,23.94-6.96,8.21-12.8,15.9-17.52,23.02-4.36,7.01-7.86,13.56-10.58,19.61-3.78,11.58-5.74,21.51-6.31,29.7-.57,8.2-.6,14.88-.6,20.27v16.47"/><path class="cls-1" d="M137.26,0V166.29c.11,11.56,.22,23.63,.47,36.24,.34,12.62,1.49,25.96,3.88,40.02,1.19,7.03,2.88,14.27,5.07,21.71,2.19,7.45,4.85,15.1,7.99,22.94,3.17,7.84,6.81,15.85,10.85,23.98,4.04,8.13,8.36,16.38,12.8,24.69s8.75,16.66,12.56,24.96c3.81,8.3,6.81,16.54,8.58,24.68,1.77,8.13,2.01,16.13,.75,24-1.27,7.87-3.91,15.62-7.58,23.28-3.67,7.66-8.05,15.26-12.75,22.83s-9.51,15.17-14.12,22.83c-4.62,7.66-8.83,15.44-12.48,23.39-3.65,7.94-6.65,16.06-9.06,24.37-2.39,8.31-4.13,16.82-5.22,25.53-1.08,8.71-1.58,17.61-1.77,26.65-.17,9.1-.51,18.26-1.1,27.45-.83,8.09-2.01,16.2-3.85,24.35-1.84,8.14-4.37,16.28-7.5,24.41-3.12,8.13-6.71,16.27-10.6,24.42-3.89,8.16-7.93,16.34-11.96,24.55-4.03,8.21-7.85,16.46-11.3,24.75-3.45,8.29-6.41,16.63-8.73,25.02-2.32,8.39-3.88,16.84-4.57,25.35s-.41,17.06,.84,25.68c1.25,8.62,3.43,17.3,6.46,26.04,3.03,8.75,6.8,17.56,11.13,26.43s9.02,17.8,13.78,26.79c4.76,8.99,9.52,18.05,14.21,27.17,4.71,9.13,9.23,18.33,13.43,27.56,4.2,9.23,7.87,18.43,11.06,27.48,3.5,9.07,6.74,18,10.12,26.93,3.42,9.73,6.72,19.45,9.64,29.16,2.92,9.71,5.19,19.41,6.45,29.08,1.26,9.68,1.34,19.33,.22,28.97s-3.34,19.25-6.41,28.83c-3.07,9.59-6.43,19.15-9.72,28.69-3.24,9.54-6.42,19.05-9.31,28.52-2.89,9.48-5.36,18.92-7.42,28.32-2.06,9.4-3.74,18.77-5.06,28.11-1.33,9.34-2.47,18.65-4.15,27.98-.81,9.94-1.57,19.87-2.25,29.81-.68,9.95-1.25,19.93-1.63,29.95-.39,10.02-.55,20.06-.47,30.12,.08,10.06,.4,20.12,.94,30.17,.54,10.05,1.24,20.08,2.04,30.06,.8,9.98,1.61,19.9,2.35,29.74,.74,9.84,1.33,19.58,1.75,29.21s.63,19.15,.78,28.57c.14,9.41,.3,18.76,.45,28.04,.16,10.16,.29,20.25,.36,30.28-.02,9.97-.68,19.69-2.5,29-1.94,9.08-5.11,17.58-9.51,25.21-4.56,7.88-10.24,14.85-16.86,21.08-6.62,6.23-13.94,11.94-21.29,17.54-7.36,5.6-14.2,11.42-19.79,17.89-5.59,6.47-9.3,13.91-10.55,22.6-1.24,8.69,.14,18.77,3.74,30.5,1.8,5.86,3.89,12.13,6.34,18.59,2.72,6.4,6.19,13.03,10.51,19.63,5.03,6.35,11.2,12.19,18.94,17.38,8.75,4.91,19.42,9.12,30.87,12.92,10.85,3.93,20.2,8.08,27.76,12.52,7.55,4.44,13.63,9.07,18.81,13.68,8.64,9.62,15.11,18.77,19.64,27.42,4.53,8.64,7.65,16.76,9.7,24.49,2.05,7.73,3.19,15.14,3.66,22.22,.47,7.08,.37,13.86-.12,20.32-1.69,13.06-4.44,25.58-8.52,37.92-2.38,7.19-5.56,14.49-9.51,21.88-3.95,7.39-8.73,14.93-14.64,22.76-5.91,7.83-11.84,15.53-16.71,22.7-4.85,7.17-8.78,13.85-11.88,20.03-4.32,11.87-6.59,21.94-7.29,30.21-.71,8.27-.74,14.97-.74,20.36v16.47"/><path class="cls-1" d="M146.4,0V166.29c.11,11.56,.21,23.63,.47,36.24,.38,12.63,1.68,25.99,4.28,40.08,1.34,7.05,3.26,14.33,5.67,21.81,2.42,7.48,5.36,15.18,8.92,23.07,3.56,7.89,7.67,15.95,12.2,24.13,4.53,8.18,9.44,16.48,14.47,24.83,5.03,8.35,9.95,16.7,14.35,25,4.4,8.29,7.93,16.5,10.04,24.6,2.12,8.1,2.48,16.09,1.06,23.98-1.41,7.89-4.42,15.68-8.58,23.37-4.16,7.69-9.08,15.29-14.39,22.86-5.28,7.56-10.68,15.12-15.88,22.72-5.2,7.6-9.94,15.33-14.09,23.22-4.15,7.89-7.64,15.94-10.38,24.2-2.72,8.25-4.75,16.72-6.03,25.4s-1.91,17.56-2.13,26.59c-.14,9.09-.45,18.22-1.16,27.35-.63,8.05-1.76,16.09-3.58,24.14-1.82,8.05-4.36,16.11-7.54,24.17s-6.87,16.14-10.9,24.25c-4.03,8.11-8.27,16.25-12.52,24.42-4.25,8.18-8.33,16.4-12.04,24.66-3.71,8.26-6.93,16.58-9.48,24.95s-4.31,16.81-5.13,25.31c-.81,8.5-.6,17.05,.67,25.67,1.27,8.62,3.55,17.31,6.74,26.08s7.18,17.6,11.76,26.5,9.53,17.87,14.52,26.91c5.03,9.04,10.05,18.17,15.02,27.38,5.06,9.22,9.95,18.52,14.54,27.86,4.63,9.34,8.92,18.66,12.99,27.8,4.07,9.13,7.9,18.09,11.99,27.03,4.24,9.73,8.31,19.45,11.85,29.15,3.55,9.71,6.31,19.39,7.87,29.07,1.55,9.67,1.66,19.33,.29,28.97s-4.06,19.26-7.74,28.85c-3.67,9.59-7.77,19.16-11.82,28.69-4.05,9.53-7.88,19.01-11.45,28.44s-6.75,18.83-9.35,28.19c-2.6,9.36-4.78,18.69-6.5,27.99-1.71,9.3-3.11,18.57-5.07,27.86-1.03,9.91-1.99,19.82-2.79,29.75-.8,9.93-1.43,19.89-1.83,29.89s-.54,20.04-.38,30.09c.16,10.05,.61,20.11,1.31,30.17,.71,10.06,1.63,20.1,2.67,30.1,1.04,10.01,2.11,19.97,3.1,29.85,.99,9.88,1.81,19.67,2.39,29.34,.58,9.67,.91,19.23,1.08,28.68,.11,9.43,.22,18.78,.32,28.09,.11,10.17,.19,20.28,.2,30.33-.02,10.04-.5,19.94-1.66,29.57-2.06,10.01-5.01,19.56-9.27,28.24-4.25,8.68-9.67,16.39-15.93,23.28-6.26,6.89-13.1,13.19-20.06,19.3-6.96,6.11-13.38,12.43-18.41,19.45-5.03,7.02-8.1,15.09-8.68,24.54-.59,9.59,1.28,20.9,5.42,33.74,2.07,6.42,5.25,12.96,9.93,19.13,4.68,6.16,11.39,11.75,19.75,16.91,9.71,4.72,20.38,9.02,30.16,13.42,9.78,4.4,17.88,9.13,24.11,14.2,12.34,10.03,21.02,20.02,27.08,29.56,6.06,9.54,10.35,18.49,13.65,26.91,2.77,8.37,4.75,16.38,5.88,24.03s1.6,14.95,1.55,21.92-.54,13.67-1.31,20.13c-.99,6.51-2.2,12.89-3.75,19.22-1.81,7.37-4.09,14.71-6.94,22.06-2.85,7.35-6.37,14.77-10.84,22.4s-9.63,15.35-14.93,22.96c-5.3,7.6-10.01,14.84-14.18,21.64-5.98,13.1-9.29,24.21-10.63,33.29-.86,8.9-.95,16.09-.95,21.85v17.6"/><path class="cls-1" d="M155.54,0V166.29c.1,11.56,.2,23.62,.44,36.22,.4,12.63,1.81,26,4.67,40.12,1.43,7.06,3.51,14.37,6.12,21.88,2.61,7.51,5.84,15.24,9.77,23.17,3.92,7.93,8.41,16.01,13.4,24.23,5,8.22,10.41,16.53,15.97,24.87,5.57,8.34,11.1,16.65,16.08,24.86,4.98,8.21,9,16.33,11.46,24.37,2.46,8.04,2.96,16.02,1.45,23.96-1.51,7.94-4.79,15.82-9.37,23.6-4.58,7.78-10.05,15.47-15.88,23.07-5.83,7.6-11.77,15.16-17.5,22.75-5.74,7.58-10.99,15.27-15.6,23.12s-8.53,15.86-11.65,24.07-5.4,16.63-6.89,25.28c-1.49,8.65-2.22,17.51-2.47,26.55-.11,9.09-.38,18.2-1.01,27.3-.57,8.01-1.66,15.99-3.44,23.94-1.78,7.95-4.27,15.93-7.44,23.92-3.17,7.99-6.9,16.01-11.02,24.07-4.12,8.06-8.51,16.15-12.95,24.3-4.45,8.14-8.75,16.33-12.7,24.57-3.95,8.24-7.42,16.53-10.21,24.89-2.79,8.36-4.75,16.78-5.7,25.27s-.81,17.04,.48,25.67c1.29,8.63,3.67,17.33,7.02,26.11,3.35,8.78,7.55,17.64,12.36,26.57,4.81,8.93,9.98,17.94,15.17,27.04,5.25,9.1,10.5,18.3,15.75,27.6,5.27,9.31,10.49,18.71,15.5,28.17,5,9.46,9.82,18.88,14.5,28.06,4.78,9.17,9.44,18.15,14.23,27.08,4.79,8.93,9.55,17.85,13.56,26.74,4.3,9.53,7.71,19.04,9.8,28.53s2.54,18.99,1.23,28.49c-1.31,9.5-4.15,18.99-8.05,28.46-3.89,9.46-8.53,18.9-13.48,28.29-4.94,9.38-9.75,18.71-14.13,27.97-4.38,9.26-8.33,18.46-11.77,27.64s-6.25,18.32-8.53,27.44c-2.28,9.12-4.1,18.22-5.57,27.32-1.47,9.1-2.77,18.21-4.23,27.33-.98,9.75-1.8,19.52-2.37,29.32-.57,9.8-.87,19.64-.85,29.51s.37,19.76,1.04,29.66c.67,9.9,1.61,19.79,2.77,29.67,1.16,9.88,2.45,19.73,3.76,29.53,1.31,9.8,2.52,19.55,3.51,29.2s1.69,19.19,2.18,28.62c.3,9.39,.42,18.68,.48,27.89,.06,9.21,.11,18.36,.13,27.46,.02,9.95,.02,19.83-.14,29.62-.42,7.16-1.14,14.24-2.34,21.2-1.24,6.89-2.99,13.6-5.26,20.08-2.32,6.35-5.15,12.4-8.44,18.03-3.3,5.63-7,10.85-10.99,15.73-3.99,4.88-8.11,9.52-12.22,14.03-4.11,4.51-8.16,8.97-12.01,13.53-5.78,6.83-10.3,14.31-12.9,22.95-2.65,8.76-3.15,19.06-1.08,30.83,1.56,5.92,4.17,11.92,8.08,17.76,4.21,5.74,9.99,11.25,17.46,16.46,8.39,4.88,17.77,9.44,26.26,14.17,8.49,4.73,15.78,9.73,21.59,14.98,11.61,10.48,20.1,20.83,26.22,30.68,6.12,9.85,10.59,19.07,14.13,27.75,3.02,8.63,5.26,16.88,6.82,24.76,1.19,7.87,1.87,15.39,2.04,22.6,.17,7.15-.1,14.03-.73,20.66-.63,6.63-1.57,13.09-2.91,19.51-2.66,12.84-6.36,25.44-11.33,37.91-3.73,9.36-8.56,18.87-14.44,28.51-5.88,9.64-11.95,19.13-17.09,27.87-3.68,8.46-6.16,16.01-7.78,22.69-1.62,6.68-2.48,12.52-2.84,17.6-.09,19.4-.09,29.8-.09,29.8"/><path class="cls-1" d="M164.68,0V166.29c.09,11.55,.17,23.61,.39,36.2,.4,12.62,1.85,25.98,4.9,40.13,1.53,7.07,3.72,14.39,6.53,21.92,2.8,7.53,6.32,15.28,10.53,23.22,4.2,7.94,9.06,16.05,14.43,24.28,5.38,8.22,11.21,16.52,17.3,24.79,6.09,8.27,12.14,16.47,17.63,24.53,5.5,8.07,9.97,16.04,12.75,23.99,2.78,7.95,3.44,15.91,1.9,23.91-1.54,8-5.04,16-9.96,23.94-4.91,7.94-10.79,15.77-17.14,23.49-6.31,7.7-12.74,15.33-18.94,22.93-6.2,7.6-11.92,15.28-16.98,23.1-5.04,7.81-9.33,15.8-12.81,23.98-3.48,8.18-6.04,16.57-7.73,25.19s-2.52,17.48-2.81,26.51c-.07,9.09-.28,18.2-.68,27.31-.64,7.95-1.67,15.88-3.38,23.75-1.72,7.87-4.11,15.74-7.2,23.66-3.09,7.92-6.78,15.87-10.93,23.87-4.15,8-8.61,16.05-13.2,24.16s-9.08,16.27-13.24,24.48c-4.17,8.21-7.87,16.48-10.88,24.82-3.01,8.33-5.17,16.74-6.27,25.21-1.1,8.48-1.03,17.03,.27,25.67s3.77,17.36,7.28,26.16,7.9,17.68,12.91,26.65c5.01,8.97,10.36,18.02,15.68,27.18,5.42,9.16,10.81,18.44,16.18,27.84,5.51,9.4,10.92,18.91,16.27,28.5,5.34,9.58,10.63,19.04,16.06,28.24,5.43,9.19,10.81,18.18,16.16,27.11,5.53,8.9,10.98,17.79,15.74,26.63,5.1,9.47,9.23,18.91,11.74,28.36s3.06,18.94,1.51,28.46-4.95,19.07-9.61,28.6c-4.65,9.53-10.03,19.01-15.66,28.43-5.68,9.4-11.18,18.72-16.36,27.96-5.18,9.24-9.85,18.4-13.92,27.52-4.06,9.12-7.5,18.22-10.26,27.31-2.73,9.1-4.92,18.18-6.69,27.26-1.68,9.09-3.18,18.18-4.82,27.29-1.13,9.74-2.06,19.49-2.68,29.28-.62,9.79-.91,19.61-.84,29.47s.51,19.75,1.31,29.65,1.91,19.8,3.27,29.69c1.36,9.89,2.88,19.75,4.44,29.58,1.56,9.82,3.05,19.6,4.4,29.3,1.16,9.68,2.09,19.27,2.75,28.76,.4,9.43,.59,18.76,.62,27.99,.03,9.22,.03,18.39,.03,27.49,0,9.95,0,19.83-.24,29.58-.2,7.19-.8,14.28-1.81,21.29-1.02,7.01-2.47,13.9-4.36,20.65-1.93,6.67-4.32,13.12-7.14,19.25-2.82,6.13-6.03,11.89-9.53,17.3-3.5,5.4-7.14,10.53-10.78,15.48-3.65,4.95-7.25,9.79-10.71,14.7-5.19,7.37-9.4,15.34-12.16,24.37-2.64,9.04-2.79,19.37,1.75,30.15,2.59,5.28,6.71,10.46,12.06,15.51,5.35,5.04,12.06,9.91,19.52,14.68,7.43,4.75,13.91,9.75,19.66,14.87,5.75,5.12,10.84,10.34,15.46,15.52,8.07,10.59,14.65,20.68,19.68,30.19,5.02,9.48,8.85,18.39,11.7,26.91,2.85,8.51,4.79,16.63,5.97,24.4,1.17,7.77,1.75,15.19,1.87,22.3,.12,7.1-.13,13.92-.71,20.5s-1.42,12.99-2.58,19.36c-2.33,12.72-5.5,25.16-9.68,37.4-3.14,9.18-7.16,18.45-12.03,27.77-4.87,9.33-10.37,18.64-14.51,27.13-4.2,8.65-6.85,16.27-8.53,22.99-1.68,6.72-2.51,12.57-2.84,17.65-.06,19.39-.06,29.78-.06,29.78"/><path class="cls-1" d="M173.83,0V166.29c.07,11.55,.14,23.6,.32,36.17,.36,12.6,1.82,25.95,4.99,40.1,1.59,7.08,3.88,14.4,6.87,21.94,2.99,7.54,6.68,15.29,11.13,23.24,4.45,7.95,9.56,16.06,15.26,24.26,5.7,8.2,11.94,16.42,18.46,24.58,6.53,8.15,13.05,16.17,18.99,24.06,5.96,7.88,10.83,15.71,13.92,23.56,3.09,7.85,3.94,15.8,2.42,23.85-1.52,8.05-5.16,16.18-10.33,24.29s-11.38,16.14-18.11,24.02c-6.69,7.87-13.55,15.62-20.18,23.29-6.63,7.67-12.74,15.38-18.18,23.19-5.43,7.81-10.1,15.78-13.88,23.94s-6.65,16.53-8.56,25.13c-1.84,8.61-2.79,17.45-3.11,26.48-.04,9.1-.19,18.21-.5,27.32-.54,7.95-1.48,15.84-3.1,23.64-1.62,7.8-3.9,15.58-6.85,23.4-2.95,7.82-6.53,15.71-10.62,23.65-4.09,7.94-8.56,15.94-13.22,24.01-4.66,8.07-9.27,16.19-13.61,24.38-4.34,8.19-8.23,16.43-11.44,24.74-3.21,8.31-5.55,16.69-6.8,25.15s-1.25,17.02,.05,25.66c1.3,8.65,3.86,17.39,7.51,26.21s8.2,17.73,13.36,26.74,10.62,18.11,16.04,27.34c5.43,9.23,10.86,18.6,16.39,28.11,5.52,9.51,11.07,19.13,16.3,28.79,5.95,9.71,11.75,19.15,17.77,28.35,6.02,9.19,12.01,18.18,18.01,27.09,6.23,8.86,12.51,17.66,18.36,26.42,5.87,8.75,10.83,17.47,13.54,26.2,2.86,9.2,3.57,18.5,2.06,27.93-1.51,9.42-5.06,18.9-10.09,28.35-5.03,9.45-10.96,18.87-17.07,28.21-6.14,9.34-12.27,18.55-18.34,27.63-6.07,9.08-11.67,18.08-16.55,27.03s-9.06,17.87-12.53,26.79-6.21,17.84-8.47,26.74c-2.13,8.92-3.93,17.85-5.45,26.77-1.29,8.95-2.41,17.91-3.21,26.89-.86,9.59-1.35,19.22-1.46,28.89-.11,9.67,.17,19.37,.85,29.1,.68,9.73,1.73,19.47,3.09,29.21,1.36,9.74,2.97,19.47,4.7,29.17,1.74,9.7,3.51,19.37,5.16,28.98s3.07,19.16,4.25,28.62c.9,9.42,1.48,18.74,1.78,27.94,.08,9.14,.08,18.2,.08,27.2v30.14c-.05,9.63-.4,19.14-1.36,28.49-1,9.35-2.64,18.55-4.93,27.6-2.3,9.02-5.27,17.78-8.86,26.09-3.59,8.3-7.65,16.08-11.93,23.41-4.31,7.34-8.68,14.45-12.76,21.72-4.08,7.26-7.52,14.94-9.39,23.26-1.13,8.1,.46,16.5,5.99,24.88,5.52,8.38,14.22,16.75,23.23,25.53,8.97,8.74,17.16,17.82,24.06,26.91,6.89,9.09,12.55,17.97,17.2,26.46,4.65,8.49,8.45,16.55,11.54,24.34,3.09,7.78,5.52,15.28,7.44,22.5,1.61,7.18,2.78,14.11,3.48,20.78s1.02,13.1,.96,19.27c-.13,12.34-1.05,23.96-2.4,35.06-1.81,11.27-4.02,22.23-6.87,32.99-2.49,9.41-5.64,18.81-9.51,28.2-3.87,9.39-8.46,18.79-13.29,27.92-4.59,9.2-7.65,17.37-9.56,24.6-1.67,7.14-2.6,13.4-2.96,18.81-.08,20.65-.08,31.73-.08,31.73"/><path class="cls-1" d="M182.97,0V166.29c.05,11.54,.1,23.58,.21,36.12,.33,12.59,1.75,25.91,4.97,40.05,1.61,7.07,4,14.39,7.1,21.92,3.11,7.53,6.96,15.28,11.57,23.22,4.65,7.94,9.98,16.02,15.95,24.15,5.98,8.14,12.54,16.25,19.43,24.24,6.9,7.98,13.81,15.81,20.15,23.52,6.34,7.71,11.57,15.4,14.94,23.17,3.38,7.77,4.43,15.7,2.98,23.78-1.44,8.09-5.14,16.32-10.5,24.59-5.35,8.28-11.84,16.5-18.85,24.59-7.01,8.09-14.2,16-21.22,23.81-6.98,7.78-13.44,15.55-19.21,23.4s-10.74,15.81-14.81,23.96c-4.07,8.15-7.16,16.51-9.23,25.11-2.07,8.59-3.11,17.43-3.48,26.47-.02,9.1-.11,18.23-.32,27.37-.43,7.96-1.26,15.84-2.75,23.6-1.49,7.76-3.62,15.46-6.38,23.19-2.77,7.73-6.15,15.53-10.09,23.41-3.94,7.88-8.32,15.82-12.96,23.84-4.64,8.02-9.3,16.11-13.73,24.27-4.43,8.16-8.46,16.38-11.83,24.67-3.37,8.29-5.86,16.66-7.23,25.11-1.37,8.45-1.46,17-.16,25.65,1.3,8.65,3.92,17.41,7.67,26.25,3.74,8.85,8.41,17.79,13.64,26.84,5.23,9.05,10.71,18.22,16.06,27.53,5.38,9.31,10.74,18.78,16.2,28.39,5.5,9.62,11.15,19.39,16.62,29.07,6.13,9.75,12.42,19.16,18.88,28.32,6.46,9.17,13.01,18.13,19.7,26.97,6.96,8.77,13.88,17.49,20.58,26.12,6.2,8.35,11.59,16.46,14.56,24.84,3.13,8.83,3.9,18.2,2.22,28.05-1.66,9.85-5.55,19.73-11.03,29.42-5.48,9.66-11.94,19.17-18.71,28.6-6.79,9.42-13.65,18.7-20.26,27.82-6.86,9.06-13.1,18.04-18.67,26.97-5.57,8.93-10.3,17.82-14.25,26.71s-7.08,17.78-9.55,26.68c-2.47,8.9-4.45,17.8-6.14,26.72-1.45,8.94-2.7,17.88-3.59,26.86-.95,9.58-1.49,19.21-1.58,28.86-.09,9.66,.26,19.36,1.04,29.09,.78,9.73,1.97,19.47,3.5,29.22,1.53,9.75,3.32,19.49,5.27,29.21,1.95,9.72,3.93,19.41,5.81,29.05,1.88,9.64,3.53,19.21,4.8,28.69,1.27,9.48,2.06,18.83,2.51,28.06,.17,9.16,.17,18.22,.17,27.22v30.11c-.02,9.95-.29,19.78-1.12,29.44-.84,9.67-2.31,19.17-4.38,28.53-2.07,9.36-4.72,18.56-7.86,27.58-3.17,8.9-6.75,17.53-10.69,25.84-3.96,8.32-8.05,16.46-11.39,24.78-3.33,8.3-4.55,16.66-3.17,24.99,1.84,8.17,6.05,16.5,11.86,25.12s12.36,17.55,18.7,26.64c6.34,9.09,12.09,18.14,17.08,26.95,4.99,8.8,9.27,17.26,12.9,25.48,3.63,8.22,6.63,16.18,9.16,23.88,2.22,7.64,3.95,15.01,5.11,22.12,1.16,7.11,1.84,13.96,2.12,20.57,.28,6.56,.29,12.93,.08,19.11-.21,6.17-.62,12.18-1.15,18.02-1.41,11.78-3.15,23.16-5.52,34.35-2.76,13.04-6.39,25.89-11.07,38.64s-10.34,25.36-15.13,36.77c-3.48,11.04-5.05,20.34-5.48,27.99-.07,7.39-.07,13.55-.07,18.54v15.21"/><path class="cls-1" d="M192.11,0V202.32c.3,12.59,1.68,25.89,4.89,40.01,1.64,7.06,4.11,14.37,7.25,21.88,3.21,7.52,7.17,15.25,11.92,23.16,4.75,7.91,10.23,15.94,16.43,23.99,6.22,8.04,13.06,16,20.25,23.81,7.21,7.8,14.45,15.44,21.1,23,6.66,7.56,12.19,15.16,15.83,22.9,3.64,7.75,4.91,15.66,3.59,23.74-1.32,8.08-5.02,16.34-10.48,24.73-5.46,8.39-12.14,16.8-19.4,25.1-7.25,8.3-14.7,16.42-21.98,24.39-7.27,7.95-14.06,15.83-20.14,23.74-6.02,7.89-11.27,15.89-15.58,24.05-4.31,8.16-7.62,16.52-9.86,25.12-2.24,8.59-3.37,17.43-3.78,26.46-.03,9.1-.06,18.25-.19,27.42-.3,8-.99,15.9-2.33,23.65-1.33,7.75-3.28,15.41-5.83,23.05-2.56,7.64-5.69,15.34-9.37,23.13-3.69,7.79-7.87,15.67-12.38,23.63-4.51,7.96-9.1,16.01-13.54,24.13-4.43,8.12-8.52,16.32-11.97,24.6-3.45,8.27-6.04,16.63-7.5,25.07-1.46,8.44-1.61,16.99-.33,25.64s3.93,17.42,7.72,26.29c3.78,8.87,8.47,17.85,13.67,26.95,5.2,9.1,10.55,18.35,15.69,27.75,5.2,9.41,10.34,18.98,15.7,28.73,5.35,9.74,10.96,19.64,16.54,29.31,6.46,9.66,13.01,19.02,19.54,28.16,7.13,9.11,14.28,17.99,21.6,26.76,7.56,8.65,15.05,16.91,22.22,24.62,6.57,7.4,12.25,14.78,15.36,22.86,3.28,8.51,4,17.94,2.14,28.27-1.86,10.33-5.94,21.11-11.7,31.48-5.76,10.36-12.63,20.15-19.87,29.7-7.22,9.53-14.64,18.9-22.05,28.03-7.41,9.14-14.3,18.12-20.45,27.03-6.15,8.91-11.48,17.79-15.91,26.64-4.35,8.86-7.88,17.73-10.68,26.6-2.68,8.89-4.84,17.78-6.69,26.68-1.6,8.92-2.99,17.86-3.98,26.82-1.06,9.57-1.65,19.19-1.73,28.84-.09,9.66,.32,19.35,1.21,29.08,.89,9.73,2.21,19.48,3.9,29.24,1.69,9.76,3.67,19.52,5.8,29.26,2.14,9.74,4.33,19.45,6.41,29.11,2.09,9.66,3.96,19.25,5.47,28.75,1.51,9.5,2.53,18.87,3.18,28.13,.28,9.18,.31,18.25,.31,27.25v30.12c0,9.95-.16,19.79-.78,29.48-.65,9.69-1.83,19.22-3.53,28.61-1.71,9.39-3.92,18.63-6.53,27.74-2.61,9.11-5.59,18.17-8.99,27.1-3.41,8.95-6.88,17.76-9.57,26.67-1.69,8.79-1.85,17.43-.15,25.92s4.98,17.02,9.28,25.66c4.3,8.65,9.12,17.4,13.92,26.13,4.81,8.73,9.35,17.31,13.51,25.77s7.81,16.64,10.99,24.7c3.18,8.05,5.83,15.86,7.92,23.45,2.06,7.46,3.56,14.73,4.55,21.75,.99,7.02,1.57,13.81,1.79,20.35s.19,12.88-.04,19.04c-.23,6.16-.63,12.15-1.14,18-1.29,11.79-2.85,23.18-4.9,34.35-2.39,13.02-5.45,25.79-9.32,38.38s-8.51,24.96-12.59,36.16c-2.94,10.85-4.16,20.03-4.39,27.59-.03,7.34-.03,13.5-.03,18.49v15.21"/><path class="cls-1" d="M201.25,0V202.32c.16,12.54,1.41,25.8,4.58,39.87,1.59,7.04,4.05,14.32,7.27,21.81,3.21,7.49,7.21,15.2,12.03,23.06,4.82,7.86,10.45,15.81,16.82,23.73,6.39,7.91,13.45,15.7,20.88,23.33,7.46,7.62,14.95,15.1,21.85,22.56,6.91,7.47,12.69,15.07,16.58,22.91,3.89,7.85,5.4,15.83,4.25,23.86-1.15,8.02-4.8,16.14-10.32,24.49-5.51,8.4-12.31,16.94-19.75,25.43-7.43,8.49-15.09,16.83-22.59,24.98-7.47,8.15-14.49,16.18-20.8,24.18-6.31,8-11.77,16.05-16.29,24.24-4.52,8.19-7.99,16.56-10.36,25.16-2.37,8.6-3.61,17.44-4.09,26.47-.06,9.09-.06,18.26-.12,27.45-.18,8.05-.7,16.02-1.84,23.79-1.14,7.77-2.87,15.42-5.19,23.01-2.32,7.59-5.17,15.19-8.53,22.87-3.38,7.68-7.24,15.49-11.49,23.38-4.25,7.9-8.66,15.89-12.97,23.97-4.31,8.08-8.33,16.25-11.76,24.51-3.43,8.26-6.04,16.6-7.53,25.03-1.49,8.44-1.68,16.98-.44,25.64,1.25,8.66,3.87,17.44,7.59,26.34,3.73,8.9,8.31,17.92,13.33,27.09,5.01,9.17,10.09,18.5,14.87,28.01,4.81,9.51,9.61,19.21,14.29,29.08,5.6,9.91,11.11,19.81,16.89,29.38,6.62,9.55,13.35,18.84,20.52,27.9,7.19,9.04,14.89,17.85,22.69,26.37,8.03,7.87,15.95,15.07,23.52,21.88,6.88,6.71,12.72,13.62,15.89,21.51,3.34,8.31,3.92,17.77,1.77,28.43-2.14,10.67-6.5,22.12-12.38,33.44-5.88,11.33-12.95,21.76-20.51,31.57-7.55,9.76-15.25,19.24-23.26,28.45-8.01,9.22-15.44,18.22-22.11,27.12-6.67,8.9-12.51,17.76-17.35,26.6-4.84,8.84-8.72,17.68-11.82,26.53-2.91,8.87-5.23,17.75-7.23,26.63-1.76,8.91-3.28,17.83-4.37,26.79-1.16,9.56-1.81,19.17-1.9,28.83-.09,9.65,.38,19.35,1.37,29.09,.99,9.73,2.45,19.5,4.3,29.27,1.85,9.78,4,19.55,6.32,29.31,2.32,9.76,4.7,19.49,6.99,29.16,2.29,9.67,4.38,19.28,6.1,28.78,1.73,9.5,2.97,18.89,3.81,28.17,.42,9.2,.49,18.27,.49,27.27v26.81c0,9.7-.02,19.31-.32,28.79-.34,9.48-1.08,18.82-2.26,28.02-1.19,9.2-2.8,18.26-4.75,27.21-1.96,8.95-4.21,17.8-6.84,26.69-2.63,8.9-5.45,17.75-8.06,26.75-2.27,9.01-3.61,18.11-3.24,26.86,.37,8.75,2.15,17.27,4.93,25.69s6.22,16.76,9.95,25.05c3.73,8.28,7.53,16.52,11.2,24.67,3.67,8.15,7.09,16.18,10.16,24.02,3.06,7.85,5.71,15.49,7.89,22.9,2.18,7.41,3.86,14.59,5.08,21.54,1.21,6.96,2.01,13.7,2.46,20.24,.45,6.54,.62,12.88,.49,19.02-.27,12.29-1.07,23.99-2.25,35.28-1.17,11.28-2.68,22.29-4.44,32.99-1.55,9.37-3.39,18.61-5.56,27.72-2.17,9.11-4.67,18.08-7.29,26.7-2.67,8.68-4.5,16.52-5.55,23.48-1.03,6.95-1.51,13.07-1.59,18.37,0,20.69,0,31.85,0,31.85"/><path class="cls-1" d="M210.4,0V202.32c.06,12.51,1.11,25.7,4.17,39.72,1.53,7.01,3.96,14.26,7.16,21.72,3.21,7.46,7.22,15.12,12.06,22.92,4.9,7.79,10.62,15.63,17.12,23.4,6.52,7.77,13.73,15.39,21.35,22.85,7.63,7.46,15.31,14.82,22.41,22.28,7.11,7.49,13.08,15.28,17.21,23.33,4.13,8.06,5.89,16.18,4.96,24.17-.93,7.99-4.46,15.9-10,24-5.53,8.11-12.42,16.62-19.99,25.25-7.56,8.64-15.39,17.18-23.06,25.55-7.63,8.35-14.81,16.56-21.32,24.69s-12.15,16.26-16.83,24.5c-4.68,8.23-8.29,16.64-10.77,25.25-2.48,8.61-3.78,17.46-4.16,26.51-.3,9.05-.3,18.22-.31,27.44-.1,8.1-.43,16.15-1.35,23.99-.92,7.84-2.41,15.52-4.45,23.1-2.05,7.58-4.61,15.14-7.63,22.72-3.03,7.59-6.51,15.27-10.37,23.08-3.86,7.81-7.94,15.74-11.98,23.77s-7.86,16.16-11.16,24.39-5.81,16.56-7.26,24.99c-1.44,8.43-1.64,16.98-.46,25.65,1.19,8.67,3.69,17.47,7.24,26.41s7.87,18.02,12.53,27.27c4.65,9.25,9.27,18.69,13.43,28.31,4.37,9.63,8.7,19.49,13.16,29.43,5.32,9.98,10.85,19.73,17.06,29.19,6.29,9.44,13.11,18.65,20.62,27.6,7.62,8.92,15.65,17.37,23.86,25.01,8.45,6.87,16.73,13.25,24.57,19.47,7.13,6.36,13.14,13.1,16.31,20.91,3.34,8.23,3.7,17.7,1.17,28.48s-7.21,22.65-13.26,34.72c-6.05,12.07-13.09,23.49-20.78,33.79-7.72,10.23-15.59,19.88-23.95,29.19-8.35,9.3-16.36,18.37-23.46,27.3-7.19,8.89-13.44,17.73-18.72,26.55s-9.45,17.64-12.71,26.48-5.74,17.7-7.89,26.56c-1.92,8.9-3.57,17.81-4.77,26.75-1.27,9.55-1.99,19.15-2.08,28.8s.42,19.36,1.5,29.1c1.09,9.74,2.68,19.52,4.69,29.31,2.01,9.79,4.33,19.58,6.84,29.36,2.51,9.77,5.08,19.51,7.56,29.2,2.49,9.68,4.76,19.29,6.68,28.8s3.34,18.9,4.14,28.15c.79,9.25,.92,18.33,.92,27.33v26.81c0,9.7,0,19.32-.19,28.82-.19,9.5-.71,18.88-1.61,28.1-.9,9.23-2.15,18.33-3.71,27.31-1.56,8.98-3.37,17.87-5.53,26.83-2.16,8.96-4.48,17.94-7.18,27.08-2.48,9.24-4.26,18.56-4.42,27.58-.16,9.02,1.04,17.75,3.18,26.28s4.94,16.93,8.07,25.23c3.13,8.29,6.4,16.48,9.61,24.53s6.24,15.95,8.96,23.67c2.72,7.72,5.06,15.24,6.97,22.55,1.91,7.31,3.37,14.42,4.42,21.32,1.05,6.9,1.73,13.6,2.09,20.12s.46,12.85,.29,19.01c-.35,12.32-1.14,24.09-2.22,35.45-1.08,11.36-2.39,22.43-3.86,33.17-1.29,9.4-2.77,18.64-4.47,27.7-1.7,9.07-3.63,17.94-5.52,26.36-1.88,8.38-3.07,15.99-3.81,22.81-.74,6.82-1.04,12.85-1.08,18.09v31.85"/><path class="cls-1" d="M219.54,0V202.32c.02,12.5,.83,25.63,3.72,39.57,1.45,6.97,3.83,14.18,6.99,21.6s7.13,15.02,12.02,22.73c4.89,7.71,10.66,15.43,17.25,23.04,6.61,7.61,13.94,15.07,21.67,22.39,7.77,7.33,15.57,14.65,22.8,22.27,7.24,7.62,13.38,15.68,17.72,24,4.35,8.32,6.37,16.64,5.7,24.66-.67,8.02-4.02,15.73-9.51,23.48-5.49,7.76-12.47,15.89-20.17,24.46-7.65,8.68-15.59,17.39-23.4,25.95-7.76,8.55-15.07,16.96-21.71,25.25-6.62,8.27-12.43,16.52-17.26,24.83-4.77,8.3-8.48,16.74-11.04,25.38-2.56,8.64-3.92,17.49-4.35,26.54-.43,9.04-.43,18.21-.43,27.43-.04,8.13-.22,16.26-.9,24.22-.68,7.95-1.91,15.71-3.66,23.33-1.75,7.62-3.98,15.16-6.65,22.7-2.67,7.54-5.74,15.12-9.14,22.81-3.41,7.69-7.03,15.53-10.66,23.5-3.63,7.97-7.1,16.05-10.12,24.24-3.02,8.2-5.34,16.51-6.66,24.93-1.32,8.43-1.5,16.98-.4,25.67,1.1,8.69,3.4,17.52,6.64,26.51,3.24,8.99,7.13,18.15,11.25,27.5s8.1,18.91,11.61,28.69c3.75,9.79,7.65,19.75,11.88,29.6,5.07,9.9,10.56,19.48,16.76,28.82,6.21,9.33,13.27,18.42,20.74,27.27,8.17,8.46,16.48,16.01,25.14,22.45,8.67,6.44,17.28,12.37,25.4,18.35,7.24,6.24,13.24,12.95,16.32,20.76,3.25,8.23,3.41,17.69,.55,28.5s-7.99,22.79-14.39,35.32c-3.16,6.28-6.44,12.48-9.9,18.47-3.46,5.99-7.13,11.79-10.99,17.27-7.6,10.97-15.56,20.91-24.07,30.37-8.42,9.43-16.83,18.56-24.42,27.5-7.59,8.94-14.24,17.78-19.88,26.59-5.62,8.8-10.13,17.61-13.61,26.43-3.48,8.82-6.11,17.66-8.41,26.51-2.07,8.88-3.87,17.78-5.17,26.71-1.39,9.54-2.17,19.13-2.28,28.78s.46,19.36,1.64,29.11,2.91,19.54,5.08,29.35c2.16,9.81,4.66,19.61,7.34,29.4,2.68,9.79,5.43,19.54,8.09,29.23,2.66,9.69,5.1,19.3,7.17,28.81,2.07,9.51,3.64,18.9,4.57,28.15,.93,9.25,1.13,18.34,1.13,27.34v26.81c0,9.71,0,19.33-.07,28.84-.1,9.52-.44,18.92-1.08,28.19s-1.59,18.4-2.79,27.42c-1.2,9.02-2.62,17.93-4.29,26.9-1.81,9.06-4.09,18.25-6.86,27.66s-5.02,18.8-5.79,28.02c-.77,9.21-.13,18.08,1.48,26.7,1.61,8.62,3.89,17.04,6.56,25.3,2.67,8.26,5.52,16.37,8.36,24.32,2.84,7.95,5.54,15.74,7.96,23.35,2.42,7.61,4.5,15.04,6.17,22.28,1.67,7.24,2.95,14.3,3.85,21.17,.9,6.87,1.47,13.56,1.74,20.07s.3,12.86,.1,19.05c-.42,12.39-1.19,24.25-2.17,35.72s-2.1,22.62-3.27,33.4c-1.03,9.44-2.15,18.69-3.38,27.72-1.24,9.03-2.58,17.73-3.87,25.86-2.14,16.3-2.63,29.66-2.64,40.03v31.85"/><path class="cls-1" d="M228.68,0V202.32c0,12.5,.61,25.58,3.29,39.44,1.34,6.93,3.63,14.1,6.7,21.46,3.08,7.36,7.02,14.89,11.89,22.49,4.88,7.6,10.68,15.17,17.33,22.63,6.66,7.45,14.06,14.76,21.87,22.01,7.82,7.25,15.7,14.62,23.01,22.48,7.32,7.87,13.59,16.24,18.12,24.88,4.53,8.64,6.82,17.21,6.43,25.32-.39,8.11-3.49,15.69-8.87,23.07-5.37,7.38-12.39,15.03-20.2,23.34-7.79,8.32-15.81,17.14-23.7,25.88-7.86,8.74-15.26,17.34-21.99,25.79-6.7,8.45-12.61,16.83-17.51,25.23-4.9,8.4-8.68,16.9-11.29,25.56-2.61,8.67-4.08,17.53-4.85,26.53-.24,9.07-.24,18.24-.24,27.46-.03,8.13-.13,16.3-.54,24.41-.47,8.06-1.4,15.94-2.84,23.65-1.44,7.71-3.32,15.31-5.61,22.85-2.3,7.54-4.96,15.09-7.91,22.7-2.95,7.61-6.06,15.32-9.17,23.19-3.12,7.87-6.11,15.89-8.74,24.04-2.62,8.15-4.64,16.44-5.79,24.86-1.14,8.42-1.28,16.98-.3,25.69,.98,8.71,2.99,17.59,5.78,26.65,2.79,9.06,6.1,18.31,9.54,27.79,3.43,9.48,6.69,19.19,9.58,29.07,3.17,9.88,6.67,19.8,11.1,29.47,4.43,9.67,9.75,19.09,15.96,28.31,6.21,9.22,13.44,18.12,21.38,26.14,8.02,8.01,16.62,14.72,25.58,20.66,8.96,5.94,17.77,11.67,25.96,17.58,7.25,6.27,13.27,13.09,16.3,20.96,3.19,8.29,3.06,17.73-.17,28.47-3.24,10.73-8.71,22.71-15.51,35.43-3.4,6.36-6.79,12.77-10.26,19.03s-7.06,12.38-10.76,18.23c-7.4,11.7-15.32,22.08-23.34,31.79-8.83,9.6-17.41,18.81-25.38,27.8-7.97,8.99-14.94,17.84-20.87,26.63-5.93,8.8-10.74,17.59-14.49,26.38-3.61,8.81-6.37,17.64-8.71,26.49-2.34,8.85-4.28,17.73-5.68,26.65-1.5,9.53-2.36,19.11-2.48,28.76-.12,9.65,.5,19.36,1.78,29.13,1.28,9.76,3.15,19.57,5.46,29.39s4.97,19.64,7.82,29.44c2.85,9.8,5.76,19.56,8.56,29.26,2.81,9.7,5.38,19.31,7.57,28.81,2.19,9.5,3.87,18.89,4.88,28.12,1.02,9.24,1.29,18.33,1.3,27.33v26.81c0,9.71,0,19.33-.02,28.86-.03,9.53-.21,18.96-.62,28.26-.44,9.3-1.12,18.48-2.01,27.53-.89,9.05-1.96,18-3.23,26.95-1.53,9.15-3.83,18.5-6.75,28.13-2.93,9.66-5.61,19.2-7.43,28.65-.93,9.18-.87,18.15,.23,26.81,1.1,8.66,2.93,17.07,5.2,25.29,2.26,8.21,4.75,16.25,7.27,24.1,2.51,7.86,4.92,15.55,7.07,23.08s3.99,14.89,5.46,22.09c1.47,7.2,2.57,14.22,3.34,21.08,.77,6.86,1.23,13.55,1.41,20.08,.19,6.53,.16,12.91-.08,19.15-.46,12.48-1.2,24.47-2.07,36.06-.87,11.59-1.78,22.83-2.63,33.68-.75,9.49-1.48,18.76-2.23,27.69-.75,8.95-1.5,17.44-2.1,25.35-.73,15.81-.81,28.84-.81,39.18v31.85"/><path class="cls-1" d="M237.82,0V202.32c0,12.5,.47,25.55,2.89,39.33,1.21,6.89,3.38,14.01,6.37,21.32,3,7.3,6.88,14.73,11.73,22.21,4.85,7.48,10.64,14.9,17.31,22.2,6.67,7.3,14.09,14.5,21.92,21.71,7.84,7.23,15.72,14.8,23.06,22.94,7.37,8.16,13.73,16.87,18.42,25.86,4.7,8.99,7.25,17.84,7.16,26.08s-2.91,15.78-8.1,22.87c-5.2,7.09-12.19,14.21-20.1,21.99-7.9,7.8-16.05,16.42-23.99,25.29-7.92,8.89-15.4,17.67-22.18,26.31-6.76,8.63-12.7,17.15-17.66,25.66-4.96,8.51-8.78,17.07-11.82,25.75-2.28,8.73-3.84,17.6-4.7,26.6-.31,9.07-.32,18.23-.32,27.45-.02,8.13-.1,16.3-.34,24.47-.26,8.16-.9,16.21-2.01,24.08-1.11,7.86-2.65,15.58-4.55,23.19-1.91,7.61-4.15,15.19-6.66,22.77-2.51,7.59-5.13,15.25-7.73,23.02-2.61,7.78-5.09,15.7-7.25,23.78-2.16,8.09-3.81,16.34-4.74,24.75s-1.02,16.99-.2,25.74,2.47,17.69,4.73,26.84c2.26,9.15,4.9,18.54,7.63,28.15,2.73,9.61,5.34,19.4,7.67,29.21,2.7,9.83,5.84,19.51,10.02,28.98,4.18,9.46,9.33,18.74,15.55,27.79,6.28,9.04,13.52,17.54,21.65,24.77,8.14,7.23,16.93,13.37,26.11,19.07,9.18,5.7,18.02,11.39,26.28,17.39,7.39,6.46,13.41,13.45,16.32,21.39,3.06,8.37,2.68,17.79-.97,28.39-3.65,10.6-9.58,22.44-16.7,35.17-3.54,6.37-7.07,12.86-10.6,19.3-3.52,6.45-7.09,12.82-10.68,18.98-7.18,12.33-14.91,23.25-22.75,33.26-8.61,9.89-17.21,19.23-25.4,28.29-8.19,9.05-15.48,17.93-21.65,26.73-6.17,8.8-11.2,17.58-15.06,26.37-3.86,8.79-6.74,17.61-9.2,26.45-2.69,9.64-4.89,19.31-6.44,29.04-1.55,9.73-2.36,19.52-2.32,29.39,.04,9.87,.9,19.81,2.49,29.81,1.58,10,3.76,20.03,6.4,30.07,2.63,10.04,5.58,20.08,8.66,30.09,3.08,10.01,6.16,19.96,9.06,29.82,2.9,9.87,5.48,19.63,7.57,29.28,2.1,9.64,3.58,19.14,4.31,28.5,.72,9.35,.79,18.58,.82,27.73v29.82c0,9.85,0,19.62-.03,29.29-.05,9.67-.25,19.23-.65,28.67-.41,9.44-1.02,18.75-1.77,27.94-.76,9.19-1.74,18.37-3.35,27.78-2.49,9.79-5.63,19.85-8.82,29.86-2.85,9.93-4.96,19.53-6.08,28.98-.26,9.11,.3,18,1.69,26.59s3.32,16.92,5.5,25.05c2.18,8.13,4.44,16.07,6.59,23.84,2.15,7.77,4.08,15.38,5.68,22.83,1.61,7.45,2.87,14.75,3.8,21.88,.93,7.13,1.53,14.11,1.84,20.93,.32,6.82,.38,13.49,.22,20.02-.32,13.06-.95,25.61-1.7,37.71s-1.46,23.81-2.03,35.12c-.67,13.19-1.12,25.78-1.53,37.47-.02,11.67,.18,22.32,.45,31.92,.16,9.43,.16,17.71,.16,24.89v33.18"/><path class="cls-1" d="M246.96,0V202.32c0,12.5,.38,25.53,2.12,39.19,1.53,6.91,3.58,13.98,6.49,21.21s6.71,14.56,11.51,21.9c4.8,7.33,10.56,14.61,17.21,21.78,6.66,7.17,14.05,14.29,21.85,21.57,7.81,7.31,15.65,15.11,23,23.56,7.36,8.47,13.76,17.55,18.6,26.88,4.85,9.34,7.63,18.44,7.84,26.83,.21,8.39-2.3,15.96-7.25,22.88-4.95,6.92-11.85,13.62-19.81,20.8-7.96,7.18-16.27,15.3-24.32,24.07-7.97,8.94-15.49,17.89-22.3,26.7-6.8,8.8-12.75,17.48-17.72,26.11-4.96,8.62-8.82,17.28-11.55,26.02-2.71,8.74-4.32,17.62-4.98,26.65-.65,9.03-.68,18.2-.68,27.41-.02,8.13-.08,16.3-.21,24.51-.17,8.19-.56,16.36-1.34,24.41-.78,8.04-1.96,15.93-3.49,23.68-1.52,7.76-3.36,15.42-5.42,23.07-2.07,7.65-4.24,15.32-6.38,23.08-2.15,7.76-4.17,15.64-5.91,23.67-1.74,8.03-3.05,16.24-3.78,24.63-.73,8.39-.79,16.98-.15,25.78,.64,8.8,1.92,17.82,3.66,27.07,1.74,9.25,3.79,18.72,5.91,28.35,2.12,9.63,4.17,19.34,6.28,28.93,2.11,9.59,4.97,19.02,8.82,28.32,4,9.29,9.02,18.44,14.76,27.32,6.69,8.55,14.02,16.33,22.26,22.94,8.24,6.61,17.27,12.46,26.49,18.07,9.22,5.61,18.19,11.43,26.07,17.86,7.88,6.43,13.75,13.58,16.51,21.61,2.9,8.46,2.27,17.85-1.71,28.33-3.94,10.49-10.33,22.11-17.86,34.72-3.66,6.33-7.32,12.82-10.94,19.35-3.62,6.53-7.21,13.06-10.72,19.45-7.02,12.78-14.42,24.32-22.03,34.66-8.26,10.28-16.68,19.81-24.92,28.95-8.25,9.14-15.78,18.06-22.15,26.9-6.38,8.8-11.55,17.57-15.55,26.36-3.99,8.78-6.97,17.59-9.55,26.42-2.82,9.63-5.15,19.29-6.81,29s-2.52,19.5-2.48,29.37c.04,9.87,.97,19.82,2.65,29.83,1.68,10.01,3.99,20.05,6.75,30.11,2.76,10.05,5.83,20.1,9.02,30.11,3.19,10.01,6.36,19.96,9.33,29.82,2.97,9.86,5.59,19.61,7.71,29.23,2.12,9.62,3.6,19.1,4.34,28.45,.71,9.33,.81,18.56,.85,27.71v59.14c-.01,9.68-.08,19.26-.31,28.72-.23,9.46-.61,18.82-1.12,28.05-.51,9.23-1.19,18.39-2.49,27.78-2.36,9.82-5.44,19.95-8.96,30.2-3.01,10.12-5.6,19.97-7.32,29.42-.87,9.22-.9,18.17,0,26.76,.9,8.59,2.42,16.89,4.24,24.96,1.82,8.07,3.76,15.96,5.62,23.67s3.54,15.27,4.95,22.69c1.4,7.41,2.49,14.69,3.28,21.82,.78,7.13,1.27,14.12,1.5,20.96,.23,6.85,.24,13.56,.07,20.15-.34,13.17-.92,25.86-1.51,38.07-.4,8.14-.73,16.09-.97,23.85-.24,7.76-.36,15.32-.38,22.62-.02,7.3,.12,14.29,.43,20.96,.31,6.67,.78,13.02,1.28,19.05,1.14,12.01,1.69,22.63,1.7,31.9v43.01"/></g></g></svg>
